<mxfile host="app.diagrams.net" modified="2024-06-11T01:30:52.185Z" agent="Mozilla/5.0 (Windows NT 10.0; Win64; x64) AppleWebKit/537.36 (KHTML, like Gecko) Chrome/125.0.0.0 Safari/537.36" etag="uOj5j-AZOwoOJw-P06O5" version="24.4.2" type="device">
  <diagram id="STcZ12dg7cT1rM8q-_fs" name="Page-1">
    <mxGraphModel dx="4098" dy="936" grid="1" gridSize="10" guides="1" tooltips="1" connect="1" arrows="1" fold="1" page="1" pageScale="1" pageWidth="1169" pageHeight="827" math="0" shadow="0">
      <root>
        <mxCell id="0" />
        <mxCell id="1" parent="0" />
        <mxCell id="EWTi3nRZQ3Ram_rcYh2X-4" value="AWS Cloud" style="points=[[0,0],[0.25,0],[0.5,0],[0.75,0],[1,0],[1,0.25],[1,0.5],[1,0.75],[1,1],[0.75,1],[0.5,1],[0.25,1],[0,1],[0,0.75],[0,0.5],[0,0.25]];outlineConnect=0;gradientColor=none;html=1;whiteSpace=wrap;fontSize=12;fontStyle=0;shape=mxgraph.aws4.group;grIcon=mxgraph.aws4.group_aws_cloud_alt;strokeColor=#232F3E;fillColor=none;verticalAlign=top;align=left;spacingLeft=30;fontColor=#232F3E;dashed=1;strokeWidth=3;" parent="1" vertex="1">
          <mxGeometry x="-2140" y="30" width="1300" height="762" as="geometry" />
        </mxCell>
        <mxCell id="EWTi3nRZQ3Ram_rcYh2X-9" value="&lt;b style=&quot;&quot;&gt;&lt;font color=&quot;#3d433d&quot;&gt;Itau VPC&lt;/font&gt;&lt;/b&gt;" style="points=[[0,0],[0.25,0],[0.5,0],[0.75,0],[1,0],[1,0.25],[1,0.5],[1,0.75],[1,1],[0.75,1],[0.5,1],[0.25,1],[0,1],[0,0.75],[0,0.5],[0,0.25]];outlineConnect=0;gradientColor=none;html=1;whiteSpace=wrap;fontSize=12;fontStyle=0;shape=mxgraph.aws4.group;grIcon=mxgraph.aws4.group_vpc;strokeColor=#899188;fillColor=none;verticalAlign=top;align=left;spacingLeft=30;fontColor=#AAB7B8;dashed=0;" parent="1" vertex="1">
          <mxGeometry x="-2100" y="70" width="1230" height="699.5" as="geometry" />
        </mxCell>
        <mxCell id="EWTi3nRZQ3Ram_rcYh2X-5" value="" style="rounded=0;whiteSpace=wrap;html=1;fillColor=none;strokeColor=#232F3E;dashed=1;strokeWidth=3;" parent="1" vertex="1">
          <mxGeometry x="-2310" y="30" width="130" height="762" as="geometry" />
        </mxCell>
        <mxCell id="EWTi3nRZQ3Ram_rcYh2X-15" value="Clients" style="text;html=1;strokeColor=none;fillColor=none;align=center;verticalAlign=middle;whiteSpace=wrap;rounded=0;dashed=1;" parent="1" vertex="1">
          <mxGeometry x="-2260" y="50" width="40" height="20" as="geometry" />
        </mxCell>
        <mxCell id="EWTi3nRZQ3Ram_rcYh2X-19" value="" style="shape=image;verticalLabelPosition=bottom;verticalAlign=top;imageAspect=0;aspect=fixed;image=data:image/png,iVBORw0KGgoAAAANSUhEUgAAASwAAAEsCAYAAAB5fY51AAAgAElEQVR4Xu1dCZRUxdX+qnv2YZhhFoZtZFMUUXCLKCJL3OK+oMZoSFTEaPL/Mb/GqIkR3GLclyRqGMBdkyBq4r4kgIrRxAU3XJDFYWcWBhhmn67/1Ot+Pa9fv/eq6r3X23T1OTknMtW13Kr6+t773XuLQH2ySgJVs5ceTymuIQRHgtLdFOQDAC80dAy4H49N2J1VwlCLzTgJkIybsZqwawkMuHjZ/kFKPyRAjrkTCqxECFc3LJj2vOsB1BeVBBIsAQVYCRZwOnVfOXvp5wTY12lOlOJNhOgVDQunv59Oc1dzURJgElCAlSXnoPKiJdMIIUv05ZL27aA5+UBOkaUEKPC3rp7gNTsWHrkmS0SklpkBElCAlQGb5McUq2YvuxCgC/S+ij+5F3nbP0d3/1HorD4MHUOm2Q1zf3tH4XW7Hp3Y6Mc8VB9KAl4koADLi/Qy6LtVs5f+DsA1+pT7v3MFgl27oivoKahA28gz0Fl1CAiJPRYU2EmA39d30bvx8PT2DFq2mmofk4ACrD62oXbLqZy99FECzNT/PmDZxZZNe/rVYPfos9FTtnfc3ymwGcCchtpptVkiNrXMNJOAAqw025BETafyoqVPEoIf6P2XLfsJCKjtcF0V49E68nSEiodatfkUwFX1tdNeTtR8Vb9KAlYSUICVJedCFrA0sZAAOqonoW3EKaD5ZRYaF13W3ZNzWfPCIz/OEjGqZaZYAgqwUrwByRreFWBFJkcDeegYdgzaao4DcgpipkyppqY9FeohVzc9NHV9stajxslOCSjAypJ99wJYuohCOf3QPuJkdAyZApCgGbg6QfDHrpzgTTseOHJ7lohVLTPJElCAlWSBp2o4PwBLn3tP4UC0jTgdXQMPjjcTKZopxS2NO6vuwaJxnalarxq3b0pAAVbf3Ne4VYkCVii3EIGuNiGpdPcbjta9foCe/qMs/Fuoo5T8tnH+lMcAYu/dFxpJNVISCEtAAVaWnARRwGofPBabz74Lla/fhZKVrwtJp7PiALSNOgOhokEW7enHPSTwq6Z5U18T6kw1UhJwkIACrCw5HjKAVffTZwFKUVD3IapeuxOFdR/ypUSC6Bg8Ge3DT0Yor7+FxkWXhZD7s6bayZ/zO1MtlASsJaAAK0tOhjRgMbnQsCVX/MU/UfXaHchrXMeVViiQj46aY7X/0WB+THuNUSR4PNRNfqMYRa4oVQMLCSjAypJjIQ1YEbDSQQs9XSj9cDEqlvwRObubuFIL5Zagbfgp6BxypBbPFYtcaKfAH0JtBTc1PXHYTm5nqoGSQEQCCrCy5ChIAdalz0SkEvGVR8ELIB27Ub58IcrefQzBTn69v57CarSNmoGuygPizUSKJhDc3NBc9UfFKGbJQfS4TAVYHgWYKV8XBqxBY1H302ei5iD09B0NtEj034MtDSh/888o+2ARSKibK4bukpFo3fP7lowigHU0RH7TsGDKU4pR5IoyqxsowMqS7RcGrMFjUXfp4rBU9GAEo3nITozhv3Mb1qHyX/eg5Mt/CUmys+pgtI44DbSo2qr9CoTIZfULpr4p1JlqlHUSUICVJVsuDFiD9jFoWL0aVRSkYjSuXvAqqPsIVf+6B4XrV3AlShHQouXbh58EasEoAng5RMkVjfOnfsHtTDXIKgkowMqS7RYHLKOGRcORemYHvNE8NP29+OulqHrjbuQ1fcuVrMYo7vE9tA87GjAzikCIUDxCQznXNiycvInbmWqQFRJQgJUV2wyIA9Y+qGNOdwczMGwuRnxaVhpXqBulHz2LijcfQE4rP60wlFeqVYRglSFIIDZHEQALu7+H9uTc0rBwcm/FwSzZN7XMWAkowMqSEyEHWLoPy8gSGsxDG7NQAzFN4woLlbS3oPy9R1H2nyeFGcXWUWeiu3KC1a40AOSmelJ8P+Yd0pUl26aWaZKAAqwsORLSgCVhBvZqXBHNywBaDMSCu5tQ/nYtylYsBgn1cCXe3X90mFEsGRHflmINQH5dP3/qX7kdqQZ9TgIKsPrcllovSAqwLnk6JoShV3Myx2WZcpotQU6zH7VJaYzisj+h5Ovo4z2O0mf15dtGnoZQ4cC4dpTi/RAhlzXVTn0nS7ZQLVMlP2fPGZAGLHNIg6AZaOmgNznmCzZ8gqqlf0DhRn6hUkqC6BwyDW3DTwTN7RcPXMALQPCKhtojv86e3czelSoNK0v2XgqwfvK0AzsYUZhs2cNejaoXvCJC1jWwCPgVr1qGqiV/QN72Ou4u0GAB2vc4Hu1DjwKCeTHtKaU9AHmoDQXX7p5/2FZuZ6pBxkpAAVbGbp3cxKUBK+pA92YGRtlEO9aR5Sh+8g9UvF2LnDYRRrEMbSNORcegw0HMOYpAawjkLtITvE0xinLnI1NaK8DKlJ3yOE85wFoUHs2QQxj5B9O/G8AsqnFZBJs6gl/YQ086d6P8P4+j7IO/ItjZyl1tT9FgtI0+C13l+8W3pagPgVzf+E3oz1g6nZ83xB1NNUgXCSjASpedSPA8pAErzoEe8XhyHOuWGlUY/ezBzhALEdzdiPJ/P4SyT54TYhS7SvdC257ngL2naP5QYFUIgWuaaqdE4jQSLGTVfcIloAAr4SJOjwGkAOviiIblCDI6CLnQqHjmJqXI3f4tKt/6M0q+WSYgQILOgYeGGcWCinjgonif0sDPGhdM+Y9AZ6pJGktAAVYab46fU5MDrL/1Jj5z2cHYKg6eIuSNZmhkXI1RfPsBFG5ib7c6fyjJQceQaWjXGMViK43rOSB4lWIUeZJM378rwErfvfF1ZtKAZQSPGIe5jUZla/bJR8hbhUYUr3kbVW/dj7zt/KcPabAQ7cNPQPuQ7wLB3Bg5UqAblMxv7yHXtTw0pd5XIavOEi4BBVgJF3F6DCANWI6+KhnQiqxfwAw0pvXEgRbTuFiO4qcvoOLdhchpa+YKNpRXhraRp6OjeqIVo9hCKb2zoaP8djw2gV+JkDuaapAMCSjASoaU02AMKcCaHcl60UDGAZwsQcjU3jFeywBmVhpdnDkabq9VPf3wKZSteFqIUewuGqIxit3l4+J3gtKtlGBuQ/O0Wiwi/LyhNNjLbJ6CAqws2X1hwKreB3UX/9VUrcGlRmVrJlrnHIabW4VKGKpDGP4ebNuO8vceQdnnzwsziq17nYtQ8VAr/9aXNESvaVww/bksORIZuUwFWBm5bfKTlgYsOx9WDAhZaEhOGlW0Io1dMKpNdQhThLzZXMxtqkPlv+ejZM1bAoIhmonIgk+pFaMI+h5ozs8a5h/5gUBnqkmSJaAAK8kCT9Vw4oC1N+ouZiyhQ9xUDChJgpYuADfxXI5gSFGw5XNUvTMPhZs/44pZYxSHHYW2muOB3CKL9nRxJ8m7ase8I1ZzO1MNkiYBBVhJE3VqBxIHrH1QN/sv4cnGmWcW4ORo9kXRKb4/vX+PEfJx82TvKK5Zjqp/z0Ne8wau0EM5RVoYBAuHQCCOUewilM5r7yyas+vRiY3czlSDhEtAAVbCRZweA4gD1t6oY053swYUdYBLalQJMgMdK56yKfZ0o/SLl1Hx34eR07aDuwmh/HK0jjxdC0AljGgwfCjFLkLobfXN+Xdi0SRWAVV9UiQBBVgpEnyyh5UCrIv+ElM5VKRkjFHRck7D0VSr+HpbRo3OMlg14vjnmIXm0AjS2YryFX9D2SfPItjFz1HsLh6mpfp0l42J2yJKsQmUzmnYOe0hxSgm+wSHx1OAlRq5J31UacAylTu217jcllGWjZDXReaUk6iDYfwTZcHW7Sj/4AmUffGiGKNYvp/2AGyPNaO4EqBXNdROfyHpG5nlAyrAypIDIA1YRo3HkqWTiLfixXPZxFvxnhYz15AX0QRzmzeg8r2FKFknUKiUBNBZfThah58CWjAg/qRQupwi5zLFKCbvEinASp6sUzqSNGBZsXhx5phg2k3UXnQZzyVpBoaHi5ZMDcs9Zj0EBZs/Q9V/FqJw60ruvtBArlY4sH2P7wE5sYwipQxt6d+6c3B184PT13E7Uw08SUABlifxZc6XpQBr1lORhbmLiwprPjIR8vpwTkGjRhCyaG8LUs6aYPG376LqvQXI27GRu5mhnH5oG36CVrIZgZyY9pSikxL6QGdH0Y2KUeSK0nUDBViuRZdZX5QGrD5kBmquWqcI+lAPSr98BRUfPoGcdj6j2FNQgbaRZ4A9khHHKILuICC31nfRu/Hw9PbMOiXpP1sFWOm/R77MUA6wnrRn8WzNs3Dl0Hjzy8o8k9SokhQaoeUofvoMyj7/O4Jd/OiF7n7Dw8+Rle4Zt0eUYgMBrqsfNvURzCUhXzZRdaJYwmw5A9KApWkkFmadY32szDAD40DVZL4G25pR/tFfUPbVKyDsfQvOp6tiPFpHnoFQ8RCrlqyQ11X1tdNe5vWj/s6XgNKw+DLqEy2kAOtCpmEZE5StNCd3cVExYGELfrrIRdKDXFQ8FdQENUbxg8dQ8u2/+WeABNBRPQltI04BzS+L17hAl3X35FzWvPBI/ttm/NGytoUCrCzZemnAcqyaYIhzErz8ejPhiqS8+lkx48pogjJgGF5nwdYvUPXBIyjc9gX3tNBAHjpqjkHbsOOAnIKY9mFGEU+FesjVTQ9N5Vci5I6WfQ0UYGXJnssB1hO9GpamaUWExKma4CYuKsbsFAK/1IVGFNe9h6r3H0Hezk3cU8MYxfYRJ6NjyBSABE3taQcF+VNXTvCmHQ8cyX/bjDta9jRQgJUley0MWAP3Rt2sJyyqNRhAKwFxUeJBosmNkI+bF8tRXPUGKlY8hZyOndzT01M4UKt62lV1cLyZSMHKpv6uYUfVvVg0rpPbmWqgnO7ZcgaEAat6b9RdYNKwuJqPSQOzTZy2ABsu+LnUqMLOMpOmaI7zcpi3U5AspSDdbSj/7DmUffmCOKO41w/Q03+UhX8LdRS4trF26uMA0fXZbDmaUutUGpaUuDK3sTBgDRyDuguZhqXMwDDmOedKaoziJ4tQtup1IUaxs+IAtI06A6GiQfGHieIzUPKz+gVT38zck5bYmSvASqx806Z3ccBiGhb7oTdfVtNL0E5/d+0Qz5wIeTOY5e7chMoVT6BkvcDThySIjsGT0T78ZITy+ludkde6Q/SK7Qum8ysRps0JS85EFGAlR84pH0UcsMZETEJeEGgmmoEycWKS5mtEHAXbvkDViidQWP8Vd89DgXx01Byr/Y8G82PaszeCCMXjPT3kWsUo9opGARb3WPWNBnKA9bjJ96PLgOcTknWIR0PY7X1NYVUm8ncLkPSiCcaETsiERvDnXbzxfVR99Djydm3mHqBQbgnahp+CziFHAiQQ256inRLcF2otuLnpicP4Xn7uaJndQAFWZu+f8OylAcvKd5MQM1AGDC1CLBzjtWTShSQ1KpF0IZajuPpfqPh0kSCjWK3V4OqqPCBuXylFEwhubmiu+mM2M4oKsISvfGY3lAKs8yMaFpcdlNWoDBoSlx20AacYjSszigdqVU+/fAFlX7+MYLdAjmLJSLQyRrFkhNWhW0dD5DcNC6Y8lY2MogKszMYh4dlLA5ZwkKhL0BICQxcaFS9C3rUZ6F0TDHbsQPnnz6Bs9b/EGMWqg9E64jTQomqrfV6BELks2xhFBVjCVz6zG8oB1mP2PiWnOldJrByaSRHy5tCI3J0bUfnpX1Gy8X3uoaIIoGPIVO1lH2rNKL4couSKxvlT+XlD3NHSv4ECrPTfI19mKA1Yju8GyiQcZ6cZyKt4yv5e0Pg1qj75Cwobv+buMQ0WoK3mOHQMOxqwZhQfoaGcaxsWTubnDXFHS98GCrDSd298nZkUYP340V4Ny0vlUK7ZZwAz9n+zIELeKr6teOMHqPr0L8hr2cLd81BeqfZqdUf14SABc44imIPsHtqTc0vDwsm7uJ1lYAMFWBm4aW6mLA1YUfCIvK0k9FKzbKK0h7goX8HQNG8uISCTLmTy8dnNm+UofrsMFSufQU4HH2t6CqvROvosdFeMtzoODaC4sT7Q7wHMO6TLzXlJ1+8owErXnfF5XtKAZaXxxDniLTQkL3FRXiLkjQ8Sch/QkJx31N9uE4fmNG9J8CNdbSj/+iWUrX4NwW5+heXu/qPDVU8tGUW6Ggj8ur526t98Pk4p604BVspEn9yBpQHLTqOKY+FkLn+K46JiQNg0b98qqUrGc9mAYbB9B8q//AfK1i0VZBS/g7aRpyFUWBV3sCjF+yFCLmuqnSrwtllyz6XsaAqwZCWWoe2lAOtHj/T6sLT/5xBpHvP3zIiL6q3b5bWSqmwZ6Sg6xcrXtlgikLtrMypXPo2SzR9yTx4lQXQOnY62PU4Aze1nBVzPgwR/2VB7JN/Lzx0tNQ0UYKVG7kkfVRqwbB3gkhoVLy7KtRkof/nD2GouMWMDWlwfmQ0489bLi5C30WA1RnHl0yhs+oZ7dhij2L7H8dpbigjmxbSnlPaAkIVttOC3u+cftpXbWZo1UICVZhuSqOlIAdbMhyPVGizASb/0TvWihC67Co2ID32wkbdBnsVbVqDq80XI283HmlBeWZhRHHQ4iDlHEWilFHc2dAy4FY9N2J2oc+d3vwqw/JZomvYnDlh7oW4mMwmVGWivkckkSidAE2Q5inVvoeKrfyCnU4BRLBqMttFnoat8P6vTuS1EyQ2N34T+jKXTu9P0+EanpQAr3XfIp/mJA9YY1DENi2s+cR4njfu+TCiASdNIVOVQL5pgWEAmORnmzWUHvedKaozi6ldRtvafQoxiV+leaNvzHPT0q4k7VRRYFULgmqbaKYt9OnIJ6UYBVkLEmn6digNWRMPihgYIxhdFQyFkzMs0iIuK+pJcztt3MDTI2wSGwY6dKF/1Isrq3gShvDdbCToHHhpmFAsq4oGL4n1KAz9rXDBFoBJh8s+5AqzkyzwlI0oB1g8jGpZrh3jmVg5FOuZK8hz52j6RMKP41XMo2bqCe8YoyUHH0Olo1xjFYiuN6zkgeFW6MYoKsLhb2zcaCANWFdOwHu5l01wHRaoI+XizWsYsltBgDeFtWo7i9tWo+vJZFDav5h5eGizUwiA6hn4XCObGtKdANyiZ395Drmt5aEo9t7MkNFCAlQQhp8MQwoA1cC/U/fAh62fqbX/p9RXyyiq7qRwq8MK0a01QYN4x5peFeWjrq0phkGxkn4q3fqwBV17rNu4RDOWXa2Zix8BDrRjFFkrJHQ0dZXekmlFUgMXdyr7RQBiwNA3roYiGJcmGCTmaXYKWkE9Ij7OSIQQSqAlKpQv5EyFv+Y7ixndQ8c2LyOls4R7mnqIhaN3rXHSXjYlvS7GFBsjchu1T5mMR6eF2loAGCrASINR07FIKsDQNK3L5LUHIoGk4gZQKjeiVY5w8JX8MwhsS35/lPsVrgqSnHeVr30DZt0sR7OHnKHaVj0PbyDPsGMUvKQ1c3Th/yt+TfdYVYCVb4ikaTxqwuBHhAuZUzCWTNKeEHM02GpXj5RaYdwabgb2R/CZ5R8BOYxTXvIKyDcuFGMWO6sPQNuIUUCtGEfQ90JyfNcw/8oNkHWsFWMmSdIrHkQOshaZfcuvDH1e/ylUogEHTEDL7VIS8mwj5qMbMzFRKkdu6FZWrnkdJ/Sfck6kxisOOQlvN8UBukZWp+HRnIPfqHfOO4Hv5uaM5N1CA5VGAmfJ1acCKi8OSMQOTw4b1XkIB89V3MLSPi7Kel4WG6ZsmKAPisU+UaYziN8+jcMda7lEO5RRppZo7hkwHAjkx7SnQRUD+3N5RMHfXoxMbuZ25bKAAy6XgMu1rUoB1nknDcrzsKWTDPNWQV8UDjRpyccNnqPrmH8hr5UcvMEaxdeTpWgAqYXFrhg+l2EUIva2+Of9OLJrEfyJI8iIpwJIUWKY2lwOsBVH/rnNtcl2zSdHl90IIaOZrH9MEbTU2gdAQJg/ag9JN76Fi7SvI6eIzit3Fw7RUHytGkVJsAqVzGmqmLcRcwgu/F75WCrCERZXZDaUA69wFkWoNLutFeYmLUqERptr2HA3WqWoGl7iwNlO1HMX1S1G24U0Eezq4B58lVbMHYHuKh8a1paCfA7i6oXb6C9yOBBoowBIQUl9oIg1YygyMD551DOGw8VHZvu8o6BNMoSYY7NqF8nWvo2zzu3xGkQTQWX04WhmjmD8g/spQurwrlPOz5oVHfuzlPinA8iK9DPquHGDND69Mu2yC5kT0Mss4gHUBqgj5GHkLEQQJCJK1KR6Yu3srKte+jJLGz7gnngZytafI2mq+B+QUmv1bzO78W3cOrm5+cPo6bmcWDRRguZFaBn5HHLD2RB0zCWNYQgHQUmagAeQ1tI/978h/CvkE0yFC3vhqUuTHq2DnOlStfQmFO/lYE8rph7bhJ6Jz6DSAxD5HRik6KaEPdHYU3SjLKCrAykDwcTNlccDaC3U/iGhYQr/0LjQqrm9FFQ/s1bjMIRvJjZC3fEex4XNUrXsJeW0N3KPYU1Ch+bc6Kw+OZxRBd1CK3zd24x48PJ0ffh/JouIOqhpkvgQqL1r6BCE4V1/JgGUXWy6qvWpP1P0gomEJOcAdfDdOLJ7vYChovrpKFzLU5xJKj5EB8di4KMtg3DB6RTQ2C3k77hMnVzLmx0MCDEPdKN36PirqXkdOF7/Ccne/4WgdfSZ6yvaOO3cU2ExBf91YO12va2R74ZSGlflYJLQCOcAy+rCMDzckMFFY6oVpidIrRukIFSVUxQOtcxat3QKkpwPlG5ahbPM7QoxiZ8UELUcxVDw4/twyx3wOfujk31KAJXTdM7+RNGDZvUuoi8Lvyx8pQsfXMNw+JZZhmiAvzclW04tukMmHZvVakH+aYLBzF8o3LEHZ1v/wGUUAHYMmo23kqaB5pTGXiwWeUoKfNdZOe8zq1inAynwsElpB5ewljxOQ84RMwnNqe80PIbPQxlxRoRFZFxqR21aPym9fQ8n2ldxzSQN56Kg5JswoBvNj2odCuKpxwbTbzJ0owOKKtW80ENawKpkPq9bAEvZBMzDGJ2QBtlyQVhHy8e87xmqwGqNY9xoKW+q4F4g9R9a694/BStoYPz2UntU0f/rTxn9TgMUVZ99oYGYJbZ3uOmCxZduahW4cwCo0Il6eCfwxSJPQiOLtX6Kq7lXktfPzoduHHaM9R2b8hEKBicYHMRRg9Q084q5COKwhTsOyCOp0qhelzMAMNQNNPj4uiyvhE6QhlG77ABUblyCn25lR3D3qLHTWHGM4z/Tj+trpB+j/oACLe9X7RgMpDeucebEOW1ehAAIaFY9SVzXk4x3ntuZqCqtm2ETIm4NkSXc7yre8g7It/0Yw1Gl7sXYc9BuESob3/j1EDqpfMPUj9g8KsPoGHnFXIaVhMcAym4NOLJ7TJUpIkGgk9IDra3KoSOo4L5nLb6FpeImLcp0xIBDP5aQZc/fJQaOK8wk619QPdu1G+aZlKKv/AATxhRw6Kg9C67hLes80pX+qnz/9fxRgca9532kgClht1ftg/Zl/ci69Ynm4ZSqHSpgTmi/N0N4xAdniIQejL87SzBGctwHD7Cut2qTjcM0rh3l7+TFI89CIfk2fY8iaGJ96BPoIdky8BbSgPKJh4rP6+dP2V4DVd/CIuxJxwNoX68/8Q68Kw3W8W8RFCWk+LkErVZfflVmsIuStiZsw+hftXINhqx63PLste1+IrkGHRQCM7mionV6mAIt7zftOA2HAGrQv1s9ggGViCeNAKE2e0kpVhHycGSShCaawZIxVbmBUg/XyY2ApD+d0qaIdqzHsmycsL9nu0Wejc9jR0b/VN+cVsQqmyofVdzDJcSWiTve26oiGJRTJLmhOGWcm1G+WX/4+bAYaNS5Nw7IBrLbhJ6F9xCnRk0MR3Luh9sivFWBlKWCVLfsJSO9Pa1QKGmDNuE+31wyalkRibNT/6/IdPRUakaGhEXI5no6AtceJaB95avRc9iBnv6bayZ8rwFKAFSOBtuqxYZOQR1XzWCUeaHlhw6TMQJOvjGv2OPjW4sweGbNYtoa8xLylCQGJeUvneBrmzfFlFu1iGtaTljewTQFWliCTzTKFfVgaYDENS1KjsvVhGHxhrkqkCMRzuQY/mdIrJjNV9/GlY1xUhhQP1HxYqxVgZTcy+QVY5gqZtrXJDWk6QuygDYXvmxlooSGlKi7KiybI02D1fRZicSU0KmlCQEITNPkyNZNQAZbCKysJSGlYZ0R8WLxIc+6lUnFRYcUziv4Rn6CN2ZlmJWOE5u3hx6BoJ9OwnlImoYKseAlIA5bxl9vyUEZ/4g2OeYuEaRUhHysfV2axQGS/a7M4dRHymg9LAZaCK+8a1r0mEJJQ+6XMIDlWKbouFRqhb4i1r5GXdsTTjJMUIa80LIVVthKQ07DutSgtI8j+SLNKEqAlzYYJRppHCQMXFTh5l19FyMdr4BGNvWjXWqVhKcyyloAUYJ1u0rC8OMRVhLxNIrmpVj6XddRfz0nD4oFCoB0/b83pvkb5sBRmWUhAGrAsqzXYFPWTMgMlzEsTqxTjwOYlYPMuUSLZMGlNUCZjQJbIENSMXZmBgvOO/mjFgpamYSnAUnjl2Yd12j3hwkOWlHkax0V50QSjZmECXlT2Ehcl9WNgAWaO1S1s2ErbEBYZ8ONrgmEN6y+KJVSQ5YElHDgW60+/x+LlYlNVBidw8FJ3SUXIW/h8+Je/98dFQoP1ognyNFgBX2ZYw1KApfDKq0l42t2GSyOgUfHMCV48FzddJkH1orw4xL0EyfJYPCF5yEbep19ohKZhrVWApQDLC2AN3CesYcWYgwKglarL75sZaGEeeQiKjH2MVCbNiZNz6DXHUz8baRAhr2lYCrAUXnnyYTGTUNewuL/0Dj4Qp2BTH8yJOAe8MfeRa666nDdXHgnSBHkabIZGyIc1rL8qH5aCLC8+rH2wnjndeaDCu0R90QyMc8zbFTl0Ec8lBIaZbwbG1MNqYRqWAiyFV15Nwhgflut2+YAAACAASURBVDEXzgOrxL3sDo5lXggD97K71KiEQFvGIZ4BQbK2+yTgFuD9iJn2SdOw1v1NaVgKsbxqWHc7PKIqc/klqgQIsEqxZmCS2DAuGMqagYZ5CznubeRtOS9vcVFR+XrOHRXTBDUflgIsBVfefFj7YP2pd0VYQpl6UZKOZamXifuIQ5wLfjIarMSPQZoGyWrJzwqwFGD5AljR4EEPl8hXM1BCozIKQChROvMvfywrKVk1w3KfEq8JFjEflgIsBVi+ABbrxJH6duFY5vmEVGhERLM1189yUfRQKkJeUoPVD5jH0AhlEiqsspWAcC4hi8NiJqHdYYwBHWUGcmvfKzPQ9kGNopZ1SsNSmGUtASnAOuVOi196l2yYF8eyCo2I3Yc+FiGvaVjfLrI8sOoRiixHMmnAsqzW0IfMwD52+cOankxoSGrMwNg4rHUKsLIcl5xMwlpCcJHeoPSt/0Ug1BHXvo2ZhCffIXn4JeKLpB3iEo+qSodGSMxbOlE4DYoHSsZFxSVQczMGZEM6YssxKw1LoZWtBKouWnYLCL1ab9D/31ch2LndHrCkL79PrJLnIFHZSyQ4b1eEQGbFRYXJQufn5WN8mzZ1riJ2bLw5q/Uf9dhD82Epk1ChliVLOHvp5QSIOKeA4k/uRd72zx0Ayy7tRCwosPfwG4ZwwyqFO7I5/B7NIC8OcU+VVNP0UVWuPPwtHqhpWHVPKx+Wgqx4CVTMevOoQCD0hv6X/LpXULT2mbiGlASwc6+j0HjgeegurohlC53qXHEPu4XPRP9F93L5vWiCXDC0AWeReXPlkSBN0JUZmBpNsHD3etR8q3IJFV5ZSWAuDVRtWLoThBSzP5POnSh979cgoU5LeYWCedi+/+lo2v900Jwiaw3HqUqAEDvoIr5IRchb1Ih3+DGIA+X0CZItbFGApcDKQQKVs5c+S4DTolrWhjdQtNo6+VRv011QiqbxM9C89wlAMNdB4zKZbVFXhY05FwN2kvFcXtgwruaTIE2Qx+LFzcs0D64D3OW8ufLw1ww0+sAKWxlgWZ+/9uEnom3EqdHT3NMdGNf00JSV7HdQfbJEAifc+tExW7Z3vLa+sT264qKvHkX+lre5EujqNxD1B/8ILSOO6G0b9UlF0claE4um+ciaQYIOYFcOcYEKnLwgWRUaEb/fEjXkC1vqUFMnBlghSvZtnD/1CwVY3KvaJxqQF5d+/PDhE0b+sF9xQeBv727DXS9tgA5cOY2foGjNYgRbN3MX216xJ7YdeiHaq/YxHdYUJkrHmD0WmkYmVg7laj6ZaQZGWUJKofmwbABLBY5yr2LfbPDPf39245jh1VdWV5bmm1fIQGv+kk3Y0dqt/Slv89soXPd3BDp3cIWxe8iBqD9oJjrLR7jLOYwBGdMDF7ycQ55jWUXIS2g+hgAzLovr749B4W6mYVlHuptNQqVhca9kZjd4cemKmUOrB9y17+jBlU4rYWC1YOkW3PliXbhZTxfyN7yGwvWvgvT0mo5WfWiM4qhpaDzgHHQXllubg04snucyyg4snlO9KC+EgC9gKBsaIlA8z7VPUMCcd/0KkjMYaj4sBViZDTReZ7/4lfcP2mdU9fN7jageItMXMw/vfGkDFr27Tfsa6WpB4bcvIG/TMhDa49iVxijuewqaxp4CmlckmDhtcWm9mEEqNEKAEDFoSEKgbWN2+lQ80EnDUiahzO3NwLZvr1g1Lkjx2MHjhh/oZfqfb9iNuYvX4Z2vw2ZhoG0bCtc+h7z697ndduf3R9O409A85ntAIMdB43L7THsGxkW5IgRSExcVttLNpW1kzEABTdCgoRa2brDVsBRgca9bZjZ4/6tNlY1bGx45ZP8Rx5cUF/hGojDAYsDFAIx9grvWoeibvyJn52quoLqKq1B/wHloqTkMCBhDFmQOv2EYrm/FRTyXCo2w0MhsNKoEpUtpTvf1qloD90L1lQavvf3p/IPHDb+gpLggkKg1eWIUy0dh24E/RvvAvQ2Xw3QplBkYWy+KKw/Z0JD0MgNj47A2KMBK1MVNp36X/feLOaOGVl5jxfwlap5GRpGGepC/9d/ijOLgCaifcC46S/fQb4+1uch7pp4XF+V42VPHhqXsUVUu+DloVGH70LBP/kfIhzUslUuYqDub8n4Z81czaMAd+4waPDBRk9mwdTuGVQ+w7D6eUexA/oY3BBlFgp0jpqJx3JnoLi63ccwL+EC8sGFCjmb9kspoghww9EII8EDcU4S8TP0siVI8xtPjYM5rPiwFWIm6yqnr1y3zJzPj9z5egxvvfwEbtjbjgjMm4cIZk1FSXGDZhWdGce8T0bT3iaA5hRyNy+gAVsUDvTnEBSL7Xf8YxNa5siyvbREaoWlYG5SGJXNP07rtJ19t2md36+4nRZm/xa99iGHVZZg4YZTwur5YvRk3PvAC3l2xJuY7/fsV4rIfHYULzjCk4ph69cwo7nMKmkcfDQRzBEMhZHIO9ck6lKaJMXsszCNbjSyNNUHf0oUsfGW+ZQyEwVPTsBRgCd/VtG24fv2O8q/Wb1h40Niak1kqDW+iuna0cnU4teawA0bhtivPtDXtWBtm+t336D/x9KsfOHZfM6gcP//RUZhx7EG27TwxikVVqN//bLQMm2joP3EJt8ZiD3xNQNYMSpBDvI+GRoQ1rMWW50qFNfBufZr8fdl/vvzT/mOG/qRfUX6QNyU77Uj/3pnHHayBjZVP6t2P1+C+x/4Zp1nZjclA8LKZRzlqb54YxQEjsW38eWiv2MtgJsqYgQYNyTEB18ZHFRd/5DZdyCVocR3kDvNOlSYYo6FaaLKcCPnCNqZhKcDi3fO0/Dtj/vasGXhVVXmJ7tixnaeodsQ6YKadk0/qtbc/x80PvoT1W5qE5CKivXliFKvHo36/s9FZWqOKB0ZdeDwwSBNNkJfjaQJlTcPaGF9Ekh1EpWEJXcfkN3pj+cpzBlYU3yvC/O3a3Y6Fi9/GvY/+U3qiPJ8U6/e+x/6FnS1tQn07aW+sA0+MIgh2Dp+MxrFnoLugzKBxqQj5eMe7TegBt35W6jVBzYelAEvovqW80fNvfTZhz8FlL4zeY+Awkcnc++gbeOiZd4QBxa5PJ58UAys2xkPPLBca59jJ43DbL2doWpzdJ45R7NyFwroXxXMU9/wemvb8HmhuoUCunMFsEjILVYR8eN/MGpzBvBYy+0ztjaEMDiEdWvKzAiyR65+6NqvX79irqbnxiQl7D/uOyCwY88ec46Imm0ifrI2TT2rDliZNi2NjW3000Jv5Xcw47mDR4bTaW5c/vtpdjmJeCZrGnIjmkd8FiO7ac2L/EhgXpa9YKF1IMsFbKl1I1gyUARWJp9WkK6n2zlvzYSnAEr5DSW3ImL81mzfN23+voaeLMH/65Ba/+oFmqiUCsH4+8ygc5hACwYDrV3csjjrmmSbFgIrFaLn9MEbx7pc3RIFLKkexqBL1+85Ay+BDTO8mquKBYUXIAOJS4GcBZhKVQ+PYVsEIeWUSur1FCf6eKPPHwhPsYqiYxiNqqjktx412xBjFld9sAvNbOZl/xnEZgzl29GDbqXhiFMtGYNu476O9fE/xd/RcB0XKgKGkRsV7UCPOHJNJj+HM25MZ6E+EfGHbRqVhJRh7pLp/76NVvx42uPxaHvPHgOreSIgBA5TbrpxhCVy6j4n5s2Q/fmhHImMaTVgRRrH2X5s0jYs56aVzFKv20zSuzpKh4amZzTRVPDBWLk7xXCkIjShs3YiaTYolFLlXCW2z/MNVZ/Yvzv/D3iMHDXIaiIUn/Or2py1jobz4mIxjhsMajtBCG0S1IwaI+vdEBWUOXjV+j2lmv/3pSbapPjqjGC3X3CORo8gYxZpJaBxzMroLBtg45lWEvAbmCaocGkFFAziKaYKahrXpWcsjpsIaRG+eh3asiF5V/+IXRw6rHM4DKpEoc9aHU/gAi2y/ySKtRh+bRaez9JphgyLlizlrMzv4mbZ37aUn4Jgjxtl+kxe8qn+RFw/G2nliFAO52D7qGDSNPg40GClfb6lxqdCIdAmN0HxYCrA8II7Lr766/JuBlWXBv++/19DDnLrQ46jchCcwRzcDH6uEZOZjuun+FxCTmvPLGcJA5aQdsfX4pe2xvhhwMW3LKdXHklFc8yzyGpzTiFj/3Xn90DT6e2jeY2q46qkjxS7BhnlJjxGuEuEisj+DI+SVhuUScNx+rbm5ecDHX2+uFWH+mPbCqiGIBmZazYmnpTBGceigAY7Mn7FfUe1I/w6Lu7r20hMtU33MjCJPpiLamydGsbAC9WNOQ8tgQw6kOXKce9kjq7AKYfBSMsbJt6YNmZq4qPhxTfPw2SeoaVibn1MmIe+y+PF39nzWgWOHX8PL+Xt9+ee46QHx1BeRuYkkJPtlklr14+STSkqOYsPHKFr7jNg7iv33wLaxZ6K9LFLBwghaXM3HHzYsjEHmyy8DhrKaoMO8PT8g4XLeFuNqGpYCLJEr777N8vdX/XTEsPLbq8pLini9yGodvP7Mf9939GDNvBItJ+Mltcc8toi2Jxo/xkzOB+f+kEsKeGIUK/dF/V6norP/0OwqHhinsYk5xKNfE84YkAzpICRcXkYBluy1F2v/0cq1p+Xl5PxJ9vks1rtsgrHYjHpbsQv/20tPcox78iu1xwq4nHxSTjmKbN684FXzeJ4ZxaET0Tj6RHTnl4a7jtF8Ehgh3xcrh3p5V5K9/Ny+SQGW7GXntWfMX0le3qKxew4ea9dWj6Na+c1mR4cy8zHd+MCLnvxYTvP1wijy5GD3dy3WiuPgN+cougleNY9vyyhuXAqCkONyQoxRHH4UmoZ/FzS3QBUPjIK2xyBZyeKBmoa15e+We6XCGiRvJHs+i3R3PO/E/NmVeXFyKMsmGEtOW2vO2ES7EsfMx3TV7Ys9p/q40Y6Yifzex2uFcxCZCfvuitWOYRVxjGIre0dRkFHM7YemEUejuebI3hxFx1AIyXguro/MJsQizoyT1ATT2AyMeTWH+bAUYLm54r3foZSWvfPRqgf2GTnobLvns9hFYqkyzNxx+jiFAzDgYqyhXYKxt1X01sG67EdHW3blNkfRD+1IZG1GEzbhjGJBOer3PBktVRPCOYo+s2FCtdhtQUqgHDPvNSFbzUffidSUkdac7gqwRK6DdRtWRG/8mJpriwvzIs8Wx7ZzG0flZKoxreOmB1/S/FyJ+PhVTkY2tUeX1catzY5R7uY1O1WnEKl6+srHjZi7+FstCJV9chijuOZpBNu2csXbXlKDbXudhvaykbE5iuybjhVJDQ5nbqhEGlYO9aIJSpqBMRoW82EpwOKey7gGjPkbWVN+W+WAkmK7b/tR5oUX/ClTslh2lYxRvP1XZ1k65pm2pydXm/t1m9pjDI7lMYpsTBYTduVti6LBr07rc4oH07/HkqvZy9WuchTL90H96JPQWawnb2dHXJQvmiDPnI2CI4HSsCRvsQjzxxzqv/LB56NPjXd53ZpqTksX1Y7MdbC8pvZYgZ8ToyhbkSLhOYqDvoPGEcehu6DUwjEfWZ2jhqGpZrEvO3PThQzthTQfwzyMmqAvZqBM5L3gvA0ZAxpLqDQsPmqx57NoT9czTswf64WBx5W3W7+bxh/FuQUzb568Y7ZtI9mSxVYdudGOWD/MMc+eCxPNQeSl9pjnJkJKiFak4P0AsLGZljVn8TosenebNhXSuQsFdS8gf+MyMUaxZiqahk3rzVH08sK0lwj5PhYaoWlYW/9heQcUS8iSa9fvKG9saf7HvqMH2z+2ZxKfbOQ2D8i0XLpLTxRiyrwwirLaEW/eVn+XTe0x95GKHEXm32J+LvYJSDGKxWiq+S6aBx8ezlF0rJmuIuTjczjjNUFNw1KAFX+1GPP3wWdr7x1VU3WeVSoNu3isHtXYUYMSFg7gVtthq+GVLDauWCQuythejyGbOH4k7BhFs0RlXu0RAUInnxSvIoWxf1GQ9pSjmD8A9SOPR0vl+MjQAiyeKh4YlpWJuAhrWM8rDcsogTDzN+za4sL8OObP6uLxXpdx42NiF4n5bkTrUbF5Wb0l6JTqIxsXZaUdieQosqqnzNfkJYnbDsRY/JgdaJorUngBaf27nhjFfsOwbdRJaC9hlYRUhLxUrmQYvcKR7gqwwsfxv5+svXhodf+7rJg/kZw6P8IBNM3hkhOkfEG6g1+UUZSNixLRjpxyFJ0YRRFtyq6NqHZk/MGQBWm7sT0xigPGoH7498KMomUpG8lg08hljtFIbB318WZWbJE+ycdgk6wJahrWtizXsD5btfHkIKH32z2fJZtT5yb4U/YiGUskGy8Vz6HMtA6nRySMfYmAtPlCO+UoypipTkAma8LqfbG4NfaDIPJhIP368pVaMUSremKsD885igMPQmPN0ejO66+jiMEMkgQtIXbQJp7LCyEQB5aJTZTWNKxsBSz2fFZr245n9h4xaD+rQ+w1jsqpPrke/PnFN5vxm0tOkLpIIpVHRUw1p4vr1Yzz88l7fZ6yoC4CTOY2ZpDm/QDowOWJURwyGU1Djgwziqp4YAS0rTXBsIb1guXW9lmWkBXRW79t17N7j6iearVyWcqddzF4sT+877O/i6b2mPtyeqAiESBt7tOPHEW3JizTki6beZRwKR0nTVrkB4BFyrtmFHOK0TR0CpqrJwq8o6hLWSQ9JrFxUZZmqK3GJpMobT3vwg6mYWUJYPGYP+ZruWTu45YPPIiAilMbkV9qq++7Te2xMtWcLm+i1/7n639oCxx2pIRo8Kq+VjsT1knbY99lZMIlcx4XSu4W+QHwxiiWob7mWLSUj4u8o2jSNPpaaITko6qFbZtQU58FgMWezxozatD1Vsyf8XL75WexAy+R+uT6d72apFZz4OUoGh9B9QrS7Pui2pExfox9z82rPby69zxSwljjnrf2hOcoFg/Btj2OR3vJHtHwrfhXbCTKEYdVoYi5JelYj0bAW5hpWrfm13VMvjKhXEkxTbCwfXPfBqwVX9ZdWF3e796Ksn79eIfQ+HeZWB6ZfvW2vGoCiayDxavW6Ufgq6x2pMuFARf7n2jEvCyo8zRd2RAUnvbG1uWJUSzdE/U1x6CzsNoabBw1LosSM1wfmQFsElg5NC6kwXFevWCmOd37ooa1et22E7pD3ffzns/igY1TLA/vuyJ/d8MoivRr1YaB5K1XzhBmCWUvLxvTS7CrzLq8+hl5PinZHEUn7Y2tyzOjWHkAGodMCzOKrp+XN+UocjUflxoVL1dS0gwMrzcMWoUdfUzDYsxf886mR3nPZ8lcDtbWzeWVGYP3uoyXcjIyqT1WcxbNURSNizKbvBMnjMTP2VuI1QO4InN6SJb7ZYsGfryaLQPSDLjuemkD2AOw7COdo1h9OJoGTQIN5FloXGazr++FRoQ1rBcttzqjWELG/H39beMTB4ytOd7NwRX5jpc8PZH+WRs/X5eRuUhsbOa03rBlu205GeYjYuEO5oh1piVee+lJYMGjIh8r7YhnqrF+GYvHNJ9EfNgPBivbbJVZ4OTXlAVpfe7mcs1SOYo5RWgaNBnNlYcAgaBDKISFhuQYr8Vh8VwHiTIfl0yupGnehnHDGlYGAxZj/j75av0dNYMGnM97Psuvg56oyG19frzLK/JAhWxqj9EXJBr8yQDq2p+eJGxiiiQ+i6Q5+VnjXgbUjb49t8Gr5jPoiVHMK0P9kOloGbBvpFtJjUr7lkhohMXrNrwifDyz0CX4aU73hgwFrA8/W3tVdWX/60Sez/ILrIz9JJJRFHFaWznmvaT2mGXEYxRFHeMiqT3msf1Ic+LtuVvtiO276NoZSDOtlI3l9LQaA67LH1/trupp0WBsG3oM2otrBMxEU0144Qh5GTCM1rSxnk9cJVZxTVDTsBpeyiyTkBXRG1xV+mh5ab8S3qFMxt/9YNWM82SUPgu4FEl81s3UL9ZsxvmnTxLWduxSe6zk5RT86SRfP2LIEkFK+KUdOa3dCqRFGUXm42ImIw31IH/rOyhc9w8EOndwj/LuktGoHzwdnUUDU1M8kKexGfK9LVlCpyfAIhqZ5sPKFMBizF8Pev44YkjFSO7upaCB19dl3P7iyyzVjbbD+tfNVNFyMl5Te8xrEklz4tW4l03t0U3YjVuaNVKA7Q/vI5J/mXBGccD+aBw8Bd05kUge45NcPFCJ/l0sLircXL5yaO/3BGvfR8AsIzSs9dt27Lmtvukxv5k/3uFz+3dZRlH2IjHtaOigAUKsmr4Gt6k9MqYaa8s0vnOvqBWqs+5GvqzGvB1w2Gm6osGr+nycnmK77coZtqYdi91jaxcpo8PzU7K5eGIUSQ62V01EU+WhkaqnDr4qKYd4akMjNA2r8eX0NAmZQ/2jz9c9ut+YoSe7Odyp/I4Io8gukmzi800PvBh9LUckR9EPs8xKjrxyMoxRFC1ZLLJPMqCukxI7Wtrw85nf1QosinxEtCPWj59VT3nxYGw8S0Zx3bPIq/+Au6zuYBGaqg5Dc8VBAAmE21uWnnFg8Zwi5Hkamw9mYMyrOcyHlW6AxYBq5aqNtw6pLrvQ7vks7k6lSQMrRlE2LopdJPYe4dOvxh9Q3i+1VzPVSYw8JtIPUkJWOzLOl8lexA/IviNbQoh9x8+KFE4/APqaPDGKuaWoHzQFLSV7R4DLSeNK3wj5tNOwPv2i7oqK8uLrnZ7PShMskpqGfnkZu3TBGZOELpKMdsTLUfQz1UdG22FCcpPmpIcbMIe/yIfJyq5uldP3ZVN7rPri5SjKvJrtFFJiBC4jo5jb+DEKVwu+o1gwCNsGTUd78TALx7wBxGIc4JGRue8sRr6vT9SsyVmGOsjUz6Io7NySHhoWY/6GVJU9MqC0WK9mJnJO+2wbtxdJ5HUZq+BPEUHKmrDmPkXTnJhjXxTUjdrRvnsOFi4n4zW1x7w2nqYr4tcUCWUxjstyFF0zisUjUV89BZ35lToaGcxFmRAGmZIxFvFcksUDtTisphT6sDZtbTyupa3zgXRl/kQusp9t/HrT0M9wADcm7GvLV9o6x+0uryxLagfqTowi2ysG2MzETsTH6Sk2O7+mTPCqec6ecxRLx6Gx8nB055UYNC6TRsULApV6SkwGDOMj5As7tqQGsJqb20et27z1UZnnsxJxwNKlT5m4KJk583IUncrJyF4kswnLcyjrCcZMM5JN7WEvFr27Yo2jKPz0MfFkLqMdGf2asiBtNw9LRvHbF5C/SeAdRcYolh+CpvJDQAO5vZqWQFyUbdUFp8dgbYNV+a8JaWENTa9YiiEhuYTMof75qg3zx4yonsE7BNn0d9nqALKykc1R5DnUzeM7mbAiDmWR9bhJfOaZaiJpTk5zkwV1kXVatWE/aA89+w6OmbSvYzyYN0axEE3lh6K5bHyk6qmdY17GDJTUqDivCWk+rGQAVi/zV3ohr4ie203N9O+lOkeRmWrMz8Qc3aKpJzImrIhD2WoP3Qa7GvtKBCkhqx3ZPcXmdG6t8i9FfgA+37AbcxevA2MW2Se4ax2Kvvkrcnau5l6Trtz+qK88Ai399oogk1ORPt3RborPsn21x6J4oDYjHmsZnnZSNKy+yvxxd95lAz/CAXhaAXvzUCRy264fLyasSIoKG1eGJRUVtR+khGxqj9HBL5rmJALSIj8ADLAYcDEAYx8pRjF/ILZVTUF7wZCIeEUSpRMbIZ9QDYs9n1VVVvS4Yv5Er1NsO79zFM2z4FU9TZS2o/frdHkTWWOejX/7lWdixnEHW24MG5s55ZmZa/z4VZ2Cl+bExj/5kj8K1Zhn8xP5AfDEKBYNR33FpDCjmOLigZqGtf1Vy31z7cPa2th8zK6W9gf2GFw+2t1VVd8ySiCRwZ9sHJH65H6l9ph3lnd5RcIBZE6LjHakv5qt5RLO/K4twJnHF9GO2Hf8rkghor3pxQOZkx49Hcjf8AYK178K0tPuKEYKgp0l+6CxfCK6g8UGjUsmQl7/mtGMtIi8d6ghr2lYfgFWW1vbyG/WNzxk93yWzMFSbeMl4PflNY/ghVH0sl8i1Sm8khKy2pGb9Yim9pj75qU56WsXmRPvB4D1oYdC3PlindYl6dyJgm9fFGcUyw5EU+kB4aqntrXYTeDkU2hEWMN6zZuGpZg/kaPkTxuRHEWvI/Eit+8TCCkQmYNs7S597TI5irKpPUw7Ku1XKB017ya1xywj0cKJIrJl637w+h9aVo/Vv29mFEnrVhSte04sRzFQiKayg9Dcn71BbMhRTHCEfFjD8gBYJ8596+g7Zo5+fnRNZYGIIFUbfySQDozifY/9S9jPYly1bGpPnMm1pUkrlWz2MRnbuUntYbXrWb88RtE4jtuMBKdT4DV+TBakPTGKOSWoH3AYWopGW5dB9vlRVU3DavYAWJWzl5wTaN/x1C+P6o9Zpx4i/cvkz/XN3l4SzSjygj9FH6hgOySb2sO0HWYGM+e41QMVdqSEbGqPXe0uHinBYrhY4K1IORnZE8p7is0qfkwmeNVqPp4YxbwqbBtwBNoLBjmYiWaWUb6GvKZheQUsAvIUE8CA0HZcNLk/fnHekbL7o9p7lEAyGEW7WlA8M9VNag/TdBgY6h+RJ+8PHT9CKoZMVDvys5wMb5tltSPdr3nGsQdJ5V86zcMTo1hQg/oBE9GZWx4ewufigVpqjl+AFZ4gMDy/CVecMAwzjjmAtz/q7z5LIJWMolnbk40C58Vd8R6oEBWl2xiyRJISXrUj0bXrIH3GsQdqdcKcKlyYGcWCDW8gv+4VBEIdjsNpjGLxGDT2PxjdOcWxoOWlhjx7l7BrqzfAwvlLCipzyP+C4BoC9D4sF+rB+NLtmHvu/pg4Pi0rGovucUa2SzSjyHugghXwE61LzwQsqu3opqVoyWLj5rlJ7bHafNk0J6cDJAvqrC8W/T5W8Ek1fWynp9Wcyl57YxSD2N5vPJr6jwclhhxFo+bllHOoa0CG9pqGteN1S5FKb+kjewAAGyFJREFUxWGVXvrWgNzu0K8JQv8LkPxojz0dmDyoFXNnHiQt5IxEijSaNM9U82OqvPrkvDFkUnvMfYnEj7HviMZF8eZq/DsvR1HkB0M2tUf0KTbjPEWeVuP5KVl/3hjFAjSVTEBz8dhwjqJMxVOTRlbYudUfwNKFVH7BsppgkN5ECX5IonwngM5W/GB/4BdnH4xhg/gv/MocHtXWWQJ2kdt+yY13ea3GcWuWWfXFKyfDotaZY93vj4gZZ0VKyASvsjk7ycpJ05XNFhD5AbBkFFc9hZxda7ni7Qr2Q33/Q9BSOKq3LbfIX6RppJ3mdPdDwzLPdsCsJfvlEHI7CL5n/Btpb8Yvjy7DrFMOUowid4v9bcB8TF6evOfNRuSXOhHajj4vr+EAvPUZ/y6jHema7nufrMHPZx4l/BSbjAnrRErIVqTg/QAwOXhiFHMrsa10ItpzB4ZFyk2U7gUtzYeVCMDSN7dq1rIpCNB7AcR44MtoM2YfUaIYRZlb4lPbdGYU3S5R1BfklZRgl1mmdpeb9bgFdV6Uu2yZbFc5iluWo/Db58XeUcwfivp+B6Mzr1y4eGBYw3rDUqxSPiznjaGkcvbS7xNKbgZBrz6oGEU359m378j+8soOnKxwANnaXWwdIj4m43plU3sY6LCPVfyYnRx5LKmo/P3MUWQgePuVM3DMEeMch6/91ybc/fIGLe2HRHIUhRnFgtFoLDkA3YGiiMYVawYaS8+ENayEA1ZkAhe/n1sVarkUBL8FoBeTBkI9GJ7XgLtnHYiJ40eI7otq55MEZH95ZYd1+qV280CFPr5sao953iKkhGxclFk7EnmKjc3L74dnWZ+8HEWrihRGGclmJJjLNUvlKCKI7cXj0FQ4LlL11LqUjeZ035kswIpIo/LCt0tooOuqACH/ByACqwB6ujB5UAsuP31fTJygQiFkgcFLe5HL66V/9l1ejuJN978g9ACr7EViTmvGsDFNbOIEg8M3siC7p9j0pGyRdTtpRzxSwquZ6jQ/XsS8lV9TFqTN43tiFEkBmorGoblo79gcRTaIHoe185+WS/bRJLQWafFF71YXkvYbQemFhDC+M/JRjKLIHUlIm1Qzik6mmpvUnvse/WfMe468J+9ZhL3MU2wy2hGPlJBJc+JtvqwJy0Dz4WffwaH7jxB+eJY3BwZc7DmymKqnooxioBj1xQeiJW94OEcxkpOo+bBSBVj6gitnvzUGtPs2QsipRiEwRvEnk4rwi3MOU4wi73T4/PdUM4rGcjJ+pPaYxSPiUOaJVCbY1dgXAy63aU68OXnVjnj963/XTVj2gMhvLz3JMcbS/ACsVNXTnApsKzoY7XlVqdewzMKpmPXmoSTQcx8BmWj8m84ozjrtOwq4RE+UT+1SzSi+vnwljjliX98fnmXi4ZlqdiL0K4bMT1LCTXUKp6fY7NZuB9IiPwBxOYoyjGLuYNQXHYBgqBM1u1JkEtoJpWL20tMJpbcQQpghG/4wRrGgGVecMBQzjp7g03VU3YhKIJWMosgc3Wo7OnCxOCbms3L6yMRFicxZb8NLc3J6io314aU6Bc9M1ecoCtIiVU/dMopsLq05A1HUvc1SvAn3YTlu6lk0WDngzYtIiM4FwaBe4KIYnrtNMYoyN8LHtqlkFK2W4SW1x9wf7/J6rXpqtw0i2pGVpisTvMrGdgJ13sO7iap6On/JpnAohETVUzs5phaw9Fmd9U5hZWnnLwFcSQhKopNVjKKPMCTXVaoZRTZbkRw5uVX1tnaq/Ol34URZ7Yj9YLz2zhdaYjlzrIt8RLUj1hePlJDJlOD9ALDxvDCK5rWnB2BFZtXvgjerCnPodRT0JwSIpH5HchTHE/zi7IOkgvRENlq1cZZAOjOKbvdO1MHvlZSQ1Y7crMeLCetnmpPIO4peGEVdNmkFWPqkSi9ePjqXdv2OAGcbN5F07MRPDi9QjKKbk+3xO14vL2943i+1H6aaaGqPea6ypIRsag/TjtjHKn7MTm5uU3vM/fFICVm/ptPTavrYcYxiwwoUrlmMYNtW3jFBWgKWPuvKi946mKD7XhAS4ylVjCJ3XxPWQPbyyk6EF7nNanDJPFChj+8mtcc8d97llY2LMpu8IpUU/ErtsQIuJ1KC59eUBWk2vhtGMa0BKwpcs948kZDQ70HAnu+IfCiG5+9QjKIsIvjUnnd5vQ7j1+sysqk9ehE8VmPejlE0X17ZuCiedpSoNCfenvBMWCu/pixIW83ByCiyTJiCDa/ZVj1tH34i2kb0hnKGKNm3cf7UL1jYaXp95tJA1YZlP6bADYRgWC9uKUYxlRvF++X1Oje3l9dNas+9pqfNRBKM2fqYZiLykdWO/Epz4s1NVjvS/ZqHTRgl9fCsU5K4dY7iC8jf9CYIQtEltI46Ex01x0b/u4fSmqb50zekH2DpUzx/SUFFbuAyQunVhKCsd+ZdmDx4Ny4/fawq18w7oT7/PRmMIu+BCj1H0Y/UHrN4REw1nkjdJj7zfEyyFSmM8/RDO+Kt2wjS7C1IXtlrBlxzFq/DonfDcViBtnoUrn0WefXva//dMu5SdFUeGB22vnaahlXpC1iRqYbLNfdcS0B/FlOuubsDJ45qx3XnH6YYRd5p8vnvyWIU7eqTM/8a+9UX+bh5wVmk6J15bC/Brsa+/CQl3JiwTk+x2cnbDqRFGcW5i7/FKx83hoFr90bk7PgGnUOm9g5H8e/6+dMmZQRg6bNm5ZoDQfo7AOcR0gu0jFE8Z39gzkXTVKqPyA32sU2qGUXeUry+4CySoiITF8Wbrxm4eDmKdqSESPCqcSyzCcvT9vTvioK0k59S78vMKBrnFwK9oLF2+sMZBVj6ArRyzQFyJ4BeAxeAYhRlroO/bVPJKFqtRPQiiUiBd3kTRUqIaEdWD+/KBq86mbC8p9hk/ZoiPwBM02IaF4vl0j4Ur9TPn3a8vldpbxLaHSrrcs0UA3oacP2ZI1SOosht9LmNFz+LyFR4v9TMVD33ilqhOlwi4xnbsMv75+t/aBtDJXt57caX1Y5YP6xwIhv/gjMmaeV0RD4yoC5CSjDgE301WyRH8R8fbNtx43PrF3586+GXG9eTsYClL6Ji9tKZhNIbCSHDjQsbkbMNc76/N46dNFZk/1QbHyXgZy0oq2m5ZRTdLlHUwe+VlJDVjtysx4sJy8tR5FU9Nf8AMIB1ekdxVV1D51VPfHnCC3O+Gy3pkPGApQnh4vdzK0O7fkaAa0FIRVQwoe5I1VPFKLo53F6+4/XyiowtyiiK9GXVRjS1x/xdWVKCFxdl7p9pR8wc5L32bPyel9Qe8/h+5ihaRcwzn9r1tUvwl08paP6Ac+rnT/2rPoe+AViR1bByzSTYfQ2AXwAojApaMYpu76zn71n5WTx3auhA5HWZ+x77F9ZvaRIe1m1qj3kAHikhGxdl1o54jCKbDy94VVgoFg295ChagTQDqgXP/Re1y3eimUTeO6Wk7wKWLtPKC98egkDXDQDOjynX3LELPxhPMGfWFMUoejmpLr7LLi+vFpSLbqNf4V1e0RxFN9oOK93M3i1gsUdWQZNmUkI2LoqnHYlUPXWT5iSyH7KkhB1IL359BeYsWovtOdWxwVbZAFi6oCsuWjaWgN5KCE42Cr+M7MLsw4ugqp6KHEl/26SSUdTNVKvL6+YF51/dvjhGcxO5vEyLYOlAIh9Z7civNCeRuZnbiDCKQwcNiIufe++Ttbh8/odY1zUQCPQ+BRHtP5sAS1901UVLj6SgdxNCDCeFoizUhBtmDMeMo8e72SP1HQ8SSCWjaDRTZVN7RGp38S4vT2yyqT3m/pJNShjH52m6etv3Pl6Lu55dibe3FAHBfFuR0FDgpIYFU17UG/QpHxbvIFRctOyMAOitINizF8Ephuc1Yu7ZY3DspH14Xai/+yyBVDKKDLhEwwBktR0mJtHLaxSp29Qeq21JNClhdxTYup+4Y5albDds2Y57/vYBnvoUQF7vq4C2x6qLjKl/eOqqrAQsbdHTluRU7ElmB0DngJDqqKAUo+gzFIl3l2pG0WmmblJ7zP2J5CjKxEWJS7b3cQ678AE/NV2nYFcmx3uefAd/frcdtKA3NZizlhX1tdN6EwozIZdQZnOk2s78uLiqoOn/AMJYxV6oZ4zi6E5c9+NDVY6ilEC9N041o2hegdfUHnN/WgmcS0+0PFc8RtGrdHnanigpYTUPJ1bVkvkTW0wrCD2uft70t43Ns8oktJJTv0uWDyzo7r6eEHpJjGA6d+Oc/aliFMUOl6+tUs0oJjJingnK6cn7dCUl7DZYf1GbgZb5w5i/O1/ciG87B0iVWaDAyu6e4LnNC4/82Nxn1gOWLpCqWUv2BCG3gOBMo5AUo+grFkl1lmmXV2ZxIozizQ++JBU/JjO+V0bRKfyDy/zZTZTSRorALQ3zp7JcYcuPAiyTWKzLNYcZxSuOq8aFpx0qcy5UWx8k4KefxWo6Xi+vlyVq0fQ/PQkMAKw+fuUo2s1RllF0YlUZUN29+DO8tbWfI/MXNxdKG0MkcHsjKf4D5h3S6iRPBVg20qmcveQkAL8nIOOiTWiYUbzixD0w45gDvJxT9V0XEkglo8gSjG964AW8uyL8kITfH+ZjuvbSE3DMEb3HTR8j1aQE03RZjX2W+2dVh0xn/rRUmrxiYdFQiiYC3Ik8el/9/dNbRL6oAMtJSqxc88Y3z6cI3UBAhkabMkZxSBsuP3WMqnoqcsp8bJPoy8sz1djl1aue+risaFd+PnkvOz9empO5P5fMHyhFM4C7SB69WxSo9LEVYIns6vlLCqpyyf9R0KsISGn0Kz0dOLK6BXf8dLJiFEXk6GObRDOKTON5/sH/gZUzmS0j0WYqj1FMZJoTA80n75htu1sa8/fsf1C7fAeaA721BnjbS0F3gOKeUFvhXU1PHLaT197q7wqwJKSmlWvuCl0H0J8Sgrwo6kcYxV98/zsKuCTk6UdTvxlFmcTnRGt7TD7JZBRFqlP0Mn9lABGDD0qxixJyb09X6M7mh6cz7cr1R2xE1933zS+WXbJkRE43uRnAD4zlmjVGcVIxZp16iEquTvLW+8Eoun3T0O8n782i45mpXrU9EZB2yfwxv9QfOkJ5d+xcMEm8XIbD2VGA5eFilV341oScYPe9BMRQMR8oCzUqRtGDXL181c3llX3TkJlEJcUFcdNMtJnKYxTdkBI8kHbJ/LVS4I8dhN6+a970Bi/7af6uAiwfpFl+8bJjg5TeCqCXOmSMYv52XHHCMMUo+iBj2S5ELq+XxGcvtaBk12Ju7wejyANpl8xfGwUe6CD0Fr+BKup+8So89X1dApRUXLT0PALcFFOuOdSDyUNaFaOYgoNiV05G5IEH43SdEp95CcZXmUrQ+CkGN4wiD6RdMX8U7SFC/9wRzPtdy4NHhB8aTNBHaVh+C/asz/Mqy+r/BxS/IQS9LwIoRtFvSQv3p5tqr7/zBX4+87taaWGRj2jiMy8cwI2ZKjI/vY0Io7hxSzN+c8kJYG2tPu6YP9oBBGopIb9rmDdls8yc3bZVgOVWcpzvlZ/3bv9gUduvAfJzY7lmojGKBL84+2AMGxQpA5ugOahu3UvATeKz36/LyM7eiVF06kuW+aMUnQAW0Jy8mxsfnLRRdp5e2ivA8iI9ge+ycs0k0H0TJfgxAQL6V8oCuzH78ELFKArIMJlN/Cjz4vTicTIYRadUH6MsZZk/CnSB4iGak3dDsoFKn7cCrCTdBq1cMwndTkBONA6pGMUkbQBnGPbAA3umiqXg+PVJdo6i6JuGsswfBbpB6SM9gdwbts+bXOeXfNz0owDLjdQ8fKd89rJJAUrvJQSHRLtRjKIHiXr/KovhumTO48IPgcqOmAxGUeRNQ1nmj1LaQwh5rJOSG3bMn7pWdt2JaK8AKxFSFeizatbSs0Dwu5hyzYpRFJBcYpokI2o9EYyiyCs/mkP97+/jjn/uFKr2yYAKhDxJQvSG+gXTv0mMxN31qgDLndz8+ZZWrjnwkwCh1wEYGO20pwOTB7Vi7syDMHb0YH/GUr0ISSAZwZ9OLx6LMoqibxre8/ibwjl/FAiB4i+E0jnpBlTKhyV0fJPUaObHxZUF239FKL0ChPTW5+hsxQ/2h2IUk7QNxmH8zlE0L8Etoyj6pqEM80cpKED/hlDunIaFk79KgbiFh1QalrCoEt+w3wVvVhUE6Q0g9CIC5ER/Vdqb8cuj+itGMfFbEDeCHzmKTtMWZRRFg12ZQ33uk5/ikx0DrN/5M0yGARUh9Jme7uB1TQ9NWZkC8UoPqQBLWmSJ/0LpxctH54W6bgPBGcbRBoS246LJ/fGL845M/CTUCDESEDXV3IqNxyjyniP7Ys1mXP/I+8LVPinwXA8h122fN5U9uJUxHwVYabxVFbPePJQEeu4jIBOj06TA8PwmlaOYon0TyVH0MjUnRtGqX3nmD88TSubUL5j6kZd5puq7CrBSJXmJcStnLzsFlP6eEIyNfi3Ug/Gl2zH33P1V1VMJWfrRNFGMokiZF33+8swfXiKUXJupQBV1j/ixgaqPJEjgLBqs7L/0AhByPSEYEh1RMYpJEL71EH4yik7PZZlHl2H+QOmrNIRrGxZOfz9lgvJxYKVh+SjMpHR11juFVaWd/0cJriJA/+iYilFMivitzbImuC1ZLBJHpY8pxfwBb4Qo/W3T/OnvpkwwCRhYAVYChJqMLkt+9F5FXn7rbwkll8aUa2aM4tFlmHXKQarqaTI2wjCGDKPIK/NinLoU8wcsIYReZ34xOcmiSNhwCrASJtrkdBwp1/w7AOfElGumzZh9RIliFJOzDTGjODGKLDzh1itnWD6XZZ6qJPP3dncocPX2BVOWp2DJSRtSAVbSRJ3YgSzLNStGMbFC5/RuZBRFHnjQu5Ni/ihdHqLBOY0LpvwzpYtN0uAKsJIk6GQNUz5ryfeCAfweIBOiY4Z6sH/pTlx/7jhMHD8iWVNR4wBaQvXry1fimCP2tX0yTBeUFPNH8W5PgMxpmjf1tWwStAKsPrnbrFzzmzMJoTcSYI/oEnu6MHlQi8pRTMM9F2X+KPBfAsypr532chouI+FTUoCVcBGncACtXPO2nwPk1wToLW/KGMXxrOrpQeodxRRuDxtalPmjwIcAndNQO/2FFE85pcMrwEqp+JMzOCvXHChsv5YA/wuC6PtUpGNnOEdRMYrJ2QjDKOLMH/1Y81HNn/L3pE8yDQdUgJWGm5KoKYXLNXf9jhIyM6Zcc4RRnHXad1QoRKKEH+lXgvn7NETJ3Mb5U54FCE3wtDKmewVYGbNV/k2UlWsOEHongOOjvTJGsaAZV5wwFDOO7vXX+zdqdvckyvxRYCUBub6+dsoiBVTxZ0YBVhbfo6pZy6YgQO+NewA2dxvunnWgYhR9OBuizB8FvgTFDQ3Dpv4Vc0nIh6H7ZBcKsPrktsosipKqi948GyR0M0BGR78ZYRQvP31fTJwwUqZD1TYiARHmjwKrKKU3NA6b9qQCKv7RUYDFl1F2tLj4/dwq2nIJKH4LgqroohWjKL3/YswfXR0KBW5s3DnlcSwiPdKDZOkXFGBl6cbbLbvywrdLaLDnVwHQywEU6e0Yo/iTwwvwi3MOU455G+Ex5u+uv3+NtzcV2Vf7pFgLQm6qXxV6FEund6vjJycBBVhy8sqa1sUXvVtdiPYbADqLEBLUF16mGMW4M7Bh63b88v63Hat9UoC953dTA+n3MOYd0pU1B8nnhSrA8lmgfa27ytlvjQF6biXAab1roxievyPrGUUR5o9SbAChNzeQkgUKqLzfDgVY3mWYFT1Yl2umGJ6FjKLO/NX+uw3Nod5HjowHgVJsoiC/a9xRWYtF4zqz4pAkYZEKsJIg5L40RMWsJaeRALmFAPtE18UYxcG7cfnpY/t8ueaFz/0Hd766Fc2BCuttpdgC4Jb6wqF/xh/26uhLe58Oa1GAlQ67kGlzYOWaS9+cBULnEqD3pdfuDvxgv1CfzFEUYP62UeDWhua8B7BoUlumbWmmzFcBVqbsVDrOk5VrLuu4glLyK0JQEp1ixy78ZFIh/u/7h2Y8o8hl/ijqKXB7w468PyqgSvwhVYCVeBn3+RFYueaCvLY5lOASAuRGGUWyC7MPL0Im5ihymT9KG0PAHY2Bkvsw75DWPr/JabJABVhpshF9YRrhcs1a8cCze8s1ZxajyGP+KLCdUHIn8kL31t8/vaUv7FsmrUEBVibtVobMlZVrzg10/wmEHBGdMqUYnteIuy8cn5Y5ijzmj1I0g+DuUGvBPU1PHLYzQ7aiz01TAVaf29L0WVDV7KWsGsStAPaPzirUrVU9TSdG0Yn5owADp3u6u+jdzQ9Pb04f6WbnTBRgZee+J2/Vc2mgYn2kXDNBTXTg7g6cOKod151/WMqqnjoxf5RiFwW9r6cbdyigSt5x4Y2kAIsnIfV3fyRw/pKCiiD5OSG4hhCUGRlFVq55zqwpSWMUHZk/SncDgT900Nzbdy6Y1OTP4lUvfklAAZZfklT9CEmg9NK3BuR2df+GEPwPQPKTyShymL9WSvGnjgC9bde86Q1Ci1GNki4BBVhJF7kakEmg/IJlNYEcejOA83rLNVOUhZpww4zhmHH0eN8ExWH+2ijwYHsw9/ctDx6xzbdBVUcJkYACrISIVXUqKoEBs5bsl0NwBwg5LvqdCKM49+wxOHZSbwaQaJ96O0fmj6I9BMzryMm9WQGVrGRT114BVupkr0Y2SMCyXLMHRtGe+aMdoJhPA8GbG+ZN2aw2IbMkoAArs/arj8+WksqLlp1DgJtAMCq6WMYoju7EdT8+lMsohpm/OnzbWQGQ3uNNKToBspDm5N7U+OCkjX1ckH12eQqw+uzWZvDCtHLNu38K0GsBVOorIZ27cc7+1JJR7GX+CoFATq91CbBieQ/3kJybts+bzIroqU8GS0ABVgZvXl+fulauOdB9dYDgF8ZyzWUsR3FSMWadegh2tLRZVvukQDcFHg2RnOsVUPWdk6IAq+/sZZ9dSaRc800AvcBYrnlAqAnN3fmgeb1F9CilPQR4vBOB63fMn7q2zwolSxemACtLNz4Tlx0p13w7AU4xz58CIVA8SSi9vn7B9G8ycX1qznwJKMDiy0i1SDMJGMs1R4DqrwjlXN+wcPJXaTZVNR2fJaAAy2eBqu6SJ4GK2UtPp92Br5oemrIyeaOqkVIpAQVYqZS+GltJQElASgIKsKTEpRorCSgJpFICCrBSKX01tpKAkoCUBBRgSYlLNVYSUBJIpQQUYKVS+mpsJQElASkJ/D8eU8SBpbSO8QAAAABJRU5ErkJggg==;rounded=1;dashed=1;strokeColor=#232F3E;strokeWidth=3;fillColor=none;" parent="1" vertex="1">
          <mxGeometry x="-2290" y="222" width="90" height="90" as="geometry" />
        </mxCell>
        <mxCell id="EWTi3nRZQ3Ram_rcYh2X-22" value="Mobile client" style="outlineConnect=0;gradientColor=none;strokeColor=#232F3E;dashed=0;verticalLabelPosition=bottom;verticalAlign=top;align=center;fontSize=12;fontStyle=0;aspect=fixed;shape=mxgraph.aws4.resourceIcon;resIcon=mxgraph.aws4.mobile_client;rounded=1;fillColor=none;html=1;noLabel=1;fontColor=none;" parent="1" vertex="1">
          <mxGeometry x="-2300" y="440" width="110" height="110" as="geometry" />
        </mxCell>
        <mxCell id="xtcrE2ZxcK-NYd2guA6A-9" value="" style="rounded=0;whiteSpace=wrap;html=1;fontColor=#000000;strokeWidth=1;fillColor=none;strokeColor=#35485E;" parent="1" vertex="1">
          <mxGeometry x="-1920" y="98" width="1020" height="522" as="geometry" />
        </mxCell>
        <mxCell id="EWTi3nRZQ3Ram_rcYh2X-6" value="" style="rounded=1;whiteSpace=wrap;html=1;fillColor=none;dashed=1;strokeWidth=2;strokeColor=#232F3E;arcSize=2;" parent="1" vertex="1">
          <mxGeometry x="-1800" y="118" width="860" height="472" as="geometry" />
        </mxCell>
        <mxCell id="xtcrE2ZxcK-NYd2guA6A-10" value="Amazon EC2" style="outlineConnect=0;fontColor=#232F3E;gradientColor=none;strokeColor=#ffffff;fillColor=#232F3E;dashed=0;verticalLabelPosition=middle;verticalAlign=bottom;align=center;html=1;whiteSpace=wrap;fontSize=10;fontStyle=1;spacing=3;shape=mxgraph.aws4.productIcon;prIcon=mxgraph.aws4.ec2;" parent="1" vertex="1">
          <mxGeometry x="-1900" y="118.00000000000003" width="50" height="78" as="geometry" />
        </mxCell>
        <mxCell id="xtcrE2ZxcK-NYd2guA6A-15" value="" style="aspect=fixed;html=1;points=[];align=center;image;fontSize=12;image=img/lib/mscae/Kubernetes.svg;fontColor=#000000;strokeColor=#232F3E;strokeWidth=1;fillColor=none;" parent="1" vertex="1">
          <mxGeometry x="-1790" y="133" width="50" height="48" as="geometry" />
        </mxCell>
        <mxCell id="xtcrE2ZxcK-NYd2guA6A-16" value="Kubernetes" style="text;html=1;strokeColor=none;fillColor=none;align=center;verticalAlign=middle;whiteSpace=wrap;rounded=0;fontColor=#000000;" parent="1" vertex="1">
          <mxGeometry x="-1780" y="186" width="40" height="20" as="geometry" />
        </mxCell>
        <mxCell id="Eb9f-dnprXw0Rj66SGwR-21" style="edgeStyle=orthogonalEdgeStyle;rounded=0;orthogonalLoop=1;jettySize=auto;html=1;exitX=1;exitY=0.5;exitDx=0;exitDy=0;entryX=0;entryY=0.5;entryDx=0;entryDy=0;" edge="1" parent="1" source="ZfqHxHFTZi9roqCpO5qu-6" target="EWTi3nRZQ3Ram_rcYh2X-24">
          <mxGeometry relative="1" as="geometry" />
        </mxCell>
        <mxCell id="ZfqHxHFTZi9roqCpO5qu-6" value="" style="shape=image;verticalLabelPosition=bottom;labelBackgroundColor=#ffffff;verticalAlign=top;aspect=fixed;imageAspect=0;image=data:image/png,iVBORw0KGgoAAAANSUhEUgAAAHUAAACDCAMAAACEEaSKAAAAAXNSR0IB2cksfwAAAAlwSFlzAAALEwAACxMBAJqcGAAAAORQTFRFAAAAYbp5AKpIAKtNAH8kAD0FW4Buo6WlcL2HAKpFAKU1GqxTMLBcEntIAD8cACsAAK9SAKUqF65UGLBeHVE2AEwsfZuGKLZnAKpLHq1UAKtPGWNDlJmbVLx6AKo9AKc/BKtPOnNbZsCEAK1OAKY6EaxRCk0vALRdC6tQA1kyQbRpKmhLAEYjOrhuAKlCS7dwbceQc5CBAKYxp6eoAKg3I61WWrl1////PrRkeMGLTrhsB2c6AAAAm56gmpucVLZvaqd8FodCAII2AIY+oaGjA41GIpVUAHsICZdLQpxliL+XAKQeQxTUzAAAAEx0Uk5TAP///////////////////////////////////////////////////////////////////////////////////////////////////52E2SAAAAbcSURBVHic7dp9d5pIFAdgw4sVaUStJIhpoDEQrJTUtCmbmG4V1mjc7/999oIKA8zIgGjPntPfyV9BeTL3Mi/a1mp/kpczhuX4+ruTmg2hKb4/b/FS/YRouyN22Q/nrV5Pki9OZF52lL6qBqos92RpcHUC8+O11tfZnQpui/90bPNmeCsaapCdKps9vnXc9t41LVFVkyoM15RGx2vvZ00QdTWrBmWWxsdp70dG2xY3qwZlPkZ7oaFRcTFqUGZerrq9bY2Ji4tVwbX5Stv7xRFES1Vz1LDMg6oWyXvFsQw1HYwKrsm3Kmnv16GjpIpLVsMy25OD0bajGOni7lOhzHbrwMX5UmMsrElWgzLDY1Xe/KgxbLahuSq4sl169g4F1sA0lEKF4cotvkx77zSFVNx8dVvmoovk5a2i7zNz1dCVxkXMr7eMbpGLS6duXPpFcqhZeSaVGq4aPN0sunugMClVYGHv/ZZrfnlQ9jy4hVW6Ml9ruNXvEDXcFKR9s6j9kNlaKlADV7JJs+hLRxHztTJqeLTCzqKv3+HESY8WVMMyZ9s7bPaJS24Valjm1Cy6fDAKFDeMUlSFMvekAYLedB4LmiXGGrpolZ1+YbTMWMMqx2qnhFpqrLIZz9ybZvdEY5XN+DBXSi05VqKqQ/aLwQuqVeHoy7KqsWfyGgbLWkY5VbYHONVQHAbiCCRXtxh4heAQ+2r2ej2TzI6yqq4ywx8u5OzRYQgs023ACz4zd1g12MchJsE17TFGVf5yt3lqCzjWEJ63L2jjVNNujev1+rhl41lcXw0nQiFDJcsaznN0fWrj1Hp4rU6v6rrgohGyrNiML39qZe7c4yfbixO+R6kazGNCdR02tclbSje+OpHSNzbtUXR1hB0tThXeJ1VXM9JqP754kVF70mTPVWq10eyTx4pRX35GV9+9lFbdz5rInl51uwzKnkp1BcZgT68m5s/pVFeLP4CcUG3cir9BdZ818Teo7gdn+yAfrmb3HKLqKsKGxapmlLQaXUDczP6aUJ9dNMzmQcao8EkxSu/lb1SNL8Ruzlh/sQlWUy2sCpv4dBAlXvzdb/w4+vUUtnm6vp410b3WvQk3gqzKT1yaXPCySaP+UG5/oO+7d7oYlRINWSpVeOw8oe/rCt2Miuynednst/mq1f+eeB/DGGm1VadW6y1KVdeZxBsFpZtS+Stq9Yqnq7AFBU2yTnqs1G2F806LVoWTVGLdOBNYVOWL9HVA21f4lXh7j771XkPOczNuYPI/Xbq8a8n0KhxFb9A3t4eoOvem9gUVemVTzteNqopa4u1J1fendn0SB32kJ+jvbZtubdqpOusQ/v5Q9ecjXpIkfvPzEj/T/7zw0a8lSaZcEXcqPMhDDBmp/vx80Nsluecgod1fI5W4AW5ViDeqalePVdXQ7jEookJ7Azezv2JiT2lV3dAaOarvD6jGKsvUKnw+xz1RSdU/n1ZbYRU+2im5KriDClVWbaui7+er/pyvTGXburHw59wrhbp0D1WZUGWHurUK78i95anzCtRgrOywrax29+RmRcb6rZT6C8YKxV0t4ntyjVx1HV39m1a1WORJbbN6e1vcKFxC9TNBu/CJp/xeQu068bGwaVhgeombeugTtV6mhxqwu8Guqb+Dgf1F2R0LHcNaLbz0TT3uaR8KK/J8exm23hGlCovQbXj2frrWV6u0uRmMtxnNW6apm+v+cha23A8Wq6xL+M7UYDrX1x1NXOHuGd6WWy7hx8Oi4d+1hBdsrp5P070lflMrGt1+qqHJ24YhXvYTl9MuSWXbBr645ZJqL15lh9aKVNySgb0ICe6bWrWdni1VxEOHm/nUHBR3kX+TEpnu2pv5hoBVj2WG7gjfV0upuKHJbJ7mtGod1dy4CbX2b986YnGjeOcjE/kfI9evJzBDd4z86yBhUa0+c29RQ1n/BC5sWShaq828o7uwb3i/aqm8ed6+Nf1gc+55r2kzyIojbl+Hox73usahtVpjcSQXTH+GN8P2+lz1ZZ7PMQ1NtZerehbBQN/2m5D1K/l0Uspckhqabu+yqjLDZ5B9DU0GZm8VLjSUozaDvFVQZihufkOTgfYeNlwo7oKqock0vEPc+bJYcePMSpcZilvSDPJWarhQXOySS521X9gFkyvR0GRmy2KLFXzOmR1qBikyi2CgRWcLMSvKMgezpSoT8kS1J8BS1KgQrdHMIpgtOftZmbwu952s4EP6qnoziL/nRMd5B88WUhoc9lPm3PfKLn90gVmUHS+cxI5pBkmf6OCYW+VsIWXtebELxfUqni2kwIHdD5eNoKFHmC2kvMJ4oZ+E4/zxsvKDAZ/WDHO0Cfon/9f8B3+2vo723zciAAAAAElFTkSuQmCC;" parent="1" vertex="1">
          <mxGeometry x="-1770" y="266.00000000000006" width="84.4" height="94.5" as="geometry" />
        </mxCell>
        <mxCell id="ZfqHxHFTZi9roqCpO5qu-12" value="" style="group" parent="1" vertex="1" connectable="0">
          <mxGeometry x="-1920" y="241" width="130" height="139" as="geometry" />
        </mxCell>
        <mxCell id="ZfqHxHFTZi9roqCpO5qu-14" value="Application Load Balancer" style="outlineConnect=0;fontColor=#232F3E;gradientColor=none;strokeColor=#ffffff;fillColor=#232F3E;dashed=0;verticalLabelPosition=middle;verticalAlign=bottom;align=center;html=1;whiteSpace=wrap;fontSize=10;fontStyle=1;spacing=3;shape=mxgraph.aws4.productIcon;prIcon=mxgraph.aws4.application_load_balancer;spacingTop=0;spacingBottom=-14;" parent="ZfqHxHFTZi9roqCpO5qu-12" vertex="1">
          <mxGeometry x="35.45454545454545" y="38.61111111111111" width="59.09090909090909" height="100.38888888888889" as="geometry" />
        </mxCell>
        <mxCell id="ZfqHxHFTZi9roqCpO5qu-18" value="Ingress Controller" style="text;html=1;strokeColor=none;fillColor=none;align=center;verticalAlign=middle;whiteSpace=wrap;rounded=0;labelBackgroundColor=none;fontFamily=Tahoma;fontSize=12;" parent="1" vertex="1">
          <mxGeometry x="-1750" y="360.07" width="40" height="20" as="geometry" />
        </mxCell>
        <mxCell id="0Om6wHVo42cu389rgM5V-4" value="" style="group" parent="1" vertex="1" connectable="0">
          <mxGeometry x="-1620" y="146" width="220" height="115" as="geometry" />
        </mxCell>
        <mxCell id="EWTi3nRZQ3Ram_rcYh2X-24" value="" style="rounded=1;whiteSpace=wrap;html=1;dashed=1;fontColor=none;strokeColor=#232F3E;strokeWidth=1;fillColor=none;" parent="0Om6wHVo42cu389rgM5V-4" vertex="1">
          <mxGeometry width="220" height="115" as="geometry" />
        </mxCell>
        <mxCell id="EWTi3nRZQ3Ram_rcYh2X-25" value="" style="group" parent="0Om6wHVo42cu389rgM5V-4" vertex="1" connectable="0">
          <mxGeometry x="30" y="45" width="179" height="60" as="geometry" />
        </mxCell>
        <mxCell id="EWTi3nRZQ3Ram_rcYh2X-26" value="" style="rounded=1;whiteSpace=wrap;html=1;gradientColor=#b3b3b3;fillColor=#f5f5f5;strokeColor=#666666;" parent="EWTi3nRZQ3Ram_rcYh2X-25" vertex="1">
          <mxGeometry width="160" height="60" as="geometry" />
        </mxCell>
        <mxCell id="EWTi3nRZQ3Ram_rcYh2X-27" value="" style="shape=image;verticalLabelPosition=bottom;verticalAlign=top;imageAspect=0;aspect=fixed;image=data:image/svg+xml,PHN2ZyB4bWxucz0iaHR0cDovL3d3dy53My5vcmcvMjAwMC9zdmciIGlkPSJMYXllcl8xIiBkYXRhLW5hbWU9IkxheWVyIDEiIHZpZXdCb3g9IjAgMCA2NCA2NCI+PGRlZnM+PHN0eWxlPi5jbHMtMXtmaWxsOiM1YzJkOTE7fS5jbHMtMiwuY2xzLTN7ZmlsbDojZmZmO30uY2xzLTJ7b3BhY2l0eTowLjE7fS5jbHMtNHtmaWxsOiNmMmYyZjI7fTwvc3R5bGU+PC9kZWZzPjx0aXRsZT5sb2dvX05FVGNvcmU8L3RpdGxlPjxjaXJjbGUgY2xhc3M9ImNscy0xIiBjeD0iMzIiIGN5PSIzMiIgcj0iMzIiLz48cGF0aCBjbGFzcz0iY2xzLTIiIGQ9Ik05LjgyLDlBMzIsMzIsMCwxLDAsNTUsNTQuMThaIi8+PHBhdGggY2xhc3M9ImNscy0zIiBkPSJNNy40LDM3LjI1YTEuMzUsMS4zNSwwLDAsMS0xLS40MiwxLjM4LDEuMzgsMCwwLDEtLjQxLTEsMS40LDEuNCwwLDAsMSwuNDEtMSwxLjM0LDEuMzQsMCwwLDEsMS0uNDMsMS4zNywxLjM3LDAsMCwxLDEsLjQzLDEuMzksMS4zOSwwLDAsMSwuNDIsMSwxLjM3LDEuMzcsMCwwLDEtLjQyLDFBMS4zOCwxLjM4LDAsMCwxLDcuNCwzNy4yNVoiLz48cGF0aCBjbGFzcz0iY2xzLTMiIGQ9Ik0yNy4yNywzN0gyNC42NUwxNS4yOCwyMi40NmE2LDYsMCwwLDEtLjU4LTEuMTRoLS4wOGExOC43MiwxOC43MiwwLDAsMSwuMSwyLjVWMzdIMTIuNTlWMTguNzdoMi43N2w5LjEyLDE0LjI4cS41Ny44OS43NCwxLjIyaC4wNWExOS4yOCwxOS4yOCwwLDAsMS0uMTMtMi42OFYxOC43N2gyLjEzWiIvPjxwYXRoIGNsYXNzPSJjbHMtMyIgZD0iTTQxLjY5LDM3SDMyVjE4Ljc3aDkuMjRWMjAuN0gzNC4xOHY2LjA2aDYuNTh2MS45MkgzNC4xOFYzNWg3LjUyWiIvPjxwYXRoIGNsYXNzPSJjbHMtMyIgZD0iTTU2LDIwLjdINTAuN1YzN0g0OC41N1YyMC43SDQzLjMzVjE4Ljc3SDU2WiIvPjxwYXRoIGNsYXNzPSJjbHMtNCIgZD0iTTI2LjEyLDQ5LjRhNC45Myw0LjkzLDAsMCwxLTIuMzIuNDksMy43NCwzLjc0LDAsMCwxLTIuODctMS4xNSw0LjI2LDQuMjYsMCwwLDEtMS4wOC0zLDQuNDYsNC40NiwwLDAsMSwxLjIxLTMuMjYsNC4xMiw0LjEyLDAsMCwxLDMuMDgtMS4yNCw0LjkzLDQuOTMsMCwwLDEsMiwuMzV2MWE0LDQsMCwwLDAtMi0uNSwzLjA2LDMuMDYsMCwwLDAtMi4zNSwxLDMuNjQsMy42NCwwLDAsMC0uOSwyLjU4LDMuNDcsMy40NywwLDAsMCwuODQsMi40NSwyLjg2LDIuODYsMCwwLDAsMi4yMS45MSw0LjE0LDQuMTQsMCwwLDAsMi4xOS0uNTZaIi8+PHBhdGggY2xhc3M9ImNscy00IiBkPSJNMzAuMjEsNDkuODlBMi43OCwyLjc4LDAsMCwxLDI4LjA4LDQ5YTMuMTEsMy4xMSwwLDAsMS0uNzktMi4yMywzLjI0LDMuMjQsMCwwLDEsLjgzLTIuMzYsMywzLDAsMCwxLDIuMjMtLjg1LDIuNjksMi42OSwwLDAsMSwyLjA5LjgzLDMuMjgsMy4yOCwwLDAsMSwuNzUsMi4yOSwzLjIyLDMuMjIsMCwwLDEtLjgxLDIuM0EyLjg0LDIuODQsMCwwLDEsMzAuMjEsNDkuODlabS4wNy01LjQ3YTEuODMsMS44MywwLDAsMC0xLjQ2LjYzLDIuNTksMi41OSwwLDAsMC0uNTQsMS43NCwyLjQ1LDIuNDUsMCwwLDAsLjU0LDEuNjgsMS44NSwxLjg1LDAsMCwwLDEuNDYuNjIsMS43NiwxLjc2LDAsMCwwLDEuNDMtLjYsMi42MiwyLjYyLDAsMCwwLC41LTEuNzIsMi42NiwyLjY2LDAsMCwwLS41LTEuNzNBMS43NSwxLjc1LDAsMCwwLDMwLjI4LDQ0LjQyWiIvPjxwYXRoIGNsYXNzPSJjbHMtNCIgZD0iTTM3Ljg2LDQ0LjcyYTEuMTgsMS4xOCwwLDAsMC0uNzMtLjE5LDEuMjMsMS4yMywwLDAsMC0xLC41OCwyLjY4LDIuNjgsMCwwLDAtLjQxLDEuNTh2My4wNmgtMXYtNmgxVjQ1aDBhMi4xLDIuMSwwLDAsMSwuNjMtMSwxLjQzLDEuNDMsMCwwLDEsLjk0LS4zNSwxLjU3LDEuNTcsMCwwLDEsLjU3LjA4WiIvPjxwYXRoIGNsYXNzPSJjbHMtNCIgZD0iTTQzLjcyLDQ3SDM5LjQ5QTIuMjQsMi4yNCwwLDAsMCw0MCw0OC41NGExLjg2LDEuODYsMCwwLDAsMS40Mi41NCwzLDMsMCwwLDAsMS44Ni0uNjd2LjlhMy40OCwzLjQ4LDAsMCwxLTIuMDkuNTcsMi41NCwyLjU0LDAsMCwxLTItLjgyLDMuMzUsMy4zNSwwLDAsMS0uNzMtMi4zLDMuMjgsMy4yOCwwLDAsMSwuNzktMi4yOCwyLjU1LDIuNTUsMCwwLDEsMi0uODgsMi4yNiwyLjI2LDAsMCwxLDEuODIuNzYsMy4xOCwzLjE4LDAsMCwxLC42NCwyLjEyWm0tMS0uODFhMiwyLDAsMCwwLS40LTEuMjksMS4zNywxLjM3LDAsMCwwLTEuMS0uNDYsMS41NSwxLjU1LDAsMCwwLTEuMTUuNDksMi4yMSwyLjIxLDAsMCwwLS41OSwxLjI3WiIvPjwvc3ZnPg==" parent="EWTi3nRZQ3Ram_rcYh2X-25" vertex="1">
          <mxGeometry x="10" y="8" width="44" height="44" as="geometry" />
        </mxCell>
        <mxCell id="EWTi3nRZQ3Ram_rcYh2X-40" value="Onboarding" style="text;html=1;strokeColor=none;fillColor=none;align=center;verticalAlign=middle;whiteSpace=wrap;rounded=0;dashed=1;fontStyle=1" parent="EWTi3nRZQ3Ram_rcYh2X-25" vertex="1">
          <mxGeometry x="54" y="20" width="106" height="20" as="geometry" />
        </mxCell>
        <mxCell id="EWTi3nRZQ3Ram_rcYh2X-31" value="Scalable Pod" style="text;html=1;strokeColor=none;fillColor=none;align=center;verticalAlign=middle;whiteSpace=wrap;rounded=0;dashed=1;fontColor=none;" parent="0Om6wHVo42cu389rgM5V-4" vertex="1">
          <mxGeometry x="60" y="6" width="110" height="20" as="geometry" />
        </mxCell>
        <mxCell id="EWTi3nRZQ3Ram_rcYh2X-41" value="&lt;b&gt;&lt;font face=&quot;Verdana&quot;&gt;Api&lt;/font&gt;&lt;/b&gt;" style="text;html=1;align=center;verticalAlign=middle;resizable=0;points=[];autosize=1;fontSize=11;" parent="0Om6wHVo42cu389rgM5V-4" vertex="1">
          <mxGeometry x="91" y="24" width="40" height="20" as="geometry" />
        </mxCell>
        <mxCell id="6l73balVksEqhCGWfGKK-3" value="" style="group" parent="1" vertex="1" connectable="0">
          <mxGeometry x="-2070" y="281.97" width="90" height="111" as="geometry" />
        </mxCell>
        <mxCell id="6l73balVksEqhCGWfGKK-2" value="Amazon API Gateway" style="text;html=1;strokeColor=none;fillColor=none;align=center;verticalAlign=middle;whiteSpace=wrap;rounded=0;" parent="6l73balVksEqhCGWfGKK-3" vertex="1">
          <mxGeometry y="85.77272727272728" width="90" height="25.22727272727273" as="geometry" />
        </mxCell>
        <mxCell id="Eb9f-dnprXw0Rj66SGwR-1" value="" style="outlineConnect=0;dashed=0;verticalLabelPosition=bottom;verticalAlign=top;align=center;html=1;shape=mxgraph.aws3.cognito;fillColor=#AD688B;gradientColor=none;" vertex="1" parent="1">
          <mxGeometry x="-2061.25" y="541.27" width="76.5" height="93" as="geometry" />
        </mxCell>
        <mxCell id="Eb9f-dnprXw0Rj66SGwR-2" value="" style="endArrow=classic;html=1;rounded=0;entryX=0.5;entryY=0;entryDx=0;entryDy=0;entryPerimeter=0;" edge="1" parent="1" target="Eb9f-dnprXw0Rj66SGwR-1">
          <mxGeometry width="50" height="50" relative="1" as="geometry">
            <mxPoint x="-2022" y="395" as="sourcePoint" />
            <mxPoint x="-1638" y="344" as="targetPoint" />
          </mxGeometry>
        </mxCell>
        <mxCell id="Eb9f-dnprXw0Rj66SGwR-62" style="edgeStyle=orthogonalEdgeStyle;rounded=0;orthogonalLoop=1;jettySize=auto;html=1;exitX=0.25;exitY=1;exitDx=0;exitDy=0;entryX=0.5;entryY=1;entryDx=0;entryDy=0;" edge="1" parent="1" source="Eb9f-dnprXw0Rj66SGwR-4" target="Ew_23fBss7E3DuVcSk8F-4">
          <mxGeometry relative="1" as="geometry">
            <Array as="points">
              <mxPoint x="-1698" y="750" />
              <mxPoint x="-1128" y="750" />
            </Array>
          </mxGeometry>
        </mxCell>
        <mxCell id="Eb9f-dnprXw0Rj66SGwR-4" value="" style="rounded=1;whiteSpace=wrap;html=1;dashed=1;fontColor=none;strokeColor=#232F3E;strokeWidth=1;fillColor=none;" vertex="1" parent="1">
          <mxGeometry x="-1753" y="447" width="220" height="115" as="geometry" />
        </mxCell>
        <mxCell id="Eb9f-dnprXw0Rj66SGwR-5" value="Not Scalable Pod" style="text;html=1;strokeColor=none;fillColor=none;align=center;verticalAlign=middle;whiteSpace=wrap;rounded=0;dashed=1;fontColor=none;" vertex="1" parent="1">
          <mxGeometry x="-1693" y="452" width="110" height="20" as="geometry" />
        </mxCell>
        <mxCell id="Eb9f-dnprXw0Rj66SGwR-6" value="" style="group" vertex="1" connectable="0" parent="1">
          <mxGeometry x="-1728" y="473" width="190" height="100" as="geometry" />
        </mxCell>
        <mxCell id="Eb9f-dnprXw0Rj66SGwR-7" value="" style="rounded=1;whiteSpace=wrap;html=1;gradientColor=#b3b3b3;fillColor=#f5f5f5;strokeColor=#666666;" vertex="1" parent="Eb9f-dnprXw0Rj66SGwR-6">
          <mxGeometry x="10" y="20" width="160" height="60" as="geometry" />
        </mxCell>
        <mxCell id="Eb9f-dnprXw0Rj66SGwR-8" value="&lt;b&gt;&lt;font face=&quot;Verdana&quot;&gt;Worker&lt;/font&gt;&lt;/b&gt;" style="text;html=1;align=center;verticalAlign=middle;resizable=0;points=[];autosize=1;fontSize=11;" vertex="1" parent="Eb9f-dnprXw0Rj66SGwR-6">
          <mxGeometry x="60" width="60" height="20" as="geometry" />
        </mxCell>
        <mxCell id="Eb9f-dnprXw0Rj66SGwR-9" value="Bureau Validation" style="text;html=1;strokeColor=none;fillColor=none;align=center;verticalAlign=middle;whiteSpace=wrap;rounded=0;dashed=1;fontStyle=1" vertex="1" parent="Eb9f-dnprXw0Rj66SGwR-6">
          <mxGeometry x="64" y="40" width="106" height="20" as="geometry" />
        </mxCell>
        <mxCell id="Eb9f-dnprXw0Rj66SGwR-10" value="" style="outlineConnect=0;dashed=0;verticalLabelPosition=bottom;verticalAlign=top;align=center;html=1;shape=mxgraph.aws3.worker;fillColor=#3f44d9;gradientColor=none;" vertex="1" parent="Eb9f-dnprXw0Rj66SGwR-6">
          <mxGeometry x="17" y="31.5" width="43" height="37" as="geometry" />
        </mxCell>
        <mxCell id="Eb9f-dnprXw0Rj66SGwR-11" value="" style="outlineConnect=0;dashed=0;verticalLabelPosition=bottom;verticalAlign=top;align=center;html=1;shape=mxgraph.aws3.sqs;fillColor=#D9A741;gradientColor=none;" vertex="1" parent="1">
          <mxGeometry x="-1145.88" y="281.97" width="76.5" height="93" as="geometry" />
        </mxCell>
        <mxCell id="Eb9f-dnprXw0Rj66SGwR-67" style="edgeStyle=orthogonalEdgeStyle;rounded=0;orthogonalLoop=1;jettySize=auto;html=1;exitX=1;exitY=0.5;exitDx=0;exitDy=0;" edge="1" parent="1" source="Eb9f-dnprXw0Rj66SGwR-13">
          <mxGeometry relative="1" as="geometry">
            <mxPoint x="-1188" y="660" as="targetPoint" />
            <Array as="points">
              <mxPoint x="-1240" y="504" />
              <mxPoint x="-1240" y="660" />
            </Array>
          </mxGeometry>
        </mxCell>
        <mxCell id="Eb9f-dnprXw0Rj66SGwR-13" value="" style="rounded=1;whiteSpace=wrap;html=1;dashed=1;fontColor=none;strokeColor=#232F3E;strokeWidth=1;fillColor=none;" vertex="1" parent="1">
          <mxGeometry x="-1476" y="447" width="220" height="115" as="geometry" />
        </mxCell>
        <mxCell id="Eb9f-dnprXw0Rj66SGwR-14" value="Not Scalable Pod" style="text;html=1;strokeColor=none;fillColor=none;align=center;verticalAlign=middle;whiteSpace=wrap;rounded=0;dashed=1;fontColor=none;" vertex="1" parent="1">
          <mxGeometry x="-1416" y="452" width="110" height="20" as="geometry" />
        </mxCell>
        <mxCell id="Eb9f-dnprXw0Rj66SGwR-15" value="" style="group" vertex="1" connectable="0" parent="1">
          <mxGeometry x="-1451" y="473" width="190" height="100" as="geometry" />
        </mxCell>
        <mxCell id="Eb9f-dnprXw0Rj66SGwR-16" value="" style="rounded=1;whiteSpace=wrap;html=1;gradientColor=#b3b3b3;fillColor=#f5f5f5;strokeColor=#666666;" vertex="1" parent="Eb9f-dnprXw0Rj66SGwR-15">
          <mxGeometry x="10" y="20" width="160" height="60" as="geometry" />
        </mxCell>
        <mxCell id="Eb9f-dnprXw0Rj66SGwR-17" value="&lt;b&gt;&lt;font face=&quot;Verdana&quot;&gt;Worker&lt;/font&gt;&lt;/b&gt;" style="text;html=1;align=center;verticalAlign=middle;resizable=0;points=[];autosize=1;fontSize=11;" vertex="1" parent="Eb9f-dnprXw0Rj66SGwR-15">
          <mxGeometry x="60" width="60" height="20" as="geometry" />
        </mxCell>
        <mxCell id="Eb9f-dnprXw0Rj66SGwR-18" value="Face Validation" style="text;html=1;strokeColor=none;fillColor=none;align=center;verticalAlign=middle;whiteSpace=wrap;rounded=0;dashed=1;fontStyle=1" vertex="1" parent="Eb9f-dnprXw0Rj66SGwR-15">
          <mxGeometry x="64" y="40" width="106" height="20" as="geometry" />
        </mxCell>
        <mxCell id="Eb9f-dnprXw0Rj66SGwR-19" value="" style="outlineConnect=0;dashed=0;verticalLabelPosition=bottom;verticalAlign=top;align=center;html=1;shape=mxgraph.aws3.worker;fillColor=#3f44d9;gradientColor=none;" vertex="1" parent="Eb9f-dnprXw0Rj66SGwR-15">
          <mxGeometry x="17" y="31.5" width="43" height="37" as="geometry" />
        </mxCell>
        <mxCell id="Eb9f-dnprXw0Rj66SGwR-20" style="edgeStyle=orthogonalEdgeStyle;rounded=0;orthogonalLoop=1;jettySize=auto;html=1;exitX=1;exitY=0.5;exitDx=0;exitDy=0;entryX=0.5;entryY=0;entryDx=0;entryDy=0;entryPerimeter=0;" edge="1" parent="1" source="EWTi3nRZQ3Ram_rcYh2X-24" target="Eb9f-dnprXw0Rj66SGwR-11">
          <mxGeometry relative="1" as="geometry" />
        </mxCell>
        <mxCell id="Eb9f-dnprXw0Rj66SGwR-65" style="edgeStyle=orthogonalEdgeStyle;rounded=0;orthogonalLoop=1;jettySize=auto;html=1;exitX=0.5;exitY=1;exitDx=0;exitDy=0;entryX=1;entryY=0.5;entryDx=0;entryDy=0;" edge="1" parent="1" source="Eb9f-dnprXw0Rj66SGwR-22" target="Ew_23fBss7E3DuVcSk8F-1">
          <mxGeometry relative="1" as="geometry" />
        </mxCell>
        <mxCell id="Eb9f-dnprXw0Rj66SGwR-22" value="" style="rounded=1;whiteSpace=wrap;html=1;dashed=1;fontColor=none;strokeColor=#232F3E;strokeWidth=1;fillColor=none;" vertex="1" parent="1">
          <mxGeometry x="-1210" y="447" width="220" height="115" as="geometry" />
        </mxCell>
        <mxCell id="Eb9f-dnprXw0Rj66SGwR-23" value="Not Scalable Pod" style="text;html=1;strokeColor=none;fillColor=none;align=center;verticalAlign=middle;whiteSpace=wrap;rounded=0;dashed=1;fontColor=none;" vertex="1" parent="1">
          <mxGeometry x="-1150" y="452" width="110" height="20" as="geometry" />
        </mxCell>
        <mxCell id="Eb9f-dnprXw0Rj66SGwR-24" value="" style="group" vertex="1" connectable="0" parent="1">
          <mxGeometry x="-1185" y="473" width="190" height="100" as="geometry" />
        </mxCell>
        <mxCell id="Eb9f-dnprXw0Rj66SGwR-25" value="" style="rounded=1;whiteSpace=wrap;html=1;gradientColor=#b3b3b3;fillColor=#f5f5f5;strokeColor=#666666;" vertex="1" parent="Eb9f-dnprXw0Rj66SGwR-24">
          <mxGeometry x="10" y="20" width="160" height="60" as="geometry" />
        </mxCell>
        <mxCell id="Eb9f-dnprXw0Rj66SGwR-26" value="&lt;b&gt;&lt;font face=&quot;Verdana&quot;&gt;Worker&lt;/font&gt;&lt;/b&gt;" style="text;html=1;align=center;verticalAlign=middle;resizable=0;points=[];autosize=1;fontSize=11;" vertex="1" parent="Eb9f-dnprXw0Rj66SGwR-24">
          <mxGeometry x="60" width="60" height="20" as="geometry" />
        </mxCell>
        <mxCell id="Eb9f-dnprXw0Rj66SGwR-27" value="Legacy Integration" style="text;html=1;strokeColor=none;fillColor=none;align=center;verticalAlign=middle;whiteSpace=wrap;rounded=0;dashed=1;fontStyle=1" vertex="1" parent="Eb9f-dnprXw0Rj66SGwR-24">
          <mxGeometry x="64" y="40" width="106" height="20" as="geometry" />
        </mxCell>
        <mxCell id="Eb9f-dnprXw0Rj66SGwR-28" value="" style="outlineConnect=0;dashed=0;verticalLabelPosition=bottom;verticalAlign=top;align=center;html=1;shape=mxgraph.aws3.worker;fillColor=#3f44d9;gradientColor=none;" vertex="1" parent="Eb9f-dnprXw0Rj66SGwR-24">
          <mxGeometry x="17" y="31.5" width="43" height="37" as="geometry" />
        </mxCell>
        <mxCell id="Eb9f-dnprXw0Rj66SGwR-29" value="" style="rounded=0;whiteSpace=wrap;html=1;labelBackgroundColor=none;fontFamily=Tahoma;fontSize=12;dashed=1;strokeColor=#b85450;fillColor=none;strokeWidth=3;" vertex="1" parent="1">
          <mxGeometry x="-805" y="30" width="210" height="763" as="geometry" />
        </mxCell>
        <mxCell id="Eb9f-dnprXw0Rj66SGwR-30" value="" style="strokeWidth=2;html=1;shape=mxgraph.flowchart.database;whiteSpace=wrap;" vertex="1" parent="1">
          <mxGeometry x="-745" y="610" width="90" height="102.5" as="geometry" />
        </mxCell>
        <mxCell id="Eb9f-dnprXw0Rj66SGwR-31" value="Legacy" style="text;html=1;align=center;verticalAlign=middle;whiteSpace=wrap;rounded=0;" vertex="1" parent="1">
          <mxGeometry x="-730" y="45" width="60" height="30" as="geometry" />
        </mxCell>
        <mxCell id="Eb9f-dnprXw0Rj66SGwR-38" value="" style="shape=image;verticalLabelPosition=bottom;labelBackgroundColor=default;verticalAlign=top;aspect=fixed;imageAspect=0;image=data:image/png,iVBORw0KGgoAAAANSUhEUgAAAoAAAAFoCAYAAADHMkpRAABKAklEQVR4Xu3dB3xUVdrH8QsogmVhbWtZfO3IBBBEEWsU1LVgr6gI9q67CnaJ3V0VG6BMEkjovfcaILRA6CABQiAhIQkE0ns57z0zEuGemTApk5yZ+T37+X5298ncO5Pk5tw/t5xrCCEMAAAABA6lAQAAAP+mNAAAAODflAYAAAD8m9IAAACAf1MaAAAA8G9KAwAAAP5NaQAAAMC/KQ0AAAD4N6UBAAAA/6Y0AMBfrc/Y2ihk3YBTQmIHnhcSO+iikLUDLze1Nv/3xWavVci6QS0n7Z3T2LocAPgbpQEA/uLhRf/5Z/CM3vea3jWFtx5/91wj1LbCsNtiDXvQRvO/N5u2/Pm/1xmhQavOHnHjQvO1o0yfBU/v/UjwzN5tEnP3N7GuGwB8mdIAAF+TV1rQOGp/zNlRKWuuPD2ySy8zyI0yg16C+d9lJlF7toOmacZg2zsRO6ZcF5USc35yXtqJ1s8BAL5CaQCAr4g5sOXEkHWD2r22/Mu3zIA20QxrMvSVqwGuTskwOOfuOa/0C4kddOu43XObWz8XAOhOaQCAL7hv/uudLht7d6gZyLaa8lwENW8rNu05c/iNE4Jn9uoen53U1PoZAUBXSgMAdBWduu6MN5d/fbdhD5puhq9SF6Gs4diDttw4redTUSkx/8wtyedGEgBaUxoAoJtVaRubhsQODG42pONwM2xlKOFLH3lGqG3uy8s+6zlm18xTrN8HAOhCaQCATu6Z89Y/Lh1z53eG3RZveP/6vrphtx04Y9j1I4Jn9+6wI2tvI+v3BAANTWkAQEPLKclr/FpKn38a0y98xQxUqUrA8h25xpArfr0u5bbLk3JTuWsYgDaUBgA0pNE7Z5/00rLPnjDstrlmgMp3Eap8jTxqufaOmS/+++tY+znW7xcAGoLSAICGEJedYATP69XmjMjrw8zAlGaqcBGmfFWFYQ/KbhzabnHw7N7BYxJncVoYQINSGgBQnxJzU0+ISllzcbMhHf9rBqVMF+HJ3xSYJvy2beyNmzJ2nGT9eQBAfVAaAFBfvloffubts1982QxEyw1fucGjrtiD9l465s5PQ9YOunxfbhpHBAHUK6UBAN42avMoI3jiY50bh7aX1/kdNvzrdK+nzO/ZVmAGwTUdJz76XJ/5vxECAdQbpQEA3rIxY8eJg7aN7myGnwhD3iGrhqJAVW4GwcXPL+l3z5L9a1taf24AUNeUBgDUtaSctEYhMYMvvGTMXX3MsLPTRQCCZA9KbxzaLixk3aCrlqbF8jQRAF6jNACgrl0z6fHHjMFtl5kBRz6zNxBP93rObpPXQm65cOwd73c9dBdHAwF4hdIAgLqwJCXm1OeWftrVDDPTjEC7waPO2BI6Tn74saiUmLMzi7K5RhBAnVEaAFAbS/ZsNEJiBrdpFGr7xQww+wyO+NVWjmG3jesd9dG9EX9M4rQwgDqhNACgpjZkxJ164fA7XzUGt11rBpdSF2EGNVNuhsB9LYd2/iEibnIr688dAKpLaQBAdRwuyjai9sec3mHiw3cb9qBNLsIL6laKEdrm48XJMa0ScpI5IgigRpQGAHhqaMVQo1fUh13NQDLUDCaHDE731hc5bcycm2f0eiokOrxFeUW58rsBgKooDQDwxJC4SWe1mHHlJ2YQ2WNwurchyBtrDhgD209+I/qr1tbfDwBURWkAgDsJWUnGon2r/mGEXfG6GT7iXYQSNIws00/fb47osC5jWxPr7w0ArJQGALgSn5108k1TnrrPsLeZYIaNEhchBA1LHhHc3Gr0ra+GJH937i6xS/kdAsARSgMArF5f/uX57Sc+GGHYbSlGqGOiYmv4gC7sQdnGqMvmtp/R/c7ismLldwkAktIAAGnd/h2Nvtsw9HJjcNCnhrzWzBo0oD970IgeC967Lmr/6pPLKsqU3zGAwKU0AGDBvpV//2fo3U+bAWKlweleXyaP1sYbYa3/O2jbmIutv2cAgUtpAAhchWXFRvCMZzu3GtVtvBn+MlwECvim4tMiOq8Mnt776ZVpG5tbf+8AAo/SABBYykSZEVW4rOnjUX3bGmFBPxsc8fNn5UaobeXlo+66LSoptsXB/CxlewAQGJQGgMAyYPuofxiLzv/AsNvkUzzKXIQG+Bt70AFjQIdBPeZ+cF1RWXEj6zYBwP8pDQCBYUXqhhOCZ/S689SIaxaYoSBPCQnwdyVmENx147Sn3x2wbVQL6/YBwL8pDQD+bVdW4smXTrvrWjMAzHCEADUYILDIG0W2GWFXPDdj76Kzdh7aqWwzAPyP0gDgnwpLixqFxA6ydZn65Fd/Pr7NGgQQ2AqN3y8ffe3Y7nf8cXg3N4oAfk5pAPA/v24Z2/SGqT17msFvs2NHr+78AUleA5oUNOH+Qc8u7vcP63YEwH8oDQD+Y9G+FS2MH858wNypR/+5c7fu8AF3Uo1B7d/9LMZ+UUl5CTeKAH5GaQDwfdsOx58QEjuw89nDbxpk2IMOu9i5A54oMuy2JX1X/9BjZuLS06zbGQDfpTQA+Lbe87441Tb+3n7mjnu7qdTFTh2oHntQ+nkjbx0ZPPP5DoeLspVtDoDvURoAfE9xWUmjqJQ159w/781nzB12nLIDB+pGgfF7ux/um9T3ivSCjKbW7RCA71AaAHzLjKRlTfus+v5Oc+c82ZTjYqcN1CV5VHndwwv+/c6ArSPPtm6PAHyD0gDgGw4VZBvBo1+94LyRt/5o2IP2mjvlChc7a8BbcpoP6Tg/eGrPrgsSVzSxbp8A9KY0AOgtrSCjSVRKzAWtRnV719wJH3CxYwbqU5Fp4vm/tbk2LjOhmXV7BaAnpQFAX79uHHbqQwvefsYItc03d7rFLnbGQEPZfdXkR0JC1g1qnVWcy7QxgOaUBgD9zI+fbwRPeDioeXjH0eaO9qDB6V7oqcC0vsuUJ3v+b80ITgsDGlMaAPSxPXPPCePi5wQZg4N+NnesmS52uICO5I0iSz5Y89O9q9I3/s26XQNoeEoDQMPLLM42Qtb/ck7HiY++Zthta13sYAFfcLBlZJffQtYO6rTh4PYTrNs5gIajNAA0vAfmv3WrEdpmgbkDzTI43QtfZg8qNW1tPe6ejx5b8D5PEwE0oTQANIyV6Rubvb/6x+vNneUIw3lnpbozBXyaLe6OWS88FbV/zT8KSgu5UQRoQEoDQP1av3+nEbJ68MUtIq/9zAx/8QZH/ODfsk0T31rxzV2TEhZxWhhoIEoDQP1Jzktv2nrMvU8Zv7eNNneKhS52loA/qpCTl589PLh/8Jh7LtiXtU/52wDgXUoDgHfllxYaUfvX/O22WS92M0Jti13sHIFAknZG5HXvRaXEtErJS29s/XsB4B1KA4D3TBQTjTfXftXJCG87yNzx7Tc43QuYbCWG3Tav+5zXen6/cTg3igD1QGkA8I7pe6NanD2j81tGuG2r4ZwnzcWOEAhY8rTwwaZhHccFr3skaJqYpvwNAag7SgNA3UkpSJene884fcj1Pcwd3GbHTk7d8QE4VqZhb/NL5I4p7bYe3sUTRQAvUBoA6saBwsNN71nw6m1GeFCkYQ/KdbGTA+Ce+Y8l23rbhPteC9k06Nz0wkPK3xiAmlMaAGovJHbQmddMefwHcye21+B0L1BT8oh5lvmPqAW3zXz+DuvfGYCaUxoAamZr+lYjIm7yBUZY238bobbEP3de1h0agJopMY1+c8U3N0anrW9u/fsDUD1KA0D1rU7fdFqbYTc/YAy+Yq65kyp2sfMCUHvytHBC84hOX4esD7tkVcZO5W8RgGeUBoDquXfO660vHXtnpGG3pTp3UMpOC0BdstuKjLD2Ky4df98zu7ISm1n/JgEcn9IAcHzRJStOeCP629aGvZ18fBs3eAANxW5bfsOUJ2+P2r+mRU5JnvK3CsA1pQGgamPiZ7VsFn3Ra2bwizHJ65LUnRKA+iKPuqcZ4UG/v7SiX5fRYrTyNwtApTQAuLYjc2+T4Gm9bzxj+A2TjVBbposdEYCGU2qE2eLOmNHpnbG75vzd+vcL4FhKA8CxknJTm1035Zl2hj1omLmTKXKx4wGgD/lEkT+ahV7VO2r/mrMS8/crf9MACIBAlb5eP/jCO2a9+JG5Q9lmKnexswGgpwIjPGjk7fNeuDM5L40bRQALpQFAGGN2zDgheFrP7o3D2q4ydyR5LnYuAPRXZkq6atIjg95b1f8s6985EMiUBhDINmXsOLnpj+feZu405hjM5wf4Czl/YIoxOOi9QVvHXLwpLV752wcCjdIAAtG+3LTGIWt/a3fp2Lu+NeQdheoOBIDvKzHsQVGXDH3g0WX7Y1tYxwEgkCgNIND0XfNNk46THn7L3DFsMrjJA/B38iaR9ItG3zGq28wXrrSOB0CgUBpAoFiyf+0ZLyzt94i5Q4hx7BTUHQUAf2a3ycs8/vv88n5BS4qXnWgdIwB/pjQAf7c0Ze0JIbEDr2sc1m6EOfgfVnYKAAJJqWl9oyXn94ncOfUM63gB+CulAfizrqPuOuOiUbd/bv7LP84ItTGtC4A/2XJbRnaZHTyzd7eNGXFNrGMH4G+UBuBvMotzjKjUmL93nPzI/eZAv1sd+AGgUrEZBsd2mPVa0J6c5KbW8QTwF0oD8DfPRn98uTHENtCw2w4ZXOsH4PjkOLE5eEbvV0M2j2xZUVGhjCuAr1MagD95e+W3V5n/ml9jcHcvgOqRcwceMsKvGvXWqm9aWscWwNcpDcDXyX+t/7Rl7GlG5PWvm4N4uouBHQA8Z7et77n4g26Hi7I5JQy/oTQAXzc0bnIz4/crvjMH7gxlIAeA6pOnhOOeWfzhs0MqhjSyjjmAL1IagC8bsmPyyS0iu3xjyAfBq4M4ANSc3ZbeYlbnHuEJi5SxB/A1SgPwRfK0b//NkecZobYIg2f4AvCew0bE9X2+3x9xcrkoV8YiwFcoDcAXhcdNbm6Etv3dHJwLXQzYAFB37EGpxuLzXi+pKOF0MHyW0gB8Tfjm6U1aDL3+Q4PwB6De2A68tvzL263jEeArlAbgS+YXLWpmLD7/bYNHugGod7bdTy5675ZDhVmNrWMToDulAfiKsopyo+fiD+4y7DzdA0CDKDfHn0VPR/W5tLS8VBmjAJ0pDcBXvLbk89PMwXedwdM9ADScYiP0igFFZUUcBYRPURqAL9idve/UoAn3D3ExGKOWGplOCu8gTou4RrSM7AI/0MJ08tBOoklYe+X3jbphm9D9qd3ZSdwUAp+hNADd7cpObHzj9J49DJ7yUSdODL9SXDGuu7hz9svixWUh4tO1A0T/zZHC/sd4EbFjCvzAUNPAraPFNxvCRJ/V34sei/qK66c9Jf4x4mZle0AN2W3r3o/pf4V1vAJ0pTQA3c1NWn6RYQ9aaMjrb6yDMDzWZty9os+q78WsxKViy6GdYl9emsguzhPlFeWC8s+qqKgQxWUl4mBhpojPThJrD2wRQ+ImiUcW/NtxpNC6jaAa7EFFrUZ1+3Z1+qbmwsW4BehGaQA6KyorbmwMDvpKGXxxXPJIX9D4+8Qry74QK9M2Coo6unJLCkRE3FRx15xXxHkjbxWNQtsq2xCOK/W/G8LvkDeoCRfjF6ATpQHobPAf4y6Sg6yLgRduNDZ35FeM7y4+XvuL2JSxQ5SWlwqKcldZxTliZuJSx2niv0dep2xPOA570PjfSn8/UbgYvwCdKA1AZ12m9vhWGXDh1olhV4rXor8QsQe2isKyIkFRntaBwsNi4u75osuUHo4bg6zbFtywBxV0XnZ/J+Fi/AJ0ojQAXb2/uv9Vht22SxlwoThpSEdxw7SnxcLkVYKialNFZcXimw2hotWobo6jydZtDaorxnUfF5+ddJJwMY4BulAagI52Zu1tagaaEIPHvR1X8yFXiTdXfCN2ZO0R5RUVgqJqWzIEzkxcIm6e/owZAtsp2xwUe/qu/uF64WIsA3ShNAAdzU5adpFhty12MdDiKDL8fbM+VBwuyhYUVZdVVl4mdmTuEXfMflHZ7qAoajXq9pCVaZubCBfjGaADpQHopqC00DCG2x6Tg6qLgRZ/unjMv8TY+DmipIybPCjvlfzHhbyu9JShVyvbII4RPTNx6aXCxZgG6EBpALoxA2ATI9Q23MUAiz+dMyJYjIuf65jjjaK8XfvzD4i3VnwjmoZ3ULZFVMp+clHfu82/SWVMA3SgNADdvLTo41PMAJjmYoBFqDzt20mEb58oSpjeharHkncJPzT/bWV7xFHstq9yS/I5DQwtKQ1AN50nPdFdGVjh0DLyWvHLlhGOi/Qpqr4rLf+guHvOK6JJGDeGuLE1OmlTM+FiXAMamtIAdNN5yhP9XQysAe+EsPbilWWfOx7rRVENUfIuc/lUmXYTH1S2TziUXj2y54XCxbgGNDSlAejk920Tmp429NqlLgbWgCef5bs3J0VQVEOWvPRAXoJw8hBuCnHl6kmPPipcjG1AQ1MagE76rurf3rAH7bQOqoGuZWQXMX/fCkFROlSF+Z/nl3yqbKeQAfCxQcLF2AY0NKUB6KTvqh/uNQMgz/49irze6tXlX4js4lxBUbrU5kM7HFMRWbfXQHfeyOCF85KXNhYuxjegISkNQCd9V//wujmI5lgH1UB2+dh7xNL9saLiOE/5yCnOEy9Hfy7umfNqvbH/Mf6YzzApYYG4b+4byuvqy6ML3hEfxvwsJibMF5k1mBw7tyRffLPBrqy3Ltw393UxOWGh9S1rVHklBeLnLSOU96gr8vd4vCosLRIhsYNEE54UYmHb9O6q/54pXIxvQENSGoAuMgozGz2+sM//zEG0XB1UA9OJ4Vc6Ao18KsPx6lBRlnwmqbIOb5Jzwx1d328a6rhZxfq6hnBaRGfRe8knYm7Sco+flCJf9/D8fyvrqivdZj4vDhVmWd+22rU9c7doN+EBZf11Rf4ePSn5ObpM7aEsH9DsQbvfXfXdVcLFGAc0JKUB6GLm3qXNzcFzsDKgBjA54fO2w7uEJ0UAdO3MYTeIl5Z9JtYd3CbKKsqP+bzW8nYAPH9kVzE7cZn1batdk/cs9OqkzJ4GwNLyUvHp2gHmZ7lSWUfAsgftMwPgbcLFGAc0JKUB6MIMgKebg+cYZUANYI8vfPe4oeVIEQDda2J+pg6THhbjds+t8tF53g6A8nrO92N+FAWlhda3rla9sLSfsu665GkAlLXp0A5HyLauI4AdMAMgdwJDO0oD0MXMxCXnGaG2GS4G1IAkj/BEpawRnpY8TZyYu1/sykqsNwcKDh/zGWSAsr5GJ3tzU0RpFafT5c8wNf+AslxdSsk7UOVn8KQSc1OV9dal6l4/+cj8/yjbbwDLNAPgc8LFGAc0JKUB6GJm4tJWhj1orosBNSBdNekRMyykC4rSvUbtmqlsvwEsxwyArwoXYxzQkJQGoAszAF5oBsCFLgbUgPTmim9EXkm+oCjda2fWXk4D/yXPDIBvCxdjHNCQlAagC0cADA1a5GJADTinDL1ajN41yzHhrqclrxVMzksTe3KS602G5Y7WrOJc5TU6Sy84dMznlz9D2bO+ru6lOKZRqU7JaYDkqVl1XXVP/h6rU4cKM8W9c19XtuMAlW8GwP8IF2Mc0JCUBqALAuBfLht7t4hOXSeqU9nFeeKZxR+IW2b0rje/bhl5zGcYGz9bdJv5nPI6XfWO+viYKWLkXIr91g5QXlfXupo/o7lJ0Uf95I5f8saRnzYPV9blDfL3WJ2SYfbjNb8o23GAIgBCS0oD0AUB8C83TuspdmcnieoUdwFX32kR14gxR4Udb98FfDR5J+/xJvc+uuSRuZun91LW4w3VuQtYlvw+hmyf7FO/ey8iAEJLSgPQBQHwLzKE5FdzqhACYM08uvA/Iqckz/H56zMAtp/woMdzPMqS8wc2G9JRWY83VDcAypqTtEycOyJYWVcAIgBCS0oD0AUB0KlRaFvx0rKQah0dkpVVnCMemPemY767+vK/jeHHfIZhO6aKTpMfVV6ns2eiPnQcXZMln7f87qrvldd4w60zeov5+1Yc8/OrqgZsHaWsw1vk77G6tTJtg2g97h5lew5ABEBoSWkAuiAAOskjaB/F/CyqW3IOu93Z+8T2zIR6k1aQccxnkI85s75Gdwk5+ypvyCirKHPcSGN9jTfEZe7x+BF1suSUQNZ1eEtNHlcnJ4SWUxdZt+cARACElpQGoAsCoNNJQzqK/20cIijKl0pOBXP9tKeU7TkAEQChJaUB6IIA6NRsyFXix83DBEX5UskjqTdPf0bZngMQARBaUhqALgiATt4KgOUV5aKgtEjklhR4rLisxLqaWlVpWanyHlXJLy2o1lyI8rrJwrJiZT3HU9XzgY8uuf6iGqy/Ksd7LrA8tS9/DtblakN+D3Vd8jF7cgoZ6/YcgAiA0JLSAHRBAHTyVgBMyk0Vd85+WXk/d+S1iDW5G7SqkpNbW9+nKq3HdXfc3expyWvqHl/4rrKeqpw29BoxLn6OdVUuq7CsSLy+/CtlHbXxt4jOyoTUR0oGTjkn35nD6/YpG68t/1KUlHsWej0tAmAlAiC0pDQAXRAAnQiAf6mPAHj+yK5inod343ojADYObSt+2zbW+laOkkcHzTAhGoe1U5arDQKgVxEAoSWlAeiCAOhEAPxLfQTATpMfE1sPeTYfnzcCoPSvWS86pvGxlryr+yYvXFdHAPQqAiC0pDQAXRAAnbwVANPyMxxHk+RTRjwRPL2XGdhmWldTq1qwb6XyPlXpseg9x9x8npbzUW4DlfVURT76rdjDa+LktXP9Nw1T1lFbD81/W8Skbz7mveTp340Z20W3mc8rr6+t/psiRWl52THvV9siAFYiAEJLSgPQBQHQyVsBUAYKeVOHvEnCU3UdEuQNDdb3qIoMXNW9CUQe2bKupyrVORJWk/V7Qn6fcg7CY97L/E9ZRbny2rpQne/Z0yIAViIAQktKA9AFAdDJWwGQorxZBMBKBEBoSWkAuiAAOhEAKV8sAmAlAiC0pDQAXRAAnbwVAOUdpfJ5rVP2LPLI1L2LHU93qMval5emvE9D2Xp4l+OUdHVLPpLNuq66Ms38mcv5GqXo1HXK1+vKxow4x3vUZREAKxEAoSWlAeiCAOjkrQCYbAaXHov6inNGBHvk/JG3ikHbxlhXU6uanLBQeZ+G0Gb8vWL6n2GrujUjMUpZX105b8StIi4zQSRkJ4tbZzyrfL2ufBDzY51fB0gArEQAhJaUBqALAqCTtwKgL04D4w2nDr1afLXOLuSULjWpCQnzlHVW5dSh14gzhl2v9N35Yt3v4jczeJ8W0Vn5miunDe0sLhh1u9KvCtPAeBUBEFpSGoAuCIBOBEDvaTako+iz+vtqTS1jreoGwCvGdXdM5dIotK3yNVfkvIT3zn1d6btz8/Re1Z77kADoVQRAaElpALogADp5KwBmFGY55n/rveQjjzy35BMxO2mZdTW1qlVpG5X3qU8/bxlu/hwOWz9WtWrNgS3KeqsSEjtQjNg5Q7y0LET5misvmq+TAc3ad2f63igxNG6y0q/K8B3T6nyKHwJgJQIgtKQ0AF0QAJ28FQApyptFAKxEAISWlAagCwKgEwGQ8sUiAFYiAEJLSgPQBQHQiQBI+WIRACsRAKElpQHoggDo5K0AmFucL+YkLRfh2yd6ZMj2SWJTxg7rampV8VlJyvvUp0XJq0Vhac3u/pVVWl4qVqRtUNZblYXJqxzLyjkHZ+1dqny9phbuW+WY2zGrOEdM2bNQ+bo7w3ZMEzsyEyzfWe2LAFiJAAgtKQ1AFwRAJ28FQO4CDhLnjggW9j/G12gCaFly6pjXl3+lrLcqjy14x7GsDI99Vn2vfL0mTgi/Ury3ur8ZAIsck3VfNekR5TXutIjsIobETbZ8Z7UvAmAlAiC0pDQAXRAAnQiA3nXuyFscn6OiosL68Y5btQmA8v0WJK8SZw2/UXlNdZ0/squYm7TcsV4CoHYIgNCS0gB0QQB0IgB630Wj7xDz9i2v9pNAahMAZR0oOCyeWNhHeU113T/3DVFUVuxYJwFQOwRAaElpALogADp5KwBmFec65qMLiR3kkc/X/SZWpK23rqZWtfnQTuV9GsJnpqX711b7VLA8jTsrcamyvqqM3z23cnl5FHBxSozjZ2t9XXUs2b+mcp0ZhZli8B/jlNe48+2GMLH+4B+Vy9dVEQArEQChJaUB6IIA6OStAEhR3iwCYCUCILSkNABdEACdCICULxYBsBIBEFpSGoAuCIBOBMCal7ymL7s4T2QW53hETqFSXFZiXQ1VgyIAViIAQktKA9AFAdDJWwHwcFG2GLxtnHh75bceeWfl/xzz5tVlxR7YprxPVb5ebxd5JQXW1bit9IJD4tEF74guU3t45Kbpz4gRO6dbV+O2SspKxYSE+crnrEpE3BTrakRybpryOk/03xzp+B6PrgPm//9+U4TyWnc+iPlRrE7fdMw66qIIgJUIgNCS0gB0QQB08lYA9MW7gFuP6y4OFWVZV+O29uWlicvH3aOspyoyMOaVehYya3sX8JGSd/C2nXC/8tqqNDK9sLSfyCrKOWZd3AWsHQIgtKQ0AF0QAJ0IgH+pjwB4w7SeIj47yboql1VXAbCsvFx8syHMDHVtlde787eIzsL+xwRl/kICoHYIgNCS0gB0QQB0IgD+pT4CYLsJD4jYA1utq3JZdRUAZYhbmbZBXDD6NuX17rQ2v68NB+OsqyIA6ocACC0pDUAXBEAnbwXA/NICEZ26znENmycmmuKy9lhXU6tKzN2vvE9V5NMuiv+c8NiTkjeByO8zt8Rz8vWezgcoX7fh4Hblc1ZllZvr7eRzfJenrlde705USozjyKG15DOe5fOGra93Z+qeRSIhJ9m6mloXAbASARBaUhqALgiATt4KgBTlzSIAViIAQktKA9AFAdCJAEj5YhEAKxEAoSWlAeiCAOhU0wAoT3/KqV4OFh6uN7kl+cd8hkOFWWJ7ZoJPkdcNlh31TOD80kLl+6yNTPN3UtUp5sKyYmWZo8lrIEvKS62LVZZct3wP63K1IU9PV7cIgJUIgNCS0gB0QQB0qmkAlGFMzt33xKI+9SZyx7Fz3A3bMVV0mvyo6DDpYZ/x4ZqfjpkMelLCAvH04veV77Wm5PpT8w8c9VM6tnZl7VWWOVrf1T+Ifblp1sUqa7+57g9iflKWq40ZiVHWtzluEQArEQChJaUB6IIA6FTTACiPFF0xrruyPm96a8U3x3wGedewvHvY+jpdNQ3vID5f99sxU6t8se53cVJ4R+W1NSUDsbxT113Jp5GcP/JWZbkjHp7/b5GWn2FdrLKqexewJ2py9zcBsBIBEFpSGoAuCIBOBMD6c97IW8SWwzuP+R7qOwDK08+fx/7mck7Ak4d2EgO2jlLm/ju6CIDaIQBCS0oD0AUB0KmmAVBe/3fN5MdFy8gu9eb91f2P+Qxj42eLbjOfcwQBX/DJ2l+Puf5P1ncbh4qzh9+sfK81Jd+nqommZbhblbbRMc+fddmOkx4WMembrYscU3LdwdN7KcvWxq9bR1rf5rhFAKxEAISWlAagCwKgU00DYGl5qdiYESdWpW+sN3ss88llFec6er4i2/y81pI3haw2Q5f1e62pzYd2isLSIuvbHFPyxpNNGTuUZWXveMvKr28+pC5bGylVXLPorgiAlQiA0JLSAHRBAHSqaQCkqIYsAmAlAiC0pDQAXRAAnQiAlC8WAbASARBaUhqALgiATjUNgHI+OPmotV1ZifXmQMHhYz6DvA7R+hqdyJ9PaRVz8smfoZyyxbpcbVQ1BYy1DhVmVi4n51T0pArKihzXAVrftzbkvILVLQJgJQIgtKQ0AF0QAJ1qGgC5C9i9JuZnumrSo2JiwjxRUuZ+UmUZYOW0K9bla+OxBe9Y38ZtTd+72LHMKUOvFnOToq1fdlmr0zeZ20zd3bUscRdwrRAAoSWlAeiCAOhEAKxbZ4+4Sbwa/YXYkLFduePXWg0dAOWRt9OHXS+6znxO7M1JsX7ZZREAtUMAhJaUBqALAqATAbButIi8Vjy/9FMxb98Kx2TLnlRDB0B5CvrJRe+JL9cNFsXlfz2dpKoiAGqHAAgtKQ1AFwRAp5oGwJziPPFy9Ofinjmv1hv7H+OP+QzyMWr3zX1DeV196bGor/h47a9iyp5FjilpqlvycXrfbLAr662NbzeEW9/Gbck5Abce3uWYOsbTistMEA/Of0t539qQv8fqFgGwEgEQWlIagC4IgE41DYAU1ZBFAKxEAISWlAagCwKgEwGQ8sUiAFYiAEJLSgPQBQHQiQBI+WIRACsRAKElpQHoggDoRACkfLEIgJUIgNCS0gB0QQB0IgBSvlgEwEoEQGhJaQC6IAA6EQApXywCYCUCILSkNABdEACdCICULxYBsBIBEFpSGoAuCIBOBEDKF4sAWIkACC0pDUAXBEAnAiDli0UArEQAhJaUBqALAqATAZDyxSIAViIAQktKA9AFAdCJAEj5YhEAKxEAoSWlAeiCAOh0vAB4qChLrE7fJKJT1wH1avOhHdbNsbIIgJUIgNCS0gB0QQB0Ol4AnJ20TJw/sqv5uo5Avbp91gvWzbGyCICVCIDQktIAdEEAdDpeAJyZuEScOfxGZTnA24Jn9LJujpVFAKxEAISWlAagCwKgEwEQuiIAeoQACC0pDUAXBEAnAiB0RQD0CAEQWlIagC4IgE4EQOiKAOgRAiC0pDQAXRAAnQiA0BUB0CMEQGhJaQC6IAA6EQChKwKgRwiA0JLSAHRBAHQiAEJXBECPEAChJaUB6IIA6EQAhK4IgB4hAEJLSgPQBQHQiQAIXREAPUIAhJaUBqALAqATARC6IgB6hAAILSkNQBcEQCcCIHRFAPQIARBaUhqALgiATgRA6IoA6BECILSkNABdEACdCIDQFQHQIwRAaElpALogADoRAKErAqBHCIDQktIAdEEAdCIAQlcEQI8QAKElpQHoggDoRAD0fY1D24qLRv9LPLrgP+KTtb+K7zcOFf/bOET0WfW9eHD+W+L8Ubcqy/gCAqBHCIDQktIAdEEAdPL1APj8kk/FtxvCqxAm+sUOFP9Z+T/RY1FfcfP0Z8QV47uLlpFdRCMzOFnXVx1Dtk8S0anrPLY4JUaM2jVT9Fs7QPxr1oviwjF3iKbhHZT1euKEsPbi8nF3i76rfxDbM3eLsooy66+ussorysWC5JXiiUV9xBnDblDWpSsCoEcIgNCS0gB0QQB08vUAOH/fCutHrrIKSovExoztInLHFPHishBx7shblHV6at3BbdbVe1yF5udYun+teD+mvzhvZPWO0DUJa+c4srcybYMoLS+1rtptZRfnmt/31Fp9z/WJAOgRAiC0pDQAXRAAnQItAB6piooKkWUGoiUpa8QD894UJ4Zfqaz7eGoTAI9UXkmBmJe0XLQe111Zvzsy/CXnpTm+h+pWaVmpiIibIs7S+Hd6BAHQIwRAaElpALogADoFagA8uorLShyh6IJR3ZT1V6UuAqAsGeS2Htolus54znF0z/o+R8hT1nfOflnszztgXUW1Sn6//c3f+alDr1beQycEQI8QAKElpQHoggDoRAD8q8bGzxYXj/mX8h7u1FUAlCVDoLxOsKr3P2v4TWLc7rmOa/pqW8l56eKm6T2V99AJAdAjBEBoSWkAuiAAOhEA/yp5ZGzojininBHByvu4UpcBUFZZeZn4er1deZ8jgqf3Fim1PPp3pGTg/GnzcOU9dEIA9AgBEFpSGoAuCIBO/hwA5ZEyeY1dTnGeI1x5UmXmMgO2jHT8XKzvZVVVAJRH2N5Z9Z24d+7r4tXoL8TIXTNFYu5+68uUSi84JM53cVOIvOv34zW/WF9eWfIGjwFbR4mLRt8hTovoLG6d8azYmBEnKoT76wTlqeSqTjk3NAKgRwiA0JLSAHRBAHTy5wCYVZQjft48Qry0LMQx9cqE3fMcAet4N09km4HxjtkvKu9lVVUA3JWVKG6c9tcpVnmTibzZJCEn2frSYyq3JF88uuAd5b2am7+nSQnzrS93lAy6w3ZOE6dHXl/5+kamB+e9JTIKM60vr6xSMxT/U+M5AgmAHiEAQktKA9AFAdDJnwNgav5Bcd/cNxyvaxzaznENnQwNK9M2Wl+q1Nx9y82fTUfl/Y5WnQAonRh2pfhkzS9VHo0sKi0WH8T8pLzXqUOvERsytltf7ih5JO+h+W87Qt/Ry1w05g4RlRJjfXllyc9xzeTHlffSBQHQIwRAaElpALogADoFSgA8mjxSFrZ9gmMuPnd1uDBLPLXofWXZo1U3AEqytzt7n/XllSWvQ/xy/WBluRaR14q0/Azryx1HM5ftj3V53WLLiC5i+M7p1kUqS04efd3UJ5XldEEA9AgBEFpSGoAuCIBOgRgApUvH3OkITu5OB8trAYfGTXZcT2dd9oiaBMCgCfeLtQe2WF9eWUVlxeK91f2V5eSTS3JK8qwvd5z+Hb97rmjs4lo+uUyVAbC8TNjG36cspwsCoEcIgNCS0gB0QQB0CtQAKE+Xvr78K8cpV3cVe2CraGsGNuuyR9QkANrG3yti0jdbX15ZeSX54slF7ynLnT3iJpfTv8ig+vu2scrrJXkzibmdWxepLHkNYIuILspyuiAAeoQACC0pDUAXBECnQA2AUvMhncSenBTrYpWVX1ogHpr/lrLcETUJgLfMeFYkVvGe8iYVV3MBtp/woPWljpJH8X7ZMkJ5vXT91KccdyO7qw0ZccoyOiEAeoQACC0pDUAXBECnQA6A0rjdc6yLHVPyWb1yChbrclJ1A2DT8A7i07UDREkVz++dZ34/8okf1ve6bOxd4qctwxX9N0U67va1vl6uQ04/U+7mFLesHzZHKsvphADoEQIgtKQ0AF0QAJ0CPQB+suZX62LHVHjcJMcULNblpOoGQBlYqprIubisWDzgIsxJcr4+eVey1UkmVwG1aVgHsWT/WutbVFZ+SYG4fdYLynI6IQB6hAAILSkNQBcEQKdAD4A9oz60LnZMLUxeJU6NuEZZTqoqACblpornl/QTV09+XNw28wXxw6YIx4TU7kre/CGP5tXF83nl0b9eUR9Z36Ky5FHBcfFzHdPiWJfVCQHQIwRAaElpALogADoFegC8e86r1sWOqY0Z2x1TsFiXk6oKgPIGi0OFWY5r+qqabkaWvI5vhvlzvmzs3cp71ETbCQ+4nTNQ1gHzM8kbTVydatYJAdAjBEBoSWkAuiAAOgV6ALxp+jPWxY6pnVl7HdOpWJeTqgqA1an5ySvFpWPvUiZyrgk5bc0vW0Y65hN0VXLam9mJy8TfI69TltUNAdAjBEBoSWkAuiAAOgV6ALxh2tPWxY4peZfw6cP+esTa0WobAOVzeuXP94px3ZV114Q8otd7ycdVnmrOKs4VnSY/qiyrIwKgRwiA0JLSAHRBAHQiAFYdAOOzktweLattAJQlj9TNSYoWd85+2XFDh/U9qqPVqG5i2+F461tUlgyc9j/GKcvpigDoEQIgtKQ0AF0QAJ0IgFUHQBmovH0KWE7wvCc7Wby2/Msah0D5rGP5e3T3ZBNZWw/tEh0nPawsqysCoEcIgNCS0gB0QQB0CvQAeNfsV6yLHVPycXHuHgdXVQCUp2HlHcQTE+aLBckrHU8VkTdfVFXyTmB5V7L1fY6nSVh70XPxB+JgwWHrKitL3pDy7JKPzaCo940fRyMAeoQACC0pDUAXBECnQA+AvY4zDcykPQvEKW6mZqkqAB49D6B8Tu+5I29x3Hm71gyCVZW8e9fdNYfutB53j4jev87t0T95hHH4junVXm9DIwB6hAAILSkNQBcEQKdAD4DyyRxV1U+bh4uTwjsoy0meBsAjZBDsPvc1kZCTbH15ZeWW5IvHFr6rvJc7chLo/24Md3vXr6yDhYfNkFg3N5rUJwKgRwiA0JLSAHRBAHQK9ABobgfWxSqrrKJcvLC0n9v58qobAKWTwjuKoXGT3T6iTR6tG7ZjmuO0rnVZV+6c/ZIoLXP/aLmckjzRa8lHynK+gADoEQIgtKQ0AF0QAJ0COQDKu3uT89Kti1VWmrl8t5nPKcsdUZMAKPVbO9BxvZ+7ktcO/mPEzcpyVv83+jaxdH+sdfHKkpNRD985TZw57AZlWV9AAPQIARBaUhqALgiAToEcAJ9a9F6VT+mITl1X5dM5ahoA+6z+QeSXFloXqaw1B7aIK8ZXfcpW3i0cEjuoyvVsz0wQ1019sk4mmG4IBECPEAChJaUB6IIA6BSIAVDeCXvV5EcdAc7djRPymrpvN4RVeSq2pgHw6/WhVV6ztykjTnSc9Iiy3BHylPQD894UqQUHrYtWVn5JoSPgWpf1JQRAjxAAoSWlAeiCAOgUaAFQhr975rwqFiWvFqXl7q+dk6eG5RyB1vc7Wk0CoLwTd1LCArfBU9a6A9tE2wn3K8seIX8f8uhkVTV+9zzR1M3NK76CAOgRAiC0pDQAXRAAnQIlADYJbSeunPiQ+HnzcJGYk1JlAJM1fMe04wao6gZAOVnzowv/4/hcVdXi5Bhx7ohblPc74v2YH0VZeZl1scoqLStzBMCv1g92KyR2oPjnqG7KunVCAPQIARBaUhqALgiATv4cAOVpVvkkj9Xpm0RK3gHrl93Wzsy9ZjjqqryXVVUBcK8ZMuW8f/I5v23G3ys6T3lCfLXOLnJLCqwvPaZKykvFD5silPeS5Knfu2a/LPZX43txV/Laxy5Tn1TeQycEQI8QAKElpQHoggDo5M8BsCaVkpcunl78vmgS1k55L6uqAqC8y3dn1l7HxM5bDu10PAVETvFyvJJz9smwaH0vST7rd8beKI/Wc7wiAPoNAiC0pDQAXRAAnQiAf1VWca54Z+V34mQ3T/6wqioA1rQGbh3tmNzZ+l7yZpR3Vn1X5V2/1SkCoN8gAEJLSgPQBQHQiQAoHNfTxWcniUfm/0dZf1XqMgDK09WTdi8QZw1z/bPuNOlRkW0G1LoqAqDfIABCS0oD0AUB0CnQA6A86jdi5wxx8/Rejke1WddflboKgPK6v7Hxs0Wbcfcq73HE5+t+sy5WqyIA+g0CILSkNABdEACdAjUAyqNp0/YuFnfOeUWcZX5/NZksuS4CYEZhpvgsdpA4b6T7u36l7zYOsS5aqyIA+g0CILSkNABdEACdfD0A/rJlhFiVvtGtFWkbHHPmLUheJYbvnC4+N8PWHbNedDwGzrqu6orcMUV5vyqlyc+z3jEHYfj2SY67hN2d8rW6d+7r4mfze60r320cKv5v9O3K++iEAOgRAiC0pDQAXRAAnXw9AJ4y9GrRMrKLW6dFdDa/x47KcnXh1IhrlPerSguT/Lye3GEMAqCHCIDQktIAdEEAdPL1AAj/RQD0CAEQWlIagC4IgE7y6Fj/TZHCXc1NWi7OGn6TshzgbffMecW6OVbW7ux94qZpzyjLBCACILSkNABdEACdTgrvIL5ZHyrc1bL9seKcEcHKcoC3PbbwHevmWFlxmQmiy9QeyjIBiAAILSkNQBcEQCc56fAHMT8Kd7X50A7tnxkL//Ta8i+tm2NlbTy4XXSY+LCyTAAiAEJLSgPQBQHwL72XfOT28WJyupTW4+5RlgG8bdC2MdbNsbKWpKwVF4/5l7JMACIAQktKA9AFAfAvcoqRzKIc4a66zXxOWQbwtsUpMdZNsbKm7FkkTh92vbJMACIAQktKA9AFAfAv1099SuzM3Cvc1cdrflWWAbxJztOYnJtm3RQdVVZRLgb/Ma7aT27xUwRAaElpALogAP6l1ahuYsG+lcJdLU9dz9x1qFcPzntL5BTnWTdFR+WW5ItXo79QlglQBEBoSWkAuiAA/qVpeAdh/2O848iKq8oozBJBE+5TlgO84YTwK8WAraNEaXmpdVN0VFp+hrhO88fY1SMCILSkNABdOAKgPWihiwE1IL287HORU+L6iEtRWbF4P+ZHZRnAGy4be7dYmbZRVFRUWDdFR207HC+aD+mkLBegcs0A+KZwMcYBDUlpALowA+D55uA508WAGpAuGnOH2J2dJNzV6vRN4rJxdyvLAXWpSVh78daKb0VBaZF1E6ysr9bbleUCWLYZAF8WLsY4oCEpDUAXMxOXnGOE2qa4GFADUqPQtmJM/CzhruR1V28s/1qcEHalsixQV84featYkbrBuvlVVkFpoeg85QlluQB22AyAvYSLMQ5oSEoD0IUZAFsYdttwFwNqwLp7tvtHb8lae2Cr44YR63JAXXkt+ktRXFZi3fQqa1HyKvH3yC7KcoHLlv7u6u8eEi7GOKAhKQ1AFzMTFp1gDLz8F3MQrVAH1cDUIuJasSDZ/d3AsgZtHSNODOcoIOpeuwkPiPSCDOsmV1nZxXniyUXviUYulg1gie+u+u4m4WKMAxqS0gB0sSNjh3H9+Af7GfagEheDakCSU708u+QTx9M/3FVmUbZ4cP5bjlPG1uWBmjp35C1iTPxsUVZeZt3kHCVvCJFTFV04+nZl2QC3493V37URLsY4oCEpDUAnfVf98Jxht2W6GFQDljzFO2/fClEhXN+BKXfEq9M3iw6TeA4r6kazIR3FBzE/idzifOvmVlny6N/Lyz4TjUOZj/IY9qAN767q/zfhYnwDGpLSAHTSN+aHYCPUlqgMqgHuztmviP15B0RVtWx/rGg/8QFlWaA65ByUby7/RhSWFVs3sWNKPvpNvta6fKC7etJjE4WLsQ1oaEoD0Enf1d+3Muy2rdZBNdDJHe2vW0aJ49XcpOXi0rF3KcsDnmg+5CrRO+pjcaDgsHXTOqZS8g+Ia6f0UJaHGQAnP9ZPuBjbgIamNACdxGcnNblibPfZ1kEVznkBNx/aKaoqeb3WrMRlot3EB5XlgarI8PfWim9ESt4BtxM+y5KTkH+05mfRlOmHXDID4O3CxdgGNDSlAeim8+TH+1gHVTjdOqO32JW1t8odtKyk3FTRe8nH4rSIzso6gKPJG40uHXOnGBs/W5S7efTgkZLh7/dtY8XfI69T1gOHzOeXv8/1f9CS0gB003nSEx3MgbTcxeAa8E4K7yBeWNZPHCrKEscreZH+j5uHOW4OkTt567qAv5n/QOgV9aFYnrrO7XOnjy45JdElY+9U1oM/2YNm5pbkNxUuxjWgoSkNQDcrUzc0NwfTXcrgCoeTh3YSn6z9VXhScgLfLYd2iQ9jfhYtIq9V1oXAJKcMkk/vmJywQBwsPHzcI8qy4rISxFWTH1HWhaPYg940A2Aj4WJcAxqa0gB0U1Ba2Niwt/naYEJot+RNIZ+s/UUcLsr2aOctX7M//4D4afNw0XXmc46pZeQ1X9b1wj81Dmsnzhh2g7CNv088t/RTsWT/GvMfB1Xf5XukSsvLxIq0DaLTpEeV9eJotviZiUuuFi7GNEAHSgPQTUl5qfHUoj7dzAH1gDrI4oiWkV1En9U/iIzCTFGdyirOdZzK+2XLCMdjvu6Z86q8cF20HnePIxieMyIYPuy8kbeKi8b8S7SdcL8IntFLPLGoj+OI8ej4WWLroV3Hvc7PWotTVjuOFvK0jyqZ/1i1jTQD4OnCxZgG6EBpADqanbTsn+aAyt3Ax3HK0KtF7yUficyiHFHdkkcF80oKREpeutiRtcdxh/H6g384ni8M3xV7YJvYmBEnth2OF3tykh2neM1/VFl//cetcnP7mLNvuWgz7l5lu4OF3Zb1+IJ3Xzb/McbpX2hLaQA6Wp282mgVdvULhj2Ip4J4QB6hmZMULQpKiwRF1bYSc/c7pnrhulHPnBbRedXvf4z9h3AxlgG6UBqArt5f8UsrY3DbtdbBFq793+jbxRfrfhep+QcFRdWk5E1D8vrA++e9IU4MZ54/T5n/APu3cDGGATpRGoCudmcmN7KNu6+vdbCFe82HdBJ3zH7JcTRQ7swpytNKLTjoeP7vxWP+5bhL2Lptwa2UzpHBZwsXYxigE6UB6OyVhf+TU8LwaLhqkhfs3zKjt5i+N8oxKbS8k5OirJVTnOe47vOr9YPFmcNvVLYjHFdhu4kPvFpUVsy1f9Ce0gB0VlRa3Mj4+aoXzYE218Xgi+OQTwK5fdaL4psNYWJ1+iaRW5IvqMCusooysTcnRUzYPU+8vOwzcdnYuxzTxFi3HRyXvPN38eykZRcJF2MXoBulAeisvKLc+C522HnmQDvNOeAqgzA8cFJ4R3GpuaPvNvM58fGaX8TilBhxqDDLozkEKd+vkrJSEZeZIIbvnC6eWfyh4+kwZw+/ialdaiejx6K+vTIKM5sIF2MXoBulAfiCD9f8dKMZAuNcDMKoIXmd1/kju4rg6b3F4wv7iFejvxDvrPpOfBDzI3zYe6t/FG+t+FY8t+QT0X3ua6LDxIcd0wVZf/+onb8N7TzQvnX8CdaxCtCV0gB8wcKU1Se0Gt3tPwZHAQE0ONv2wX+Mu9A6TgE6UxqAr1hzYMtp5uA7Vx2MAaDeHDYGXf5kUVmxMkYBOlMagK8oLSsz2g/teYU5AC83lbkYmAHAe+xBOReMvv29mANbTrKOT4DulAbgS+KzkxrfNP2Zf5mD8S5lcAYAL2o1stvghcmrzrCOS4AvUBqAr0nI2XdiuwkPPGYOyMXWARoAvMO2Yk365nOs4xHgK5QG4IvKysuMKyc+1MscmFMNbgwB4C32oBIjLGhW+1mvXFxqjjvWsQjwFUoD8FUJOftOuXlGr1fMQTpFGbQBoC6EBc29af4zHeJzk5QxCPAlSgPwZQk5yc3bT3xIng4uUAZuAKidmHazXr4kIW+fMvYAvkZpAL6uoqLCuHLSg92MUFusOWCXuBjEAaAabLn/N/r2ocEH7jyvTHDaF/5BaQD+YE9OcuPgOa91MsI7jDUH8HJ1QAcAj+T93+huny5OifmHdZwBfJnSAPzFnrx0I2p/7LmG3fadOYjnuhjYAaAqiaYX1x/cdrJ1fAF8ndIA/M3GjB2Ng6c/f3PLyOtmGfagfBeDPAAcLbvlsC4jgnfc33qD2KCMKYA/UBqAv4qMm3ZWo8gbPzRCbdsMnhwCQCXHhY29l3z874idU0+1jiGAP1EagD9bkr656fOLP+5o2NsMNINgqYsdAIDAVGLY2/747JKQdplFOSdaxw7A3ygNIFB0m/X8dReNuWOKOfAfMpg8GghE8u/+oDkOjO86s/fV1jEC8GdKAwgky1Jjz7hk3G3PGKG21QanhYFAUmLYg6IvHnr/E0v3r/27dWwA/J3SAALNpkN/NBq0dcwVxuC2X5g7hYMudhQA/Ic86pdq/N7mwwGbR122MTVeGROAQKA0gED23ur+FzT+7bLhjh0E8wcC/qTMsNv2dZz0yOC+q/qfY/3bBwKN0gAC3VfL/3fK7TOee8gY3GaKEWrjSSKA7ys0/55H3Tb92bv35aY2s/7NA4FIaQAQRmJOSqOolJhzmw3p8Ka589jjYocCQH8Vhj3oj6ZDOj5r/j2fZf5dK3/rQKBSGgCONXbXnHPOiLjxc3NHstvgRhFAf/agUiPMFnf6jE7vjImfww0egAtKA4Bq9K45jV5a+lk3c8cywtzBHDaYNgbQkTzil2YMuvK3F6NDuowSo5S/ZQBOSgOAaznFeY2iUtacecP0px4wQm2bXex8ADSs6OumPd01al9si5zifOVvGMBflAaA47sn68FTLx1z19uGPWi943STuiMCUD+KjN9bR18yqttTO7L2coMH4CGlAcAzq9I2Nw6J/a1d8/CrfjFCbftd7JgAeI+8DGNXs6EdvghZ/eNFK/etVP5GAbinNABUT3TqutPeXP71HYbdNsfgJhGgPsjpmSLfWPl1l+jUWI76ATWgNADUTL/F/YxrJj78hLljWmWE2vINbhQB6pL8e8o0fms/p+v0526x/v0BqB6lAaDm0gsONQpZ99vFtgn3fWjurHa62IkBqL5yw25b02bcfS+FLA/7R1ruYeVvD0D1KA0Atbf18K6mkTumdjZ3XCNN8migdYcGwDMZpu8i4ibbth7a1dj6twagZpQGgLozLXlRo+DZvW9oGtphrrkTyzI4LQx4otwItaWdGN5heEjsgEutf1cAak9pAKh732+IOKv73NfeMHdsqw1uFAHcswcVG6Ftp98z97XHvts47GTr3xKAuqE0AHhHSl76iV1T7r3UGH7Fd+aOLlfZ8QFIOj3i+jeiUtacl5J/gNO9gBcpDQDetS8vzQie/Wzbs0fcHCFPc7nYCQKBRJ7u3XX2iBu+nL436hzr3wsA71AaAOrHpD0LT35rxTdy2piFhj2owMWOEfB3h43QNiPeXPHVLRP3zOaIH1CPlAaA+lNQWti479Jf/88Y0OEtc2eY6mIHCfir9bfNev6BqP0xZ+SXFip/GwC8S2kAaBiPLXrnnNZju/9k2IP2GNwoAv9UbFrXevw9bzyS16O59W8AQP1RGgAazoaD25uFxA7q1jLyutHmjjLPxQ4U8FG25BZDO38fsn5Q0PpDf3C6F2hgSgNAw5u6d+FZRvhlvcwd52bDcZG8dWcK+Ag5rctg27T3V/fvtjJtwynWbR1Aw1AaAPTxvw0Rp3aZ3KOvuROVj5WTp8/UHSygnwoj1JZrDG4T3WXSo/d+G/2tsm0DaFhKA4Besopzmzw48+XOxsCLfzV3rAdc7GwBvdhtmztOfOidkJhfW2UW5SjbNICGpzQA6CctN82I2rfib+dH3vQvcwcbbXCTCPSUY9iDQsfFz7lye2bCidbtGIA+lAYAvS1IXtk8eEavJ5sP6SQfK1fkYicM1KcKM/Qdaj6k48TgCS9eNT9+rbLNAtCP0gDgG75dH36p8UvHb8wdcLzBjSJoGMVGqG3xQ/Pffv7XrSP/Zt1GAehLaQDwDcVlJUZU4rqT75v/1rWGPWisQQhE/TrUalS3D6JSYi5MK8hoYt0+AehNaQDwPYeLspoEz+h953kjb51ryOuw1J01UBcqTHvPG3nLL8Hze194qDhL2RYB+AalAcB3zUxceu5ZQ7u+aYTamD8QdS3HsNum9ln9/V0zEpc0tW57AHyL0gDg29akbjvhs9hBHcyd9c+mXBc7cqC64ox5rXr1S/nfOcVlJY2s2xwA36M0APiPnovfb2cMvGSyuQM/aDhP31l37IA7JaY/bBPu+7T3vC9OtW5bAHyb0gDgPwpKCoyQ6G9aXjvlqacNe9ACg9PC8EzG2cNvHhCybtA12w7Hn2DdrgD4PqUBwP/szEpqPGPvkgvNENjP3LmnutjhA1KpuY0sMdadee+i9JVM6wL4MaUBwL8N2Dr6glOHXSMfK5dicEQQkj0o3/zv9TdMfbrHr5tHccQPCABKA4D/Gxw/7sQei/o+YITaJprylECAQLKry9Qn+4XE/nZ5YWkRN3gAAUJpAAgMBwszG0WlxJxz+bh7epohYK+LYAD/VmjYbeMvnfZsp13Zic2s2wcA/6Y0AASWAlFgBKfdeWarUd0+MUPBHwanhf1dzqkRnWcFz3w2eEX6Bp7gAQQopQEgMM1PWdn4o7W/XGuEto00nNPGWIMDfFuJEWpb8+Sivv+2b59wuvX3DyCwKA0AgausotyISllzeo+Ffe837EErXYQI+KYC05ePL3jv8ozCzBOtv3cAgUdpAID06swfm7Sf8OBrZhBcZ4aHIhehAvrb32pUt4jgmc/bCsuKld8xgMClNADgiF1ZSY1D1g6ytRrV9SsZJlwEDGjJVmj+94KP1/764ILklTzFA4BCaQCA1bqD25p/v3FoN8PeZroZLorVwAF92BKN31u/+d368AvKK8qV3yUASEoDANwJ3zq+cfC0nv8yQ8YqM2zkquEDDaTUlNB+4oM/vr70qxbW3xsAWCkNAKiKPKoUsm7ABTfPeOY9MwhudhFGUL/yjdGXhd0U+3BwfHbSSdbfFwC4ojQAwBMJOftOap9ync2wB8lpY+SjxKzBBN4l52uMNeztn1h0YMXfE0SC8jsCAHeUBgBUx/qMbY2DZ/a8tmVklwlmGMx0EVRQt4rMn/P24Om9XhgSN/kU6+8DADyhNACgJiLipp7WO+pjOW3MCjOkcKNI3aswJRkDLvy+18I+HSoqKpTfAQB4SmkAQE1lFuWc0Hv2l5cYA6/8yAyCeS5CDGqmzLDb5nUYe/91UUnLTz1ceFj52QNAdSgNAKgLXWc8c9mFY24PM8NLsuE8emUNNTgee1BBy8jrFgbP7HXfhoy4ptafMQDUlNIAgLqydH/sKSGxg7o3Dm07x3A+jkwNOXClzLS10c9Xfxy5c9q51p8rANSW0gCAujZo87gLjIEdXjfsQQkGRwOPp9QYHPTLc1GfdliSuJ5pXQB4hdIAAG/ps7p/i46THvneDDl7HEFHDT+BSobigxeNuWNitxnPd7b+3ACgrikNAPCmfXmpTW+b0iPYGHRpuGHnaSKGMwgvv2TSnU8tS4093frzAgBvUBoA4G2JWYlG1L6VpzcNv+YJM/ysN5yTGluDkb+TR/3SjMFBnwzaOubyjZlxjaw/JwDwFqUBAPVpzO45pwbP6P1K47B2W43AmD9QTumSfNWkR0L7ru7PDR4AGoTSAICG8PqKLzsaQ20/y3Bk+OuNIvagIuP3dmNun/5y9+S8tGbWnwEA1BelAQANIackz4hKjTntuslP32SGpYWGv4VAuy2uWdjVL0Qlrz07MSeN070AGpTSAICGtiNrT9NLpnd91BjeeokZngqVMOU7So0w244zZlzVd2z8bG7wAKANpQEAOlgpVhoh8T9ecFL41SFmkNph+NaNIhWG3ZZuhAcNfmllyPWjxWjl+wOAhqQ0AEAn0anrT3oj+svOZqAaYgarEhdhS0crbpjW8/ao/WtaylPb1u8JABqa0gAAXd06p9eNxthLpxihtgOGftcI5p45/IbFwTN7P7ErK5EneADQmtIAAF2liTQjJP2/p7cZdvPjxuA2k83QlekiiNW3PDOQLmwWffFbY+Nnn2f9zACgI6UBALrbmr7ViEqJOeftld/ebQawSGcIU4KZtxUZ9qDZN0/v+bD5WS6ILlnRxPo5AUBXSgMAfM0D8945K3hG71fPGnbjNMNu226GsyyjTm8ascmbOrJNu04c0mG++V7/Dp715AUJOUnKZwEAX6A0AMBXTdg1t2nI2oEdQ2IHPdd24oP/NcPbNNMW02GjutcM2h0hUi4769SITv1DYge+YLr2uy0RJ1vfFwB8jdIAAH+wLXN306j9a86NSlljM117VuTNDxiDg9407LavzXAXZhph/u8Jfxpp/v9w07dGqO1N47fLHxqxY/p1fy57/oq09Ty1A4BfURoAAADwb0oDAAAA/k1pAAAAwL8pDQAAAPg3pQEAAAD/pjQAAADg35QGAAAA/JvSAAAAgH9TGgAAAPBv/w/nzvTNBtuwxAAAAABJRU5ErkJggg==;" vertex="1" parent="1">
          <mxGeometry x="-754" y="650" width="109.34" height="61.5" as="geometry" />
        </mxCell>
        <mxCell id="Eb9f-dnprXw0Rj66SGwR-39" value="" style="strokeWidth=2;html=1;shape=mxgraph.flowchart.database;whiteSpace=wrap;" vertex="1" parent="1">
          <mxGeometry x="-1420" y="629" width="110" height="110" as="geometry" />
        </mxCell>
        <mxCell id="Eb9f-dnprXw0Rj66SGwR-41" value="" style="shape=image;verticalLabelPosition=bottom;labelBackgroundColor=default;verticalAlign=top;aspect=fixed;imageAspect=0;image=data:image/png,iVBORw0KGgoAAAANSUhEUgAAAOEAAADhCAMAAAAJbSJIAAABCFBMVEX///9YqlBJnUpVp09MoEvj3NTu6uWNb0pBJxqQck1QpU6eh2rAsJ+UdlE+IxVInEmopYadgmLOw7Xa1cuJakP6+fnKxMLz+fN4tHn19PONg351ZVze29lDKh9kT0Xv7ezU0M43GgWmnZpVrk1LNSuGenW8tbLX6tbf7t9UrkvAvqg+IhLc2NbT5NLK4slBm0Khzp+Mwop/v3uxrpSzoIiYjoq3r6tcRjppV069rZmqlXyhmJTIva5xYVonAADL3sh1u29pr2nA3r5ptmOq0KmHvoRtsG3p8+lap1uZyJmWy5J+tX04lzl7vnay1LKky6Ntp192pWaMpHRZnlOGqG6WpHoyDgAwAQDuyl/6AAAKFklEQVR4nO2cC3uaSBeAkagMMWKMgSzIiFAw6UJjk6p4/bZJ003S3V63m/7/f7LDTVEZE1sp39B5n93WAEnO65nLmQHLMBQKhUKhUCgUCoVCoVAoFAqFQqFQKBQKhUJJiRMx6whSRjy/zTqElDl5+UfWIaTM7ft3J1nHkC7Xhf0XWceQKmevC92LPI81Z5eFwn43xz3x9PJZoVDsXuU2ieevkWChWOveZB1JSpy/8QSRYW3/OutYUuH8TcFnn2Vrd+dZR5MCYQZ9Q7abQ8XTSNA3ZLtXeVM8ex0JBoZs97fTrGPaKbeXc8HQkO3+eZZ1VDvk5OJ5YdUQZTFHBerNIoMLw1r3bdZx7Yxonlg2ZGvFl1lHtiO8YjTJkM3LzC/eP8MYotEmFwPqdaGAM2SLb3Owp3H2foMhW7whfp0hvny2YrhXjCveEb/iPy2ssmzYvSR9Vny7msIVQ7b7IesQf4zz54/kkC3uk53Eq7UUrhrWuvdZB/kjnK8LrhoiRYInxZPLJxiyJNen5+t+CYYE72mI755kyBYvso70ezl98zRDcpN4kySYYMh278mcMW7fPtWweEXmcHqe2EiTDNniBxIL8PWaG2/YvSRxFXWbNBliDNkiiWPNi0Q/jCGJY83Jy/Wie0MOr8hrpokVG9aQ7ZLXTM8wjRRnSF5dc41JIcaweEdcR7zHdEOMIfs3ac1UfL9dDslbQ93iuiHOsHaXdchbkrBBs9mQ7RJ2t+16e0PCbmK8296QsI6YsMn2iGHtz6xj3o697Q3viOqIJzi/DYZkrS/OsN0Qb7hP1P4+frLYYEjUTW/8ZJEXw5vtDQnbNsUtfzcZ1v7KOupt+D5Dkjbc7rHTYaGANSTqIakLakgN/+/Jv+GGsZQaEsKH7zEkagm8oS7FGxJVtZ1+hyFL1IM1t9uPpbUiWR8W2tvekLAnhnF3njYY3pF1M3/DdIE1JOsW4oZtjGTDInuVdczbgb9vgTMka4nPMCK+I2LuzJC2q7+hI2L64d9kdUOGebGlYW0v64i3BfukAsaQvBv5J9gNRYwhUXv6PrgnhpINa+Q9qcDcrn8QYYMhkc+zf0gWTNwvrRVJ/OzMWfLjGMnPtRH5cKL48ek5JPSTM6evn2pI2P3fBR+TmmniE7QfyRtJfc6SnoPO0XPeTHISkwxfknTXaYmTN+uK+2uCNXJTmLgQXjMk/FPrl2uKa4ZdwrYvVrhda6erhuQtfVdY/bD6WllK2vNsa5ysfoBtJYfETvYLzpaXwnvLswVp+8CJnC8Vb3eflqfCe2KnwhhLy6hPn5c64QXR4+ic+LMnS4Zdkuf6OGJsVvz05Z/YKEPe5gyG2P7w54VhbS8Ho0zE4qN6Xw8jQ8IeKH2M+Zzx9fBTLgWRYrD1tvfl8Es+BSPFu38PD4t+uX2dh4lwmdu3aET9hAy/dnP5DycixIvnhc+HiH9y8k9gJXDz5qtnePhXPiqZJP741xN8Vc46jvSQX3mGR1mHkSLikWeY4xQyTMMzlLOOIk3KXjfMOohUKb/Ku6H8+69g+HvWQaSKN5jm29AbTKkh4fwShvkeS38BQ7nxKueGyDHXhTeFQqFQKJTHKJfixAoDOX6c4H0suVev+NQRlcp4dBRJHtTr4Qn0x3hKbFEkH40qPMfx4+n0oFc/PuaqlWlwpjTtoRPc+KBX4bzDpWwD/RG0McfV/fjFkifF98IT4sExXy0zoljucTxfJ7ilHlS5StQIG3WeO44Uj475un9CHPE8P80mul0QN2RKqNFWG8HruaEnzh9kEtxOWDJkjqo8Nw6+XBiWK1xGhuLKbWvvS1F79F728rctG4pj1OeCO1ULwxIybPxosAnIjqEyomRMDMf71W2jb0ix2NqDvhI/okqGxGidvtVfuQpdpHnnteCnSoaiTAYqxtBLIn8gLhseVY8rO38GQDOU5tB2VMuFwGxJjKO0IICtQfSL1H4LQF2HruIH7kysmWsOpKYJBOAa0cCnKq7bgoI7UyZKs+0dkSwTwgfbHA6ia1YMS6iZ9uTI0P/hpXHUcHeJ4+oCAIoJhq4NhZbh6qapQ+BKwen2UJ85mtOHAmh50pKrA2i2TNBCL4C5uMqQ5fZMABA8DL20GSaYqJrURFcbYqKhNu+IyLA67vV64zpfSWXGl4Yo5g56NzsojVBRRaYNoa34b6+KBP0Xkgtty7+8AyE0veRJKGmWf7Lc1Fu+KEq3ZXiC0gM0vCNiX4C2lGjI1Dk+mN+RIc9Xvf84rjpK4UkVWRH0IAgFgsBCssHMC1Q0dBDGN0FewcsmEIzAFYCW37o6pq34RywQiplg5vhHtCYAQxFjuMhhvSHLpcYIzZLcePdTvmfYDsTM0FA2gesd0lzghkOFl5/+sqHqAtM3NKAdnEJvw8RXFoAV5mIAoK0mGYpLhuFYigZYfpSKYZCdtikEhmIrMHRQAkJDGSXDWjFE0kGmIWj6R/oQDvy/Uc8Of3rbhQ9SkmEZNcrRfKQJT5SQ9u5L04Whs2oo6XPDRROOGwL/bMeEph+rBUw1+HtuqM6AnmjYqPLVoEKLGTIoidWdP8+xMFTXDWHUSlF+sIbOEAh9b+xxvwVnkGHUStUmxnDER9maxgxH6Rqu5dBB42Z7bggVjCEzQIPwbKK4+iS4VgHBSBUYPjgJhqhAq4YF2sHPM1zLodZCY0iYDNQCBzhDpjMEAMBgrmf84cXtBC9Rft1gdFw2HKEOF46acUO0xOrtfDBdGEoxw6FfwRk2DHoWo83sYVCODRMM0WAzUBeRiSYUggkV/Uw7TOyoGq4Pvd8Z1w3Whz6NOlff/WNVmrU2W4guaPlNy2kBoemLDUwYZsWFQhAzMjSDBthu6q6jaZocSXrvjF/SaYreDOtUtL6tjsqyKIoyWgLz8/pMHnE8N9W8443K8e4FRcfwmiIql73aDAw7qKZRUd1iTtooMnHgCrolOc7Adf02KrYHEIJZx0Gl+sSEQJG8LPZtCN2mpfQnnbYvKVuCYE4kVeqDmf/uyY0DVMNw/Hg0nU5RNuc7MuUjNM+jtWIPHe9V+fHulxbllm4DYLcGzMDVdaDbTVVD1SQ65Hc7UWrCB9BqmVbYVYffvHN6Uy7r/lW612LbTaQt2LaNqvGJnzLNGNq6OTPdSdCOG9Vjjvfw92gWG1GodyLQcX+TpneUQl0qSx0JgZLS7qBX6H9Z9I9InSC2smT0+4O2tnx5m5HjV6mu7g5brm3DaDwS1c6k3+9EnbPcWFAqx8YSf5sx4fhPRZTlR8phTQEd1A3LzgSgalxbfF/qsf0knFk4GKNpwxYsYvc8sWiW3px/4YbrrlzhtIRm1Ixl0+xkGkwqqDMBRq3UsOfdMEeIEwBcVNKIsmoAS338G8hDRWsJc2Yp1hBMcphBD21g/w/xrdnO3+eBImSf/PpRKBQKhUKhUCgUCoVCoVAoFAqFQqH84vwHfM8r9BTGFAEAAAAASUVORK5CYII=;" vertex="1" parent="1">
          <mxGeometry x="-1401" y="669" width="65" height="65" as="geometry" />
        </mxCell>
        <mxCell id="Eb9f-dnprXw0Rj66SGwR-42" style="edgeStyle=orthogonalEdgeStyle;rounded=0;orthogonalLoop=1;jettySize=auto;html=1;exitX=0.5;exitY=1;exitDx=0;exitDy=0;entryX=0;entryY=0.5;entryDx=0;entryDy=0;entryPerimeter=0;" edge="1" parent="1" source="Eb9f-dnprXw0Rj66SGwR-4" target="Eb9f-dnprXw0Rj66SGwR-39">
          <mxGeometry relative="1" as="geometry" />
        </mxCell>
        <mxCell id="Eb9f-dnprXw0Rj66SGwR-43" style="edgeStyle=orthogonalEdgeStyle;rounded=0;orthogonalLoop=1;jettySize=auto;html=1;exitX=0.5;exitY=1;exitDx=0;exitDy=0;entryX=0.5;entryY=0;entryDx=0;entryDy=0;entryPerimeter=0;" edge="1" parent="1" source="Eb9f-dnprXw0Rj66SGwR-13" target="Eb9f-dnprXw0Rj66SGwR-39">
          <mxGeometry relative="1" as="geometry" />
        </mxCell>
        <mxCell id="Eb9f-dnprXw0Rj66SGwR-44" style="edgeStyle=orthogonalEdgeStyle;rounded=0;orthogonalLoop=1;jettySize=auto;html=1;exitX=1;exitY=0.5;exitDx=0;exitDy=0;entryX=0.5;entryY=0;entryDx=0;entryDy=0;entryPerimeter=0;" edge="1" parent="1" source="Eb9f-dnprXw0Rj66SGwR-22" target="Eb9f-dnprXw0Rj66SGwR-30">
          <mxGeometry relative="1" as="geometry" />
        </mxCell>
        <mxCell id="Eb9f-dnprXw0Rj66SGwR-45" style="edgeStyle=orthogonalEdgeStyle;rounded=0;orthogonalLoop=1;jettySize=auto;html=1;exitX=0.5;exitY=0;exitDx=0;exitDy=0;entryX=0;entryY=0.21;entryDx=0;entryDy=0;entryPerimeter=0;" edge="1" parent="1" source="Eb9f-dnprXw0Rj66SGwR-4" target="Eb9f-dnprXw0Rj66SGwR-11">
          <mxGeometry relative="1" as="geometry" />
        </mxCell>
        <mxCell id="Eb9f-dnprXw0Rj66SGwR-46" style="edgeStyle=orthogonalEdgeStyle;rounded=0;orthogonalLoop=1;jettySize=auto;html=1;exitX=0.5;exitY=0;exitDx=0;exitDy=0;entryX=0;entryY=0.5;entryDx=0;entryDy=0;entryPerimeter=0;" edge="1" parent="1" source="Eb9f-dnprXw0Rj66SGwR-14" target="Eb9f-dnprXw0Rj66SGwR-11">
          <mxGeometry relative="1" as="geometry" />
        </mxCell>
        <mxCell id="Eb9f-dnprXw0Rj66SGwR-47" style="edgeStyle=orthogonalEdgeStyle;rounded=0;orthogonalLoop=1;jettySize=auto;html=1;exitX=0.5;exitY=0;exitDx=0;exitDy=0;entryX=0;entryY=0.79;entryDx=0;entryDy=0;entryPerimeter=0;" edge="1" parent="1" source="Eb9f-dnprXw0Rj66SGwR-23" target="Eb9f-dnprXw0Rj66SGwR-11">
          <mxGeometry relative="1" as="geometry" />
        </mxCell>
        <mxCell id="6l73balVksEqhCGWfGKK-1" value="" style="outlineConnect=0;dashed=0;verticalLabelPosition=bottom;verticalAlign=top;align=center;html=1;shape=mxgraph.aws3.api_gateway;fillColor=#D9A741;gradientColor=none;" parent="1" vertex="1">
          <mxGeometry x="-2064.89" y="261" width="84.89" height="101.47" as="geometry" />
        </mxCell>
        <mxCell id="Eb9f-dnprXw0Rj66SGwR-52" value="" style="endArrow=classic;html=1;rounded=0;exitX=0.65;exitY=0.5;exitDx=0;exitDy=0;exitPerimeter=0;" edge="1" parent="1" source="6l73balVksEqhCGWfGKK-1">
          <mxGeometry width="50" height="50" relative="1" as="geometry">
            <mxPoint x="-1860" y="430" as="sourcePoint" />
            <mxPoint x="-1883" y="313" as="targetPoint" />
          </mxGeometry>
        </mxCell>
        <mxCell id="Eb9f-dnprXw0Rj66SGwR-53" value="" style="endArrow=classic;html=1;rounded=0;exitX=0.65;exitY=0.5;exitDx=0;exitDy=0;exitPerimeter=0;endSize=4;" edge="1" parent="1">
          <mxGeometry width="50" height="50" relative="1" as="geometry">
            <mxPoint x="-1826" y="312.97" as="sourcePoint" />
            <mxPoint x="-1769" y="313" as="targetPoint" />
          </mxGeometry>
        </mxCell>
        <mxCell id="Eb9f-dnprXw0Rj66SGwR-54" value="" style="endArrow=classic;html=1;rounded=0;" edge="1" parent="1">
          <mxGeometry width="50" height="50" relative="1" as="geometry">
            <mxPoint x="-2180" y="312" as="sourcePoint" />
            <mxPoint x="-2058" y="312" as="targetPoint" />
          </mxGeometry>
        </mxCell>
        <mxCell id="Eb9f-dnprXw0Rj66SGwR-55" value="" style="strokeWidth=2;html=1;shape=mxgraph.flowchart.database;whiteSpace=wrap;" vertex="1" parent="1">
          <mxGeometry x="-1080" y="146" width="110" height="110" as="geometry" />
        </mxCell>
        <mxCell id="Eb9f-dnprXw0Rj66SGwR-57" value="" style="shape=image;verticalLabelPosition=bottom;labelBackgroundColor=default;verticalAlign=top;aspect=fixed;imageAspect=0;image=data:image/png,iVBORw0KGgoAAAANSUhEUgAAARMAAAC3CAMAAAAGjUrGAAAA6lBMVEX///+kHhFjZGbYLCChHRBcXV9YWVtVVlnr6+vVAADcLSFgYWNqa21ub3GfAABaW16ur7CtIRXQKh7durixsbLs2Ne+vr96DADY2NjBJhpRUlXKKBzi4uK3IxfXIRGqIBSTFw333Nv19fXXHgzpmZbZ2dl1dnh9fn/KysuTlJWZAACjFwXwv7366OfrpaL88/PgZ2Hnj4veXVbcT0jutLLbQzqio6TkgHzmiYWYmJm6Z2Lp2NeHiImuQjvLko+pMCfidnH0zs3yx8XdVE3aOjC7CQDAe3jixMLRn5y/dnK2W1anKB3o0M/HiIVBaasCAAAKHUlEQVR4nO2ba2OaSBSGFQUEFNQao8RLotForbnHxKzbJm222730//+dHRjmPth0g7qbnOdTKgMyr+e8c85AczkAAAAAAAAAAAAAAAAAAAAAAAAAAAAAAAAAAAAAAAAAAAAAAAAAAAAAAAAAAADgxczPdn0H/y0+3BYcxxk+fNj1jfxXeHxwnJ5bQPQc5/Zo17eze+bHPadXYPScp9O3nUTXX5whEoKqEoWLO3TOP+/6xnbF0a2Dxeg9or/cKHPOz5Mc6h3Pd3172+fs9IlGx/ACRcyVc359lntyyWfO5bYNd9Kif44mpS1/eWyrQ5eZiEOC4rPDO4tzscVgGdmWZSZKnNhWWN3eV+cUW0VzvyNzvxT8FgXL1fW27sryDMMrx38uLMMwws62vhmVIpexrbJ5PzxyR6MA4o+621qdR7YRCREHSgXJYwSNbXwt4ujCESOhUDj+8PlIKGFPxeMojm62ECytKDYMm2libid5kI+SIHARNHUivuQixR4un9iQAnEcFCxCMG0CXpNxrMkW4uQoXm+JCDdXVzdDhwsaB8XCjdPrUec96B4edolw6KTCZks5XpPGVvyErbw95/KaGsTRKTPVYe6ILjpuvdvv1w739/eLB0QWd7OrM69JbhVaYXNz3xXBrbzOubS8zs8TJYYXd0Sedq1fQ0Sa7O8fdgssWIYbcxZBk1ynNdjUF8Uc3bAM6d2qxx+So70eC5Ea0yQKljY1XGdTVb+oyYaZO3xxpllXj7g6rVCo5RNFOE1QqNALvNvQbW5Vkz1+ysNjdcDxkNekoMRJv05Fdev+69DEr/OBoohyLISJ7CeHbZdTpFvUa8Lak8FoIrQqpdakORmlmQMa3Zy04vGiJnK/gwdm5jF7frHLqTIcHnP583gxFKIEewpdd2oFUZFiXqvJGLUncTXRHIeWxVqV0sKzrSAIrLDS0MwnGh0dtY1FKTfiNRmL/Q4ZGFYyWoz2/Hy+WDtgk0Nlyc357d3d7fmTwwq0XlStFM6P6bB2lzvHdQ9qxTxCp8kiwOVE0wqiYouUFoNVaBoJXhAuZEXI6Kg+C5eTgGki9jsT0/LoZaxMKrlIE6RKvl1gweL2YlwqhnN1e/o5ip9TFjZcxhXa+VgRvSZlXHauLDLFIPo5JzadMv7Q44uwwdgSjnpYPlvtdxahMNCqZFDLYU2QKkIKkVxBoXFx/Ugr1LlqLknS5H+gieExCewJqkXFqUQDQrY/UjI9+bCsSdLvNGzlMqPMNIlUqR1IklxIg29k1eKkoYqs04TddFBBmRHSaLctIgBNh0Ggl0TVpESlpWd44ww1UVIoihNh20hdg9p9ThAkyUzjlbwmpl0eI+fohMlvump2Sq1qOcmjIDmjkpzhWTbCZKcrmky95LLe2CADwxdrkpvxokQpxHlnvMdIS1OxekPidYuCInn/XvcFTBPPTkwA/6rWiijYqsTzMafxv6pBMrlptLx2qtRDVU1w5tiL6PNBwzKziZPc4F4QBcnSF4Il2pDGhsL7jZw08Xm/aL+AauKVEw0a8aQtfqlZsD2jQRJEzHRXQYompfisYEIGLkPTzMBPEPNP8uwkvx3G+yN3Q04SKWkiM6q7rqYMZpp4Bvkk4IKCihItNN4y+svEo7k0nJp6TTqxJjYb2KlWMyl1r296dTkLZL/tOU/MTNSkISI6Q80mCtEkJHc7sXjzIKy8ZHoWN33C2FsTJ944672UK9wE0hKD+W2XTyGXRImrCpinjbGj2UJJNAlo5TnV7pMNovlZo6SKN8UarmPr/cRLfKpSzXL3gBinziCE+paNSh/k/rZmLaYfeHjSTZFJGSvViPPElqaIA0XRpJGUdp5pheVFK5cNv/zGKvRCVwmWfltQRLWRLt8W19Lrk4D2IomHmoFE/OESR5FXkS6SKKXUbBW20CNdgmom0bL3vsb5qdtWg6WbdHqukl9COYMU0feAWBNmhCW59OTwVrmTWJOpdJFJyr79wDD5880wi4YH1WxCimjsolhr1+v1A+nzOGnknErVJF5RMJ01miAbibPEk1vC9GcZq1Aoeq1VJprIP7hcnUbzL65frkkErekB6b+TOPFMFcsa/GScIEarkO8FAvnUf6mJbAyq30oaiUnDIug5muRCnCVVlchzsJ+UpYuk+UnMoDn1bFrthi+2WtrvCLmgMQ9OETlp2MBnaYLD5CTlhvjZMyr6dYcxmCyxTadf+dnwPaDUAmqDRU4aMc3e76nfoGiyjOcXphSceEfNXIofptQnIk28Mr+4CZy/l2b8A7/t6pMmZqbdelQ0wX7ppZkh/rXF53xlfR2LrjXhh3Ww67y4rH3nz8Rp90W/5VKoyD3J0XjO7A9tdaBoklSflvhLl0jc4H7HMLk4WqX0O4OybdmcKti+X65JbvB1tq4QI3MvciW8mjT4pAvdM2NVkyTGbS4/OkYYJnUa6YstMtnBmNQgsiaxVvaU/hQnOCtfXridPml6Or4FdOvtbq3WPeALXn1ODR3Nm0uqJqT6NL0mvv3OMioygqQoIQW7PW52BqXWkhUgsiZka2oZb7Q08P6mUgP/PDcOX2CwWQrLrcv1PeuawNQeUNSEbhmadnm1OrHwFhndDRqT3YXAttkaq9GExI9n2aFtJ7ss1oufaCQ94PNawHicunPCXi5I7QGlNnjCtqg9unvN1hqD04FH1kTZoc4mTFgPqP7+Uguoiyfee5Bcz6pPsCjKtAO2aSh1Mama5BrKZbzg5W6y977PGYWmqud3UdY0gbjj0WlS0W6XdDxx2sgU+MMr8fGP6XHuyb+n1CmLD4ICI4N9tqgH5FXRlSQHsaHIR8QmEKupfQ6Y8lpR1aZtimfa8l7ZxOAe79nVXCRKkhZV4YJNjw00s3lFVOkBNVU9mn2tlpcV4ZJmbQ+YO0l7rah5EtqWhfyxvNCUFJOphY+eRCd3kN+SGIjeU+JrwKmJB451j53/BXwPyKfBuhZQEvEHPeDa14o6rVYrvcQqjbijLbYhr1xwMFp3mZ+Few7IGapmy41XhE8aYTNyY++fbBWhBxT6u5Rg0SdNgq4H/P8h94C1dX4rrkPKcd//fdfTyYZ3vvgccJ3f8i2PYjq+/3WzbyNukbPvsiopfsspoi5Ovv/9Vf3/r7NvvmbDgEuheEOWK+HVjZPZt11PInve/SqrImwYFOprVuqZ/+urWG5U9v5QUojfoJUKVj5p7l/FYqNn8C0vB4v0jo7S8cx8/+OrshENv/+p81tmrG8laUTmHxW/reEeUH4Q+LqTRkLjt/1aX3wS+BaSRmTvqxwsIjP/05tIGolvf6WqgpLm713f3o74+17yW6LI9zf4f9ApZ4rfvs6C9ScR/PaN2ojK3n0SLL7/6ZVsBWTA/OMnH+ny9a0aaxpnb6sYAQAAAAAAAAAAAAAAAAAAAAAAAAAAAAAAAAAAAAAAAAAAAAAAAAAAAAAAAAAAeL38A/5a7/09hx+5AAAAAElFTkSuQmCC;" vertex="1" parent="1">
          <mxGeometry x="-1069.3799999999999" y="186" width="88.77" height="59.07" as="geometry" />
        </mxCell>
        <mxCell id="Eb9f-dnprXw0Rj66SGwR-58" style="edgeStyle=orthogonalEdgeStyle;rounded=0;orthogonalLoop=1;jettySize=auto;html=1;exitX=0.75;exitY=0;exitDx=0;exitDy=0;entryX=0.5;entryY=1;entryDx=0;entryDy=0;entryPerimeter=0;" edge="1" parent="1" source="Eb9f-dnprXw0Rj66SGwR-22" target="Eb9f-dnprXw0Rj66SGwR-55">
          <mxGeometry relative="1" as="geometry" />
        </mxCell>
        <mxCell id="Eb9f-dnprXw0Rj66SGwR-59" style="edgeStyle=orthogonalEdgeStyle;rounded=0;orthogonalLoop=1;jettySize=auto;html=1;exitX=1;exitY=0.25;exitDx=0;exitDy=0;entryX=0.5;entryY=0;entryDx=0;entryDy=0;entryPerimeter=0;" edge="1" parent="1" source="EWTi3nRZQ3Ram_rcYh2X-24" target="Eb9f-dnprXw0Rj66SGwR-55">
          <mxGeometry relative="1" as="geometry" />
        </mxCell>
        <mxCell id="Eb9f-dnprXw0Rj66SGwR-60" value="Amazon SQS" style="text;html=1;align=center;verticalAlign=middle;whiteSpace=wrap;rounded=0;" vertex="1" parent="1">
          <mxGeometry x="-1140" y="374.97" width="60" height="30" as="geometry" />
        </mxCell>
        <mxCell id="Eb9f-dnprXw0Rj66SGwR-61" value="" style="group" vertex="1" connectable="0" parent="1">
          <mxGeometry x="-1200" y="632" width="111.47000000000003" height="95" as="geometry" />
        </mxCell>
        <mxCell id="Ew_23fBss7E3DuVcSk8F-1" value="" style="shape=image;verticalLabelPosition=bottom;verticalAlign=top;imageAspect=0;aspect=fixed;image=data:image/png,iVBORw0KGgoAAAANSUhEUgAAAMoAAAD5CAMAAABRVVqZAAAA21BMVEX+xRT///8Av7M0N0Ht7e3u7u7s7Oz29vb6+vrz8/P4+Pj8/Pzx8fH+xAD/yBIeKkPOpSclKTUXw7jt8fhq08udnqHz9fm14N1hzcSpqa3C7On48fL22ZX/46HQ7uvC4t8dIS//+OQbHy3U1db41ofv7OL/7sP+yil+f4SIiY4tMDtDRk9YWmIjJzP41Yb+3pL44KX468n8yjz50mn+0Ezz4bX//vbw6NP7z1nx5sn+9Nj31Hv/6bT/12ru6t3/7LvdypkHGzi+v8FOUFjIyMpqbHKwsbSTlJcLEiSt1hfuAAAMWElEQVR4nO1d6XrbNhYVJ9xAUplROVbHbpyxI8exG7t24tRZmknbVI7n/Z+o2AUQ3IkLivyCP4HIG8pHuLgbDsCFh1vsB4Efk16AW0Y6EbmUkh7pRKSD8D2/m3hgiiMpTjqpFM9Mcb+b+OI7lH2Fku6+zA/8wt8Wyr/NL4PSRZx05N8WFv42vwxKnbi/E6ffvEhxSxBuCemRDiKdiHRi3IlJJ5KX2osjK+JRe/GFjxtiv6LvM+gh7iQMus+gJ+QS+9FrxANw8axG3F9U6G+iKWSiTgUmLmdOb3E50YaIK/NyTlCkgq1z3EjHy+Xf1lYF/GEK5ndTsHJxf5EkSZxE65ubs1/Ozs5ucDu+/fXN6f2aNHwziUiLsZTs0EuJdol2iHSC2oqjPuLmPXkp4cY4Xxbb4u3dze+ndBR9YV1xI52YdGLtl4q0X6pKXGpApA1ppGlAH3FmjNnHfLkoNobo3c2vL/N8renvPrvIUig7QG/P3kwGShpWQhF47s6xNeDDHJOpKFWAQQn5PaJgIfuyUCiYKh5WivuGOOkgTTzVxAMpzhSM/1K1UDiaN+oPK3/0lHSkMWY2hlxKPRvicZO47lf8FlAomlfH97mIi5BvWP5yv1IpXuEo+ooHbUdFoLl7n++ti2w/KhzMh49rN6MSdhMPFhluKG0NhYL55OFolfxHEpDGpMMiWfooEq2SSySSTTNxCbUWjyrEM008NcVbWTATzJe82YKZJqmjuIxLWlow+rHar1SB+e1eG/S98SudoRAwn/cSSkcF42DenRZiMKExfkFjaoIqrzyoCrvFYFzBWMC57g4FD8zxWgbE5Z12lyyJi3ylBxQyMPfl+UpDAuK3SkA6ivvdXKQ5MOf75SL7Q8FgfqMVpL2AMkTBKJa3LwObFZewW8UlVBSMudQeFkxiWWLnH1V4YOmddYfdKB73EJcJcW8oGMznUr8inEFFubHoKPwyv9JSfIC3L2K5WQd74iKHQsGTP98XKMFAKIvl3ZpBIV8WFKCQTgGKGMQO4p4mnpnixIKFQyyYwPK/BpMUdrNg5eKVFiwc7CJ1LGP7FVtQsI7l40MZ5CIVLHju+wUoYV2GK5aliHg4WDxY0MWXOLUAZbF8tsaPwo0t35AeezpubLVHuxeJe5bE++crZVjOS/OVkoS4Lr0pSYjr8pWBCXElltPR/YotKIun91NMiEvb8l0OrWDVFReL055iOUvbzmOkXYoHi1s0xhzLeS9jPFzcoouUWO4n7+0llA8jJsQ2wkkVy+0aKJwM68NJuxaMYXkJacEcuUgO5YMcdPb0SbpIjuV8NCgDyxQlzbNepqjlXO1IVDGyDGV5Y4tE1U48VklUlkdl+cUfjURlG8pdPgMXybG8n17NuArKXQfOVcOiRAcSVc+logYs72vWd6KmS+3vKUtFMMaYzpYWC3huSFSDsXyZg7dnUM7ySSfEantaE06CUBCAjPGCLrt0JFGlpngdiYqKg1QnDSjv9plE1RHL6VRrxiaUG7ejQtcuYaAsXnkBfXqaemQZNKBROL4UkMDXy/g9ujJK76VEPJLiXqm4VyHei0TVui0/OrVg9COEXyFQztjTp+4iSXvlHAqUghEb1otE1TEGG0yiagPldj0g1O0aGQPlKxzKh9xCvuKERNWMZQYJsYDycfoJsYBym8NWXKySqOqh3HnEmSOTRIU4IxoprCjOiEYlJCq0I1BXiYMlxLy9mhiJqqYt72fi7TGUT/OB8nkQlGoFK4Fif9VLh/JLPjkSVRWUD/lMXCQ2YU6hALpIPCy5s3V7y2wKE8rLdvSIVuQLdySqUiinU14h1qF8motfWSzPU5dQQBXs99SVgoFP+9u1vWnvlkRlQHkmd4ROjkRVAWUG3t4hFOBwUkJxEE4ygwZowY5T1brCZJGO/MqxU78yIyiAZQo3CqaQqMCKRwTKOkOieIQ7vBqEZPEIiWqQYEWRS3EPceCSnuIi4Ut6M/IrM4IyhoIBLUqALhUt6LR3tVTEoMMaY0cLeOzjbFzkjKAAK5grCgIkMYRCwRbMJIZ4nOmRUaZH0EQM8TRiSLl45jIhnjCJSoMyh5rxLEelK4PQFEd14nOyYPTjfPzKjKBAJ8Sdg6p+RPY9iIxtbS+YUb4yLxc5FygTr7ioCgaymVCFcrwu3x1Ii1eksNVuMyGrg9VuJnRhjG1UJ1ts8WQfZ+MiZwRlJhWXKa16NRwdMCO/Mi8oc1m3B2dTPGvHprBwJI0DC2aX4/I9IZ4elEkp2Igkqspp3/EAumbu5DSNcemxgPNykXOBMqVwcnQS1Zr81t2Omy3abnWMSo6bnadfmRGUKZQp9oREZe0Y89IdePIY830r6Q04XF74ladArdqvsMVuaoTI6jX9c+nqNVEputhNxMm9WIjzBTx+byeuuch/gbU/SqDEz4+Ojn4k7eiI92Tnx6OGe8alQs34z38CtT8PEkNj/PQ//7DYdBKV9/MToLY6TM31ndgmlB9SjUQVQSHBUDyzRmcXyk9aQpy8hoRiuEjLUDRvH11BaZhjKFjBIKGYCTGMgvFXlF2AQTmINWdOHXb6b5tQvFQjUT2u4KAwY6z6FctQ9IT4EBpKAApFrRl/vQaG4m5UNifAUER+QZlPMKPCLFiweQEFxZ0F4+kLAlMw1y4yiP4CssauXSQOjaAci4sYTCNRRTGUNVYi4xgoMv5JJ1GBmbBVSb4S2jfGSkLsITAoLl0km4pA894hFDkVL6GgOFMwQURKgEIXbMFMVpTlac+evhCDHoQwk0X1K7LcCGOMuYvEigwzWdx7ewzlAMSzOE+IyVSEiSgL4WQIGE76ou4aZRBIpAULQS2YSqLCUBCIOR7DRUbZFsKGuU+IiZtBAEjUhDiEg7IjUaVxnEYohrBhpHhEn068I+5QCoTt4pFKomI2JgSwYe4TYmb5H+xP/DFcJPm4tT8sY7hI+tF+Qd+hgtEklRGR8L/frIfHq4OUPh03zorCHbvTPmWZ9i5foTG/ZxuJma/QvVmgCTFf5z+0PSyjeHtW1bVtw9wmxBpvyfZscRhOUoNCQHH+GLJsxLAFCwwSlWULFpT4FQLlm92gciwXSb7M8rKk85qx8mWZ3WzSYZlCLnVKmlN6aTNAxlBMVpRlKDqJSrExXmhTw9xYsDIXSb4MfbWoYiO6SPJlkcXFljFqxkpVNwitISmtGQPFYJLhpO5lt1gTWx2m5k752G5kzB4q8xVujEVG8WgrfhkrId4R31NbjnJMb885/Lamy2gJsVSwKLOU5zsnURm85CT17HgXTqKK3JGoyo4ZOrARIzusTlZQ/qkzuLBgxsapGRtQoofhgaV7EpW630XmlCi7GozFGBVoEpVpwTiHfzAWh6teFX4lEttChmIZ30VKKN7A+eKeRFWMwSJ55AN6GGTHHJKoGjfDRunlEF+JI2Nzo6x1NgV5Zmm+4vPDn8Se428DsIxAoipzkXKb2/a6d5w8ckJsQPE2r/tO/pETYrFTTG5qT4LgoqeSOVQwbY5zmpO64Z3PVRwo91MyZdqnwNNeDjo3xoFf8Cuh2FUZXvWxymOQqKpc5G4neHTYY2D2ydsrm9qjzUPnGTNmQhxq4aRy9CgK/QBtn3Q0ZWo4GYKTqFpYMAksyx67adm+uUj1DIUovDjpAGbfXKR+ekQaXrxoDWashLhw3kiGTXMBCj9vJLw8aTlnnJOo+ImISJ6IqPOCdyciCnEvPHjSSs9E8Uh7OjyJqiQhVo7ykTNXnM2zfThZNaIZv2Zc6le4uu/ENwd/NaHZUxdpQMkQ2hxcvagzz3tQM/YbFIxrDDlWBX29fH1yXTE6rklUw14kkuC4Odw+Pjy5Plmtfi4gWh2k5qNsLxWVkKgqEmJ6GrLfeHgy2mwPHy+uXq9OZLu+/r+7UxB6uMiqA5ayIENMFTebzXZD2na73USmePwct/+S9lz0nmuX6u4ZlwZ4+2oogTiHiJ8FQtgHteL6kf/ULrATQ8SjaF02NsU9TbycRNUQTjadFQUr3uIkKlnwlm87iMQvVfVyBPOsKOfiuzGqoOtU+xXf8CsdxWVCbPv14xa8fZN4YIqDn0TVf1SKVY3eo+IPHhXx0h1KopJv0aHLoMpbdFLxFh1P5Vx1EI9biyfdxYMqEtUULZh9F9lJXCqz5cMa5wCldQzW/AKLjuJN77vo/HoM2FfsuRSvIlG1zVc6HYXbUbzdybnyD52bi/wOZc+g/A0d3eKX6dtUggAAAABJRU5ErkJggg==" parent="Eb9f-dnprXw0Rj66SGwR-61" vertex="1">
          <mxGeometry x="74" y="6.080000000000041" width="37.47" height="46.19" as="geometry" />
        </mxCell>
        <mxCell id="Ew_23fBss7E3DuVcSk8F-2" value="" style="shape=image;verticalLabelPosition=bottom;verticalAlign=top;imageAspect=0;aspect=fixed;image=data:image/png,iVBORw0KGgoAAAANSUhEUgAABLAAAAKICAMAAABXBvMHAAAC91BMVEUAAAAjHyAjHyAHpd4Hpd7XoikBm48Bm4/Xoik+vrA9vrDwvxrwvxostcM4u73ptx49vrDuvBsqtMPwvxrtuxzruR3otR8+vrA8va81urg+vrDwvxrwvxrotR/ntR8jHyA6vK4+vrAHpd46vK7wvxo+vrA+vrDwvxrwvxo9vrDsuxzwvxrwvhrwvxo+vrDwvxo+vrDXoinwvxoHpd4Hpd4+vrA+vrDwvxrwvxo+vrAjHyDYoyg+vrA+vrA8va/wvxrwvxo9vrA0uKvwvxoHpd4+vrDwvxo+vrA+vrAHpd7YoikHpd4+vrAutagHpd4jHyA+vrAHpd7wvxo+vrDwvxrwvxo7vK4UppojHyAWqJs+vrA+vrDbpifmsyDwvxo+vrDwvxoHpd4LoZXwvxo+vrAjHyAjHyAYqJwHpd4+vrA+vrDwvxrwvxoHpd7wvxrwvxrYoyjYoyg+vrDwvxrwvxoIn5MFnpEHpd4+vrA+vrAbqp0jHyAjHyAHpd4+vrAQpJfwvxoHpd4aqp0Hpd4Hpd7YoygHpd7wvxoHpd7wvxo+vrAksKIHpd4jHyAjHyAjHyDYoyjZoygHpd7wvxrYoygjHyAHpd7wvxo+vrAjHyAHpd4Hpd7wvxojHyAjHyDwvxrZpCgHpd4Hpd7YoyjwvxoQoKMMi7ojHyDYoygHnpIjHyAHpd7YoygHpd4jHyAjHyDYoyg+vrDZoyjYoyjwvxojHyAjHyAjHyAjHyAHpd4lsKMVppoJoZTYoygLoZQlsKMJn5MGnpIpsqUjHyAjHyDZpCghraAjHyADnJAYqJzbpycgLjXmsyDwvxojHyA+vrAHpd4Bm4/XoikDnJAjHh4Gp+EjHBzvvhrZpCgGnpIIodk/vrA5vK4YU2rcqCbtuxzgrCPqtx4RpZjksCEnsaQgKS8LoZUiIiUNhbAYqZwRcpbmtCAwt6kfMDgstKcIndIerJ8UY4EKlMc1uawbRlchrqEdOUUPe6ILkMAXWXIcPkwTaooVXnqoSx9oAAAAzXRSTlMA9i73LjfmN+bnN+Y3BQICFhYL9w8ECPUPCPz7vCUU5RLj/SXk8dyiYSELwSA/vHRL+/CzEPnrrpF0FtvAkCzbTEMc8+zHtrBRFvPJoEsfBNN6WldSRj3c1cqWX0sd67eKJfDTzMS5kYd7ZDXp5c3IooFrain79tjXqKBoWDYy6dbSuvK9taeXkoOCcF1ENwnryZ97V/Dfm4h8UkAsEg/ikEtHQTAq/fvPxaKZcm8gG72bauLesJqTkGdWTNbCr4JzZV2LdWE7KtqCLy7rQ0OzMQAAICpJREFUeNrs3LuKo3AUx3H7BES8NBqrgOIFwUa7BAI+gGg5g5AyMimSB7ALqVNMM5BmHiGv4TtttpqdYddJsjMTL99Pa//jeM75HwEAAAAAAAAAAAAAAAAAAAAAAKBnRFHTNEc5M6UPTOXMOX8WRQEA7kU1H7YrP0/TzeEQW1bkni2nH1TuWWRZ8eGwSdPcX20fTFUAgB+gOqbkreb2obAid12dHsP6CuHjqVq7kVUc7PnKk0yH7ALwHVTpxU83hWUsy3Ah6/V/0eVFWC4Nq9ik/otEbAH4IprpvWbBLllXpVx/Obms1skuyF49UxMA4Fai+jBOg+dkdnlFdXvFNUueg3T8oNKcB3Al0Zz4mzhZHuX6B8nHZRJv/IlJagG4tK76nVUzWa/vQpdnv1OLWgtAM1F6yfZJVer1nellleyzF4nQAvA3qrLaxMbx7ln1Rj8a8WalMEQE8I40tndPI7luHXn0tLPHkgAAZ6KztWOjrFusNGJ76/B7CAyc6uWHZNrCyuojeZocco+/Q2CwlIltPYV1Z4RPlj1RBACDY/pB1MamVTN5FAW+KQAYDlXy9+607qipu/d5fwgMgyhlxXpRd9piXWTsaAF9J0p+3KW2VVNDK/bJLKDHnHzvdry2+tPC3eeOAKCHlNeg3dtWtyiN4JW5IdAzqmdHne2yN5tGNvtZQI9IeVx1boPhcnIV5zzeAXpB2wZGL9rsTUIj2HKxFOg6c/7cpgMM30c/Ps/ZKAU6TJsERo+mgp9ZGMGEMgvoJsWPZ4Mort7os9hnaAh0j5RGo3qARlFKAx7oFHESuD0eCzaT3WDCCjzQFdqqWA7sX/A9fVmsaGYBXaD5u56uiF5juvOJLKDtlLnVu/c3tymtOf13oM2ULBrQGsNnFlFGZAFtJdn9X2m/TmjYjAyBNjJtY7CDwX+TDZv9d6BtJHu4ewzNZJcqC2gVJ6O6aqqyMu78AW2hZBG9q0Yh7XegHZycuLoksrimDNydOrYea1zg0RpzmBS4J3FbnGpc6FRseWMI3I0XzGpcYRZ4An6xd8cubUVRHMffEigoPCTRJZpJUExFzKKQwYDg4Chks6Hg2GJa8g90CZItgYJLoUI6ZHCQ2LWjS2mWsyRTanH0n2gSQ5K+5pHkvvfuu/C+nz/icO65v3MvEIbEdjrSK84qkultpu+Afon8AUkGBfGDPFvRgF6pZu1XuwUVS4dfLADarNbL+9J5omIputgj+w7osnHzSvoef7egmH3PkcoCdNh5aMhQ908LagpXRByAwNmxD6cy0nnmWKjqosQzDkCwUrdZmdR54lioKn6wS/QdCI7dH7aPMcjyaLNCjhQISurjvYwxyPIumc4RygKCYNfvJtsrBlm+KBxuWAD8tjJurxxIZHlSPCPhAGhpr4Y6DLI8yNBkAcFOr5y6VCx17UueUAb8E3NcDjJ691nmLdeFgD8SzazM1nluQVkynSOTBfhgoxdtd+Cy0H/vKyxEA16tfW6IA5eFgUieLLNdCHgMM1TFHal3X30vMXsHvE7bqVi6xK8JOADqx8GsOHBZGKxintk7oGTl5lSEiqXX0h6fVACLswfHQSqWbvEtjoXAolZ7x0E1HSqWN8Uct4XAQlLTbwcJZOmwybEQWCwsui9CxQpL/JpNHWBedr0mUxEh1aS9vsuxEJjL2kNWhIoVrqNtniIF5hpfnYpQscKWqfCpDjDf+IqKFb74FoMsYIb6D3HHmo5W6V0LgEL6SsUjPZZHn85Y1AFc7dxWpYceyxQFElnAjOVBeixzHB/yrB/gMm4XESqWWdqsFgLTxO7kBadCo6y/swA4nDdkgB7LNBd5Uu+A462+e3lBj2Wcr2ek3oEJa82qjNBjmaZQomIBIwm3bRwy72bIVIg3AEOpf+IMVCwDHV8RbwAG3ji2B6lYBkqyWQj0vS57q1d8Y69F8oRAFmD9LMt/qFgmOvlmAREXq8lC+JkiPEUipIg4t3pFxTJRcdkCostWjLfzX2FILgm9I8LOs+KKimWio5wFRJPdq1c6dVnS8e6IX1YRUfPUK9YKTUOPhWiar16xVmiav+zdsWpUQRQG4NsE7JaQbJrdpBI2xEgwjUKKFAELy4DdbgjYawI+QJogdoIBG0HBJkUK0drSRrC5TR7AF7ENVu7u3OSc2e97iGHOmf+cccdiEY332tsn8u7EgiznlQCpEwvi99vFsZxYkOx+Jdyg8w557lfCDe5YkOd+JdxQyv7zBhbC0mU7LeGGcF6ahGYhzDbvbJ9fNHY3sAh+zXZeCTeE88p+LKq3fd7ePeGGIp7amkzlJhHOK0+FTiz4DxsnbQwa7yVcj/ylQ8VWPz9qg9B4L2Hwxn+FVGvt9FkbhcZ7EQdv/QlNpda+xTmvzOgUsusXe+rUu3jXRqLxXsTRoSEdajT+3sai8V7EJ0M6VGjpsg1GG6uMFyLvVGf9axuO/GgZQ5/YU5nlKAEsbazSxLGozlacAJY2VnmDJ1sNVKN/FSnQcNOf3xRwsNNvoBLRAg3aWIUJN1CTL3ttWNpYZZw9bKAKkx9tYNpYZTywuYEqhNnQII3VqdFGA+lFmng2VNihFXPQ5Nf/Gfy8UhSWsrvpqZDsIjfcZRvK2td4J7lJwIkc2YauDDXeSW31JGbCXbahE4MPFpCSWO8qxXllYXIpZ8agyasXbgWWorBTR4fa7uS1fvd/pioKb9HBjmADea3GTozKNhS2cmxnA3nFXdGgKOzC9UjHncTGYVc0KAo7MBhNGkgrUQPLS+HcZLDIbStTA0tROLfhxwbS6oX6NFVR+A/nFdy0lGCE0ExhMcPXDeS1fN4mpCiczbX7Fan1T5OM5Ahjzc/9iuzG99qUbB+dnv4V2cVe4q7v7n4F8X9NVRR2YPDYeUVuF/kSDfruM5FvJ790EXdF4cxWjn2VQ25riQtCYazpHL0370xymQtCV6yp3N+0/4rktlMXhH/Zu3/VNMMoDOAugUICUr6QRT8nQWkiQpZkS0DwAoIZFcHRYIb2Arq5tqTg2EIdOnQoobfQpeDi0q30Ujq09C82sdt73t/vIuT5js85r7n7Fmbn7ouSuINX69SZu99LrT6tQOISO4IlYv2vYuGcDMlLtzL6K333O111jdtJXqo7hObuW5oNjK9I3+tEdwhVG7Zst9seJIBGkkdlzN23tHujLUoA1aSeyfmnLys2uT6vViB9H1O8Mipibed47jV6Qkjv2QnVhq1NLjyWSgyp7+SIWHfqtZYVCCFGBeuHzyLWnz7NLpSvCCJIBcu15I1Gp6ZXhJHku17ao/dW1C+dZiCMg0gTdws6f3nafViBMF4EWHoWsTZpnj7RvSKQxrt1PBZ0vumddGwOEkn1bayJu4j1U9Ef+G+QWMo364hErFVx2Da8IpholQYRy88Vge0EuSojYvm5Ir6AlQYRa3V8cuHniogi3HEXsX531To3aiek/Shn+0Ss72qT8VStnaA+RLrSoO6+GvXbaqKEFbIzmm3EKmbjjotXxFW9jRyw8opYxVlrcCRcEdkwZmc0v7tYtbNWu7SCQ3Ahl3Kyu4t1PGm1S5+ChDd8vg4ufMQqRvWxL0GyUA26lJPLdfda83rRXjZ8CZKHMtqd0Xwe0Kn1XtbH7Y42O/mIuvUcPWKNJvV59/JoX7IiKzkErDj7ObWiN2pO+vPuoFPauyFDtw9y8Ky5m7T3s9lh/2RxevN4sHfUeGTphlyVO1mY7iVtWZbDfZ0FAAAAAAAAAAAAAAAAAAAAAACAr+zbPWtTUQDH4ZuXtRm6OQn5CunknCUEErK5OihZnDvUDiGhdIgKAQNmECLopm7Vb+AgHO5wzSA4hopQhFJ8w8HWRlOrH+BezvN8iMM5//u7AAAAAAAAAAAAAAAAAAAAAAAAAAAAAAAAAAAAAAAAAAAAAAAAAEX1okz5zZNqjnQ6nVZrs5YAl3QPSpSWTyv50dzeHowak/3eeF7d2nBuwdrzm4Fw+DHNoUpzOmj0x7udzQQ4c/dBIGTv09yqD9t7vcetjQSiV3sYCGHx/VOaa83BZFx10SJ2928FQsiOPrxNc64+3XtWvZJAxF5fDfwasXJ/YJ2qTCezTgLRulMKnFp8e5cWQqXd9zQkVrWXgTNZ3kesC25P5lsJROiaCWtl+bUIb8KVZmPcSiA690xYK4df0iKpjMZuWURnJ7DyIy2WYWNuyyIu3YPAucVJQVb3teFkN4GIPLoeOLf4fFygEWtl2hM5EBET1h/ZMv/p6H+MZlJSorGjwlorRDr6j+b+jQSi0H0V+C0rSjp6WXvmv2iioMK6IDspTjr6t2ZflEUMyiastezoOC2oesPnQn6yd/eqbQRRFMcXb55kX0Gda3UqhB4i4Ea1CrsREUaNZAgkkBgXduFAQuzKhNQxpBumGLZzKRzSuVE+nCL+WnmtncH1Pfv/PcSwM3vuuS2w88FhZfHDmzXmWgh9dGHVXV6bfHW/1x2QIoW4/plD/dXd8IHl8ymRLGg7JTZqPOteV3TIN0DajDf3urC0VNgQMeHpHcq2eXMXyLrX9PbZCQZZxEbX/TJ+YPnRUQaIOiA2+lS48taNDvnGgqgT3tyfChemX935xoK0OZPPdnvdk8a8vEMTbaM6wzk1vRcZIIg39zXB8nDOowl5LAjq8+Zuc5vqs3Ypb4Aecu5NVxIHVjFlrhByqEduKC+8hFefCTdADUvqG0qzHX5rhocZoOXcYU2wuDknasyvQmjZYyVhJNdwLHJg+V32QkMKgzkRl9bHn1fyARWkUMJgjs6qr5jhfgbo2Hjj0GB//HllQgMphPCTUHT8uVJscSmEjnPa+5qC7ZZkLoWQ9cWhISxFglh3OozoQAWThLp9DZWcwDtUbL50UO1rqIzobYCIDVINEWFhvtadd3coYsWXcsFM5S31o9BAqiEqaBTMrLzmEwsS6EeOKv94KUQbIKH/zSGiFEqO3vlElx8E7H10UG7EqnT5xIIAuhriwl+VRixesSBkk1RDIjn6W+zA4kchBJyQaohbyFT4kcWCjjnlMuoVfsTdoWNGDCtBKup+q/iaAcZtc2Al/PRqJtS7w7p3tGElXHs1hEdhHrnRlH9eDs/usI7caEIQWf5c16PID7b1zxzkW90r+VEGWHZAfV8bWt0rU5pHYdopB1ZCuRQ8sLgTwrbvTOYklFJrKB50uRPCtDmTOa1YQ1EZcCeEZTMmc9LTz15Ph+woLOPASh9Yx17PkHlCWLbjEBcWctPPN/L3GWAXB1a7DqxiKwPsYgVFSzYTVjpUu/9n745VnIjCMAwfsLews53LsLaRhQ17IVtbaCORYLG6ICgEWcFGQRDLxdrCbphiyB2IIoggokIstEg5x/4753ku4oVMZr6fYNuRZXNjlwkP7nmIRTDB6ixYblEQbHU50sft54PhrEAqR77+Y99isEzMEEyw6naNHas/2HjqTqxz6zK9BevIu+7Eem6sobdgnR4XCCVY3QXrpnuqxBKsul2Dk6P/rH2cQyzB6i5YV1wnJNaF/b7egjWcFAh1w35fb8GaHhQIJVj9BetxgVCC1V+wNtcLZBKs/oJlJZlYgiVYEEOwBAtiCJZgQQzBEiyIIViCBTEES7AghmAJFsQQLMGCGIIlWBBDsPoL1sYVClIJVn/B8vEzsQSrv2CZlyGWAb/ugmXAj1wmkrsLlolkcglWd8FavygQSrCc+YIYgtVdsJ7eKhDKqfruguVUPbnOX4/0FazNtQKhBKtu3jcZrJOrBUKtLkcqPn1pMVjDWYFY25Flc5vBOvUnIcEEq7NgHR0XiHVnZNn88VeLwXJGlWR3R2rB+txgsHxJSDTB6itY62cFcj18MrJo/vpyas9tj7BIJlj1YP2e2uO1UaI9suBXDdb3qTnDO6+NkuyDBb+K3c9vU3O8hUW2t+YaqsFqcA7rvl+ERLsQrIr5R3vB8lID4Vb2ZSrmBgdHjfeRzlxDNVhTc9xQJd37kWV/ptYMb/xHSLjtq5FF+6k1f9m7Y9wmgiiM44vXNYeYK7hzvZ0lVj4CDXLj2oVDYTlCLhwjpbBEEEhJQWMlVBDoI9GtthjtDSxLSBQgFHCgSBE5tjeTA7xv/r9DjHZnvve9eTMBbBs+KRD0vVRzzJJ6WHfEgfUIubKGlAVfMG/GbE7YSm72+ZB9OTDvgtmcsOUHsQMr5cod9rWZzXls9lnswBpR1AD73r0oEOBvfokdWKzLgQAWfYVVv8Vmn0fPE8C8nORoUCU2meP4wIIE1lAEVetSyoAPLEg4IIgV4rUW1fOBBRFH5Boi2PvMOkKIaJBr0N9KOP6aABLaVPiFl3yVQuiVgYqcIJb8Cor+WQKIuCzwgFdaQeF61DRAxhWNWOKN7h0iDdBBrkG80T07SQAZDQpmAn6WKtyE3V4QckGuIUAnhkUEC1Loa5Cu7+ufknGHktefC9T4Hyr1fWmXF0JouSpQ469F2rDcMb3IEMMzoW4bFokGyJkx/lxXiax9HrxNADEfeSZ8QKNcJpty4Q45TBOKlsuMz7lwh6AvBQS7GtIeiVEooiVZsavBLeiUgaQZz4T7/I39R0K3INAATQznCI4+tzivIIrhnBpvfvTZtQhgQVXOrXuN9UJ3t2DiGbqGdPjt8kvjo8/cX0Eaq772+Ou/pg+scY/zCsrIuu+pbPcjZ13yV5CWfyqw5deWP7DmU/LtEPemwNbqn+EDq3PG/CDUHXDrvsPwYI57RZwB+hrcuksM5mRdrtsRgTbR0S1vtb3PdU64vkIMiI7u8Gubj4TjCb+DiMSQ+WfrK75GU9IMiAU1ycZz7hmfV4jIe6KjG5XBjTnp4SmfV4hIznJCwzn30TmPg4gLraP3/pe2zHv8DSI2XGJtrP6UlvQnL4m2IzoksTaWhqoa3GDSJHqFCD29LGCszz3tdJt8XSFOLKy/U1mJjWat6TOOK8TqG5dYt+zdPYrCYBAAUDXW9tvuFTZHsAmBwB5hi4U01qm2kBUrxcpGO0GboNaeQQgWYmcpgqcQEcEjfOJ7hxhmhvl5oR+q/9186osXb2ykiXXffA5/bDRKy0kiueKttdzEujkE3sKKOmk+UwrCcFxR7Y+7YH12euXmLxatoFZb/VZU58suQFG7SPvfk2ZihgEe2zl16qdFFI52UXR7X2W+HMx+4pbMCp6sGzS282ZAsixL4g+RCgAAAAAAAAAAAAAAAAAAAAAAAAAAAAAAAAAAAAAAAAAAAAAAAAAAAAAAAAAAAAAAAAAAALiyd8cqbYVhGMfPVEkgIWSJnikhJJBFsuSAoAEDIQ4ZBKGlcQiUgJyMDiV1iNCxvQFvwKG3UEvRRep0ODiFOokEhCIF6V6qtFBNa5Lte97/7yI+nu89z3k/AAAAAIA1hwuWJJ1VrxQb+awH2HbyzJD9hLPKvV6z22p3wt2tZCW/uOQBFh1+ie34ETnPr+WCxGC5E26v1xc9wJjU8evYivG3r5GOYLDcDqvFPGELljQ+xFZcR2r8XLDa6a830h5gQ/o4NmJ0E2kKeu3dZCblAQaYiViXF5Esv9Rc265zZsGAExtTrPMrpQnWBLlya3fIIB7q8jYilnLA+s0PWitD2lrQZiNiCXQapuEXuv06Xw4hbPFzrG98G1nhl9tbeQ9QdfQslvc9sqTUDIfELIjK7sXqRlKl0WkU2lUm8NC0IB+x9EqjTyst9xseoCe1E2sb3VgLWHdqzbBCCx561P+BvjbQaZjIH4RDjiyoSR2fx8KMBqx75YM6RxbEaP+gY6E0+h/lsOgBUpTbo+dXkW3+5grjd0jJC7dHjQesX/xmny4plOi2R80HrDu5bpW/DKFjSbbaQMC6F3TqHqDi8FMsiYD1x2Al4wEiRNe7X14Y7jQ8UOtWqThAREay2kDA+kvioOIBEiTn7kywHmhusMcBErI7en13AtYjpTVCFiQIzt0JWI/5q1Xeq4CAtFzfnYA1USKkRgoBcn13AtZktTdDD3DeqdbcXf5tr/ltbnEthPNSZ1JzdwLWvwXvuBbCeVJ7ZkzvwZriWsjWGTjv6FUsw+yi0Sk11+m9w3FLOmUsAtZTCtsMsuC4osyl0OJTOTMPsngLDI77KHIpHJt7i3AOuQ67SOE2lT90bD32PC+/xegdbiu+jAWMbwlY0/BXkx7gMoVLIT/lTK333AMclt0Zxa6jMzq9Mmv94LSG85dCKg2znVge4LCj/dhtVBpmUuhTyILDUmduL5oZUWmYTcCJBZdl3jrdbaDSwIkFU05fxO4a30bgxIIh6ffuXgqpNMwjscG3Qrgru+dst4FKA98K8ZO9O2ZpK4riAP5mwRBcTN7UEhRc3CoUWgdB7GCgULBoBxfBvVBoXQqO5tN07SL4BUJxCnTK4FS6SPcWKaVDiem7YO657/f7EId3z/ufc1onbOBdx13FooWGQbMNOu5NvTSlQ1zLMdtYhgib292uIKreWcBsg457gvrYkVXiGhzGq1j2IifZ71YQVbw2lrV9adYdLCSuzujdl1h+jEnw5Kn4KIH1zmJVLBGsJPUnO94JbSPUUKGtMmk29dwJ7iDSUKEIVpL3do8SXecqzsLkqQhWirU3FUTXv4ySH518H9Pc6kW/gvC6UcagPQiT7D+qoABBGu8ehEmeabhTiIPXASqWB6GGO9z5HCDx7kGYYutVBaVYHmX/q9CDMMWqhDslWTnNPPHuQZiifr5SQUFy/1XoQZig/mBHA4UZZP2rcPrVg7C5zUEFhVnKeDnW5NsYm5HhL8NspwqvLZVJ8NjtCUrUuco13GDLaFKgwT1CitTPNNxw40HY3NpbE4QUqn+ZY8WaODth4hn+oZdjHEuiobn6yIpRCtbNb2WyRENztSM5lG3nPLMAqQZWgr2dCoq2kVfFcjc1gbOplG/7MKeKJdHgMD1EibxPb8c0dCLgTivkU7HceVav4D7DTDaQamA1t24gh7bo5FGxriWwEuqVgRzaI4uKJYHV2PqLClokg4p1o+HuPQhBKpalyL6vIErFsgPL9xWEqVgSo76vIErFkhj1fQVR0g0So82/r+QZaKv/qVga7jnwfUWLdYbzT+lIuGfgRF6UVluac3eDhHsOzA/SdvNVLD8Ic7CrXtF62w+90W96q+HeyLH9V1ANzufY824n8qLVe/aLwi87912m8INw8ep9+9vhTvd09r1CRwgXbvXIfRz4rTfzwqoJwoVbu3B/EP7ojz7OCGQ5mrpgW+7R/2TvjlnTCOM4jt9UULggt1y8SZETXI4uCoIKFkQHA4JgqbdJwD0QiQ4ROiZvIG8gQ8esaWhLhtBOR7jJNYOQF9C916Eltl6803vuuZDv50X8+T//5/f8H+Cp7K1v6J1Ag2z5PvUKWHXgH8hixahUPZ7jAP9Jrw9kEcCSzCIuCqxRmC3v/8WGBsmMaUEBsCHeQL1KBL1OnAHwsS/usnBJYHQLlSpxBsCXer16WUhgVKqTvqoA8Df4PXqnXiVCbaAAeFZpdky9SoJyl9fOwEaZryP33sODHKnMs5wCIFDqnXolWdEm3Q4EHWQdU69kMqwBy9uBEIMsNrjLU75ifAXISGS5PHgOLU/6Cgj/GJp6JcUhj52B0AqzCfUqfnqXx4OAlGOh+8hCmZBSHAeB7ajesZD+KlattzzGAbY/Fo7or+KjX3EcBHagnb93t84z0F+FUzzSFAA72PNCpORF42C004RFgd3fFs5d6pVwqTNW9QHRzN5DN1kL6lUoRo1pOxCRd+ORyz4Zgcw6H9EDkdGuPyyoV6IYh32m7UCUCiGarCX1Klx7RZgBENBk8d+EAC3aK8AjoMkK9p+Xg8AqtFeAGNkg14UP/D8Y6nKQxaKAKKUfc5f/6CPMXrGoDxBIvfsy4flgNPT2gOwVIFbu/Mbl+WAEekd8iwOI1/BLOCx+Uq+CqgwbCoAYaJ8/Tohf7aJsdcgyAHHJeOdC4ldb61V56AzE6XL8ZrVkPRC/CihV5zQIxEw9eHpf6D4SZwhGbze5GwTil7v99CdHuuB6MJhyy+ZuEJCj9O3GZTtDCCdVkqKANHuX4+8u4/aAivUGS5ABmdS72ZxxexCVbprhFSCb1pyaDjYwp02SV0AS7HfalKxnme0OHzoDSaH1Ld2BD91iRx+QKBm7RslaS6/Z5NqBpMnZdFnruiuCV0AiZWyLWdYK06K7AhLLG7/TZf2lM2oHki3XmaYceFLTDodBIOmyzWHeefXywybfSwAvQfb0omc4r5jRuzilXP1q7+5RHYXCMI7XCgZJo0mliAEbSWPggEcwIFpYCIKFKWzSaGmVNFlAVpBtZCV3SxOYai7DMJf7kXj8/xZxeH2el1dgMjyRzTbMsjLBvwaBaTHrfJZhlpbXFIPA9NiN3ERvsxJtZEMxCEyT4Yk5LZNaofA4yABMmFPc3VmMWZF7Z40BmLxVItRfgPdDkdALAkowt+1J4U9D69RuCdoBdRjBoOoGvHYeApIrQDH2RYS7N8XsQnGhFgSUtEyvKl3NsuIrd48BlZmpPCoRwftHmRJcAcozi1s28TfLz24FrxUwD4bZ3OLJnnRw41tjErMDc+I0Itcmt1Iaablo2A8FZsj2hnJKgZZ/LAePThCYrUWQ9p02gebQ0ro+DfjTPDB3S+8gw5feKtVCefBYYADwm6kf2uMrTlqWdmwPOo0ggD8Ytj7I0H2h28prN5SDblMIAvgrMymuefX89jDSqvxaJExWAP7N2Kej7E7Wk2attXXq5JjuGawA/J+F4zWj7Cr3R2Mty606OTaeQxsI4OOzln4Q927jR988ba0jf9PdxUFnrgLwGSsnuBSi7bLTd0RbkXbKulYUl8DhYiiAL7Iwk7Qeb2VY7XwrWn92orL8XRWWt7FOE5MPQADfYbF0zEDfDr0853FWbXb+2wf4u02VxflZ9sNWD0xnyVMF4EcYzj65pGldj33fluU5fqjcd6r44VyWbd+PdZ2ml2TvEFMBeCZjtVraD475jmM/LFcrHikAAAAAAAAAAAAAAAAAAAAAAKCeX51FBBRQro80AAAAAElFTkSuQmCC" parent="Eb9f-dnprXw0Rj66SGwR-61" vertex="1">
          <mxGeometry width="96.8" height="52.27" as="geometry" />
        </mxCell>
        <mxCell id="Ew_23fBss7E3DuVcSk8F-3" value="ElasticSearch" style="text;html=1;strokeColor=none;fillColor=none;align=center;verticalAlign=middle;whiteSpace=wrap;rounded=0;" parent="Eb9f-dnprXw0Rj66SGwR-61" vertex="1">
          <mxGeometry x="33.47000000000003" y="55" width="78" height="20" as="geometry" />
        </mxCell>
        <mxCell id="Ew_23fBss7E3DuVcSk8F-4" value="LogStash" style="text;html=1;strokeColor=none;fillColor=none;align=center;verticalAlign=middle;whiteSpace=wrap;rounded=0;" parent="Eb9f-dnprXw0Rj66SGwR-61" vertex="1">
          <mxGeometry x="52" y="75" width="40" height="20" as="geometry" />
        </mxCell>
      </root>
    </mxGraphModel>
  </diagram>
</mxfile>
